<svg xmlns="http://www.w3.org/2000/svg" viewBox="0 0 262.46 224.52"><defs><style>.cls-1{fill:#1a2e35;}.cls-2{fill:#2b454e;}.cls-3,.cls-30{opacity:0.15;}.cls-4{fill:#ffaaa8;}.cls-5{fill:#e7e7e7;}.cls-6{fill:#ececec;}.cls-7{fill:#e1e1e1;}.cls-27,.cls-8{fill:#f5f5f5;}.cls-9{fill:#ff9090;}.cls-10{fill:#c76668;}.cls-11,.cls-20{fill:#d268cc;}.cls-12,.cls-34{opacity:0.2;}.cls-13,.cls-22,.cls-26,.cls-30,.cls-32,.cls-34,.cls-37,.cls-38,.cls-39{fill:#fff;}.cls-13,.cls-17,.cls-19{opacity:0.1;}.cls-14,.cls-20,.cls-27,.cls-32{opacity:0.5;}.cls-15{opacity:0.35;}.cls-16,.cls-18{opacity:0.25;}.cls-21,.cls-37{opacity:0.4;}.cls-22,.cls-24,.cls-25{opacity:0.3;}.cls-23,.cls-38{opacity:0.45;}.cls-28{fill:#375a64;}.cls-29,.cls-31{opacity:0.05;}.cls-33{fill:#fafafa;}.cls-35{opacity:0.7;}.cls-36{fill:#f0f0f0;}.cls-39{opacity:0.6;}</style></defs><g id="Layer_2" data-name="Layer 2"><g id="Layer_1-2" data-name="Layer 1"><path d="M246,60.34c-.07-.49-.1-.91-.13-1.28-.06-.89-.13-1.75-.82-2.23-.82-6.88-2.56-16.42-3.51-19.15-1.4-4-2.46-4.43-7-6.26l-.47-.19-5.26-2.1c-.36-.49-1-1.47-1.27-1.87a3.75,3.75,0,0,0-1.52-1.77l0-1.21a3,3,0,0,0,.73-1c.08-.17.17-.36.28-.57s.13-.26.21-.4A2.77,2.77,0,0,0,228.6,22a4.53,4.53,0,0,0,1.77-6.13,3.29,3.29,0,0,0-.88-1.06c.51-3.54,0-4.95-.47-5.79a4.78,4.78,0,0,0-2.15-2c-.82-2.41-4-4.85-9.46-4.86h0c-4.38,0-7.32,1.55-9,4.72a8.87,8.87,0,0,0-.31,6.4c-.08.82-.12,1.64-.13,2.46a32.06,32.06,0,0,0,.17,6.49,7.5,7.5,0,0,0,2.2,4.68,5.68,5.68,0,0,0,2.3,1.11l-4.1.92h-.06a9.62,9.62,0,0,0-3.35,1.42c-1.1.65-1.91,1.47-3.94,3.66-1.6,1.72-6.94,8-9.44,10.9l-.22-.07a2.07,2.07,0,0,0-.62-.12h-.11c-2.52-1.94-6.65-5.11-8.41-6.25a4.58,4.58,0,0,1-2.14-3.27,11.72,11.72,0,0,0-.54-1.69,10.44,10.44,0,0,0-1.9-2.77A12.62,12.62,0,0,1,176.48,29c-.22-.35-.4-.67-.56-1-.52-.91-.92-1.63-1.73-1.63a1.55,1.55,0,0,0-1.1.56c-1,1.08-.35,3.07,0,4.14,0,.15.08.27.1.34l.09.25c-1.52-.71-3.73-3-4.95-4.26-.39-.4-.7-.72-.91-.91a1.54,1.54,0,0,0-1-.45,1.28,1.28,0,0,0-1,.48,2.75,2.75,0,0,0-.37,2.16,6.13,6.13,0,0,1-.17,1.52,8.73,8.73,0,0,0-.15,3.3,7.36,7.36,0,0,0,2.54,4.53,52.62,52.62,0,0,0,7,5.47l.05,0c2.71,1.6,3.68,2.68,8.39,8.14l1.21,1.42c.45.55.89,1.07,1.33,1.57a2.82,2.82,0,0,0,.81,2.17A7.53,7.53,0,0,0,188.36,59l5.77,16.14a.76.76,0,0,0,.53.5l6,1.73-.16,3c-.59,10.49-1.19,21.33-1.11,28.1.06,5,.46,32.27.49,34.05l-.19.26a.93.93,0,0,0-.81,1,.17.17,0,0,1,0,.07l-.42.5h-.17a.93.93,0,0,0-.88.95.78.78,0,0,0,0,.16l-.42.41h-.18a.92.92,0,0,0-.88.9l-.83.66a.89.89,0,0,0-.49.38c-1,.76-1.92,1.42-2.74,2s-1.76,1.26-2.34,1.77a2.07,2.07,0,0,0-.53,2.66,2.9,2.9,0,0,0,1.23,1.92c.73.56,2.43,1.49,5.68,1.49h.34a14.34,14.34,0,0,0,8.3-2.39,8.73,8.73,0,0,0,2.26-2.9l.3-.52.31-.52h0l.25.1a.81.81,0,0,0,.61,0s3.51-1.91,3.48-3.21c0-.44-.07-1.65-.09-2.11a7.46,7.46,0,0,0,.09-3.14v0c.13-.85,3.13-21,3.37-25.34.2-3.53,0-8.39,0-9.1l1.72-11c1.08,5.3,2.91,14.16,4.24,19.68,2.09,8.65,6.43,32,6.47,32.21a.82.82,0,0,0,.53.61l.49.14c.18,1.55.28,3.17.4,5.16l0,.73a27.06,27.06,0,0,0,.37,3.34s0,0,0,.06a11.06,11.06,0,0,0,2.06,5.34,4.48,4.48,0,0,0,3.64,1.57,6.55,6.55,0,0,0,6.32-4.86,10.72,10.72,0,0,0-.36-5.65l-.21-.84a20,20,0,0,0-1.06-2.83,25.92,25.92,0,0,1-1.32-3.52.81.81,0,0,0,.38-.71c0-.14-.45-14-1.11-21.39-.43-4.85-1.21-9.33-1.67-12-.21-1.21-.38-2.16-.41-2.57,0-.18-.57-22.82-1.71-41v-.58a57,57,0,0,0,7.83-3.39,1.73,1.73,0,0,0,.93.27,2.27,2.27,0,0,0,1.63-.8A7.66,7.66,0,0,0,246,60.34Zm-3.65,6-.07,0ZM225.47,26.16h-.16Zm.4.11-.06,0Zm.34.29s0,0-.05,0S226.19,26.55,226.21,26.56Zm.35.48-.05-.07Zm.58-5.5h0Zm.46-.05.12,0ZM217.41,2.9c-.31,0-.58,0-.86,0,.28,0,.54,0,.84,0Zm-2.1,24.57h0Zm-.87,0,.44,0ZM215.83,3c-.29,0-.55.08-.82.13C215.28,3.06,215.54,3,215.83,3Zm-1.39.22c-.27.06-.5.14-.75.22C213.94,3.34,214.17,3.26,214.44,3.2Zm-1.24.36c-.24.09-.46.21-.68.31C212.74,3.77,213,3.65,213.2,3.56Zm-1.08.49a7.14,7.14,0,0,0-.64.43A7.14,7.14,0,0,1,212.12,4.05Zm-.94.62a6.44,6.44,0,0,0-.61.55A6.44,6.44,0,0,1,211.18,4.67Zm-.81.74a5.1,5.1,0,0,0-.51.62A5.1,5.1,0,0,1,210.37,5.41Zm-.69.84a8.18,8.18,0,0,0-.58.94A8.18,8.18,0,0,1,209.68,6.25Zm2.77,20.82.35.11Zm-1.61-.83a4,4,0,0,0,.39.29A4,4,0,0,1,210.84,26.24Zm.54.37a3.07,3.07,0,0,0,.31.17A3.07,3.07,0,0,1,211.38,26.61Zm.51.26.32.13Zm2.24.54-.41-.05Zm-.69-.1-.38-.07Zm-16.63,119.5.06,0h0Zm1.47-1.52.06,0h0Zm1.46-1.52.06,0h0Zm.15,0h0ZM192,45.68h0Zm-.16,0a1.46,1.46,0,0,1-.22,0A1.46,1.46,0,0,0,191.81,45.68Zm-.27,0-.23-.07Zm-.4-.12-.06,0Zm-.25-.05h0Zm-.13,0a.34.34,0,0,0-.15.07A.34.34,0,0,1,190.76,45.5ZM175.47,28.87a2.12,2.12,0,0,1-.12-.2C175.39,28.73,175.42,28.8,175.47,28.87Zm-.34-.59-.22-.38Zm-.25-.42a2.77,2.77,0,0,0-.21-.31A2.77,2.77,0,0,1,174.88,27.86Zm-.26-.37a1.06,1.06,0,0,0-.15-.15A1.06,1.06,0,0,1,174.62,27.49Zm-.78,5.25a1.39,1.39,0,0,0,.32,0A1.39,1.39,0,0,1,173.84,32.74Zm.36,0a.27.27,0,0,0,.13,0A.27.27,0,0,1,174.2,32.78Zm.17,0s0,0,.06,0S174.39,32.73,174.37,32.75Zm.09-.09a.14.14,0,0,0,0-.07A.14.14,0,0,1,174.46,32.66Zm0-.11a.71.71,0,0,0,0-.14A.71.71,0,0,1,174.49,32.55Zm-.09-5.26a.49.49,0,0,0-.17-.06A.49.49,0,0,1,174.4,27.29Zm-.2-.07a.55.55,0,0,0-.17.05.58.58,0,0,1,.16-.05Zm-.25.07a1.16,1.16,0,0,0-.28.24A1.16,1.16,0,0,1,174,27.29Zm-.2,5.43a3.6,3.6,0,0,1-.48-.15A3.6,3.6,0,0,0,173.75,32.72Zm-8-4.49a2,2,0,0,0,.05.34A2,2,0,0,1,165.76,28.23Zm0-.45a1.5,1.5,0,0,1,0-.24A1.5,1.5,0,0,0,165.78,27.78Zm.06-.31a1.28,1.28,0,0,1,.1-.26A1.28,1.28,0,0,0,165.84,27.47Zm.68-.55a1,1,0,0,0-.17,0h0Zm.37.22a.92.92,0,0,0-.28-.2A.92.92,0,0,1,166.89,27.14Zm-.6-.23a.35.35,0,0,0-.14.06A.35.35,0,0,1,166.29,26.91Zm-.2.11a.87.87,0,0,0-.12.14A.87.87,0,0,1,166.09,27Zm-.32.86a1.93,1.93,0,0,0,0,.24A1.93,1.93,0,0,1,165.77,27.88Zm34,115.67.25,0a2.53,2.53,0,0,0-.28,0Zm-.11.21a.2.2,0,0,1,0-.08A.2.2,0,0,0,199.71,143.76Zm-1.31,1.32.4,0a3.62,3.62,0,0,0-.47,0Zm-.15.2a.12.12,0,0,1,0-.08A.12.12,0,0,0,198.25,145.28Zm-1.39,1.32h.07l.36,0a3,3,0,0,0-.43,0Zm-.07.2a.09.09,0,0,1,0-.08A.09.09,0,0,0,196.79,146.8Zm-1.39,1.32h0Zm-4.32,7.57-.34-.23Zm4,1.06-.51,0Zm-.91-.08-.46-.07Zm-.81-.13-.4-.1Zm-.71-.18-.35-.12A3.59,3.59,0,0,0,192.64,156.36Zm-.61-.2-.32-.14Zm-.51-.23-.3-.16Zm4.41.85h0Zm36.89,8-.15-.1Zm2.27.62h0Zm-1.63-.28h0Zm.75.2.18,0Zm1.3.07h0ZM241.93,66l0,0Zm.2.19-.06-.05Zm.57.21.28,0-.26,0Zm.71-.25a2,2,0,0,0,.37-.31A2,2,0,0,1,243.41,66.14Zm-.37.19.27-.12Z"/><g id="Chartacter"><g id="Bottom"><polygon points="207.99 150.59 205.27 149.55 206.19 147.77 207.85 149.32 207.99 150.59"/><path class="cls-1" d="M210.89,145.86s.08,1.72.1,2.27-2.41,2.19-3,2.46l-.14-1.27a9.51,9.51,0,0,0-1.4,2,10.18,10.18,0,0,1-2.37,3.21,13.75,13.75,0,0,1-7.82,2.22c-3,.05-4.69-.68-5.52-1.32a1.89,1.89,0,0,1-.87-2.12C190.09,152.61,210.89,145.86,210.89,145.86Z"/><path class="cls-2" d="M203,139.84l0-1c-.55,0-.64,1.42-1.46,2.68a26.1,26.1,0,0,1-4.29,5.14c-3.07,2.63-5.8,4.27-7.17,5.45-1.84,1.58,1.29,4.19,6.17,4,2.42-.1,6.73-1.21,8-2.57s2-3.52,3-4.51,3.08-2,3.7-3.18a8.06,8.06,0,0,0,0-3.57c-.16-1.23-.17-3.1-.88-3L210,140a3.61,3.61,0,0,1-2.94,1.69C206.05,141.79,203.15,141.83,203,139.84Z"/><path class="cls-3" d="M205.46,141.67a2.68,2.68,0,0,1-2.3-1.23s0,0,0,0a2.25,2.25,0,0,1-.67,1.91c-.88,1-6.5,7.86-6.5,7.86s5.22-5.67,6.22-6.74c1.48-1.58,1.94-1.76,3.27-1.78Z"/><path class="cls-3" d="M204.22,143.5a.29.29,0,0,0,.32.26.31.31,0,0,0,.27-.32.3.3,0,0,0-.33-.26A.29.29,0,0,0,204.22,143.5Z"/><path class="cls-3" d="M202.75,145a.31.31,0,0,0,.33.26.31.31,0,0,0,.27-.32.3.3,0,0,0-.33-.26A.31.31,0,0,0,202.75,145Z"/><path class="cls-3" d="M201.29,146.53a.29.29,0,0,0,.32.26.28.28,0,0,0,.27-.31.29.29,0,0,0-.32-.26A.28.28,0,0,0,201.29,146.53Z"/><path class="cls-3" d="M199.83,148.05a.29.29,0,0,0,.32.26.29.29,0,0,0,.27-.31.3.3,0,0,0-.33-.26A.28.28,0,0,0,199.83,148.05Z"/><path class="cls-3" d="M198.36,149.57a.3.3,0,0,0,.33.26.29.29,0,0,0,.27-.31.3.3,0,0,0-.33-.26A.29.29,0,0,0,198.36,149.57Z"/><path class="cls-1" d="M204.52,143.59l.08,0a.12.12,0,0,0,0-.16,5,5,0,0,0-3.35-1.35h0a.13.13,0,0,0-.11.12.11.11,0,0,0,.12.11,4.86,4.86,0,0,1,3.17,1.28A.11.11,0,0,0,204.52,143.59Z"/><path class="cls-1" d="M203.06,145.1a.11.11,0,0,0,.07,0,.12.12,0,0,0,0-.17,4.91,4.91,0,0,0-3.34-1.34h0a.12.12,0,0,0-.12.12.13.13,0,0,0,.13.11,4.81,4.81,0,0,1,3.16,1.27A.13.13,0,0,0,203.06,145.1Z"/><path class="cls-1" d="M201.59,146.62a.11.11,0,0,0,.08,0,.12.12,0,0,0,0-.17,5,5,0,0,0-3.34-1.34h0a.12.12,0,0,0-.11.12.12.12,0,0,0,.13.11,4.77,4.77,0,0,1,3.16,1.28A.16.16,0,0,0,201.59,146.62Z"/><path class="cls-1" d="M200.13,148.14a.11.11,0,0,0,.08,0,.14.14,0,0,0,0-.17,5,5,0,0,0-3.35-1.34h0a.11.11,0,0,0-.11.12.12.12,0,0,0,.12.11,4.81,4.81,0,0,1,3.17,1.28A.14.14,0,0,0,200.13,148.14Z"/><path class="cls-1" d="M198.67,149.66a.11.11,0,0,0,.07,0,.12.12,0,0,0,0-.17,4.89,4.89,0,0,0-3.34-1.34h0a.12.12,0,0,0-.12.12.13.13,0,0,0,.13.11,4.81,4.81,0,0,1,3.16,1.27A.13.13,0,0,0,198.67,149.66Z"/><path class="cls-1" d="M230.21,159.18a10.46,10.46,0,0,0,1.9,5,4.19,4.19,0,0,0,4.1,1.15,5.61,5.61,0,0,0,4.46-4.17,9.9,9.9,0,0,0-.42-5.42Z"/><path class="cls-2" d="M235.6,141.9c.66,0,1.19,3,1.91,6,.77,3.24,2,5,2.59,7.14.8,3,.74,4.43-.17,6.4s-5.52,4.34-7.75,1.88c-1.82-2-2.15-4.4-2.34-7.49a75.55,75.55,0,0,0-.72-7.83c-.38-2.29-.79-4.5-.25-4.81.08.33.17.75.25,1.08s.27,1.49.64,1.46a5,5,0,0,0-.09-.86,1,1,0,0,1,.1-.76,1.24,1.24,0,0,1,.69-.4c.63-.19,1.27-.36,1.92-.49.32-.06.65-.11,1-.14a9.94,9.94,0,0,1,1.72-.11.59.59,0,0,1,.39.27,1.05,1.05,0,0,1,.08.35,2.25,2.25,0,0,0,.15.62c0,.09.11.2.2.16s.09-.12.09-.19c0-.37-.12-.64-.19-1.07,0-.2-.09-.47-.11-.67S235.64,142.09,235.6,141.9Z"/><path class="cls-3" d="M237.78,156.09a.24.24,0,0,1-.18.27.22.22,0,0,1-.27-.17.22.22,0,0,1,.17-.27A.23.23,0,0,1,237.78,156.09Z"/><path class="cls-3" d="M237.32,154a.22.22,0,0,1-.18.27.24.24,0,0,1-.27-.17.24.24,0,0,1,.18-.27A.23.23,0,0,1,237.32,154Z"/><path class="cls-3" d="M236.89,152a.22.22,0,0,1-.17.27.23.23,0,1,1-.1-.44A.22.22,0,0,1,236.89,152Z"/><path class="cls-3" d="M236.47,150.06a.23.23,0,0,1-.18.27.24.24,0,0,1-.27-.18.21.21,0,0,1,.18-.26A.22.22,0,0,1,236.47,150.06Z"/><path class="cls-3" d="M231.32,150.91a.24.24,0,0,1-.18.27.23.23,0,0,1-.1-.44A.24.24,0,0,1,231.32,150.91Z"/><path class="cls-3" d="M231.74,152.88a.23.23,0,0,1-.18.27.24.24,0,0,1-.27-.18.22.22,0,0,1,.18-.26A.22.22,0,0,1,231.74,152.88Z"/><path class="cls-3" d="M232.17,154.86a.23.23,0,0,1-.18.27.24.24,0,0,1-.27-.18.21.21,0,0,1,.18-.26A.22.22,0,0,1,232.17,154.86Z"/><path class="cls-3" d="M232.63,157a.24.24,0,0,1-.18.27.25.25,0,0,1-.28-.18.23.23,0,0,1,.18-.26A.23.23,0,0,1,232.63,157Z"/><polygon class="cls-3" points="234.67 157.76 231.27 143.14 232.11 143.03 234.67 157.76"/><path class="cls-1" d="M237.57,156.25h0a10.56,10.56,0,0,0-5.08.84.11.11,0,0,1-.16,0,.1.1,0,0,1,0-.15,10.68,10.68,0,0,1,5.23-.87.11.11,0,0,1,.11.12A.13.13,0,0,1,237.57,156.25Z"/><path class="cls-1" d="M237.12,154.15h-.06A8.29,8.29,0,0,0,232,155a.12.12,0,0,1-.16,0,.11.11,0,0,1,0-.15,8.53,8.53,0,0,1,5.26-.87.12.12,0,0,1,.07.15A.13.13,0,0,1,237.12,154.15Z"/><path class="cls-1" d="M236.69,152.17s0,0-.06,0a8.25,8.25,0,0,0-5,.84.11.11,0,0,1-.16,0,.1.1,0,0,1,0-.15,8.54,8.54,0,0,1,5.26-.87.12.12,0,0,1,.07.15A.13.13,0,0,1,236.69,152.17Z"/><path class="cls-1" d="M236.27,150.22h-.06a8.29,8.29,0,0,0-5.06.85.13.13,0,0,1-.16,0,.12.12,0,0,1,0-.16c1.14-.69,4-1.29,5.25-.86a.11.11,0,0,1,.08.14A.14.14,0,0,1,236.27,150.22Z"/><path class="cls-1" d="M233,67.52c1.3,18.81,1.93,44.4,1.93,44.4.12,1.43,1.46,7.54,2.09,14.58.66,7.44,1.1,21.35,1.1,21.35s-5.39,2.73-9.71,1.28c0,0-4.37-23.48-6.49-32.25-2-8.31-5.1-24-5.1-24l-2.43,15.51s.23,5.35,0,9.1c-.24,4.35-3.36,25.27-3.36,25.27s-5.86,3.26-10.33-.14c0,0-.43-28.9-.49-34.14-.13-10.29,1.35-30.21,1.9-43.48Z"/><path d="M224.82,89.06q.52,6.75,1.19,13.51.31,3.38.68,6.75l.35,3.37.18,1.68c.06.57.17,1.12.25,1.68.71,4.47,1.79,12.58,2.57,17s1.61,8.91,2.51,13.35q-.83-6.74-1.83-13.44c-.66-4.47-1.69-12.59-2.42-17.05-.08-.55-.2-1.11-.26-1.67l-.19-1.68-.4-3.37c-.26-2.24-.54-4.48-.82-6.73Q225.79,95.77,224.82,89.06Z"/><path d="M203.38,87.54c-.53,4.19-.84,8.41-1.08,12.63s-.46,8.45-.35,12.68.09,11.3.2,15.53.26,8.44.47,12.66q.16-6.33.19-12.67c0-4.22,0-11.3,0-15.52l0-3.17v-1.57l0-1.58.16-6.33.18-6.33C203.19,91.76,203.29,89.65,203.38,87.54Z"/><path d="M216.77,92.84,215,82.53s-5.25-.8-7.91-3.18c0,0,1.7,3.12,6.64,4.39l1.77,9.11-1.16,15.5Z"/></g><g id="Top"><path class="cls-4" d="M192.07,46.7s-7.61-6-10.14-7.6-2.16-3.44-3-5.31h0c-.81-1.86-2.1-2.67-3.15-4.36s-1.31-2.78-2.13-1.9.18,3.2.31,3.73c.07.27.43.79.5,1.15s-.14.56-1.21.16c-2.15-.79-5.51-4.65-6.38-5.43s-1.29.45-1.08,1.43-.68,3.19-.32,4.8a6.62,6.62,0,0,0,2.32,4.14,52,52,0,0,0,6.87,5.38c2.85,1.68,3.89,2.85,8.59,8.3,3.55,4.12,6.2,8.14,9.84,6.1Z"/><path class="cls-5" d="M210.34,29.49a8.46,8.46,0,0,0-4.82,1.5c-1,.58-1.7,1.31-3.76,3.52s-10.51,12.16-10.51,12.16A62.8,62.8,0,0,1,192.19,58c1.91.29,3.69-1.56,6.13-3.57,4.59-3.8,10.23-10,14.89-15.21Z"/><path class="cls-6" d="M192,45.68c-.66,0-.94-.37-1.35-.11,0,0,.72,1.92-.32,5.4s-3.51,4.28-3.51,4.28l-.68-.73s-.49.59.54,1.86,2,2.28,4,2.39,3.82-1,3.88-1.87.93-4.61-.29-8.4C193.52,46.38,192.65,45.63,192,45.68Z"/><path class="cls-7" d="M191.66,45.85c1.73,2.31,1.72,6.69.79,9.91C193.65,53.37,194.62,48.62,191.66,45.85Z"/><path class="cls-7" d="M192.19,51.05c.09,2.83-1,4.88-3.91,5.64A7.61,7.61,0,0,0,192.19,51.05Z"/><g id="Chest"><path class="cls-8" d="M233.84,32s3.36,2.85,1.68,9.72a100.28,100.28,0,0,0-2.31,13.64c-.29,3.63,0,15.89,0,15.89-5.57,6.5-28.53,4.55-31.31-1.46,0,0-.06-23.25,2.12-31.46,1.23-4.65,2.92-7.34,4.7-8.64l7.84-1.76h7.09Z"/></g><g id="Head"><path class="cls-2" d="M225.67,7.45a3.49,3.49,0,0,1,2.66,1.93c.55.94,1,2.7-.11,7.86A20.44,20.44,0,0,1,226.07,23a2.49,2.49,0,0,1-1.4,1.24l-.1-3.91V17.57a11.14,11.14,0,0,1-2.16-4.24,7.11,7.11,0,0,1,.1-3.56Z"/><path class="cls-2" d="M226.21,7.56c-.5-2.18-3.42-4.65-8.8-4.66-4.42,0-6.91,1.65-8.31,4.29s-.21,5.92-.21,5.92l13.78-1.63Z"/><path class="cls-4" d="M228.2,21.26a2.73,2.73,0,0,1-3-.46l.12,7.59s-.08,1.56-2.48,3.05c-3.41,2.12-4.91,2.66-6.31,4.81-1.31-3.41-2.68-5.29-.57-8l-.09-1.36a12.35,12.35,0,0,1-2.43,0c-1.81-.19-3-1.55-3.64-3.46a27.23,27.23,0,0,1-.67-12.36,4.23,4.23,0,0,1,1.36-2.48C213.9,5.67,218,7.48,221,8.49a5.68,5.68,0,0,0,3.77-.21c-1,1.21-1.44,2.35-1.19,7.9a3.37,3.37,0,0,0,.83,1c.68.54,1.14-1,1.66-1.57a2.27,2.27,0,0,1,3.56.63A3.72,3.72,0,0,1,228.2,21.26Z"/><path class="cls-2" d="M218,12.91l2,.75a1.13,1.13,0,0,0-.65-1.42A1.05,1.05,0,0,0,218,12.91Z"/><path class="cls-2" d="M210.49,13.4l2.06-.71A1,1,0,0,0,211.2,12,1.13,1.13,0,0,0,210.49,13.4Z"/><path class="cls-1" d="M219.25,15a.89.89,0,0,1-.87.89.87.87,0,0,1-.89-.87.88.88,0,1,1,1.76,0Z"/><path class="cls-1" d="M212.69,15a.88.88,0,1,1-.89-.86A.79.79,0,0,1,212.69,15Z"/><path class="cls-9" d="M215.92,13.22l-.43,5.63-3-.94A13.24,13.24,0,0,1,215.92,13.22Z"/><path class="cls-2" d="M223.65,15.71c-.18,3.84-1.5,4.11-2.86,4.33-1.81.3-2.7-.68-5.93-.68a7.32,7.32,0,0,0-3.68,1.05c-.82.34-1.5.23-1.81-.5a12.82,12.82,0,0,1-.62-4.15,30.25,30.25,0,0,0,.16,6.29,6.81,6.81,0,0,0,1.93,4.19c1.38,1.17,4.26,1.64,7.87.84s5-2.29,5.41-3.57c1.4-4.14.85-6.09,1.32-6.88S223.65,15.71,223.65,15.71Z"/><path class="cls-4" d="M215.31,20.52c1.84,0,2.44.29,2.53,1.55.13,1.81,0,2.42-.65,2.51s-1.41.16-1.44-.35a2,2,0,0,1,.12-1.16c.28-.34.18-.39-.63-.37s-.8.16-.56.41.17.8.16,1.16-.08.54-1.25.43c-1-.1-.84-.92-.82-2.47C212.78,21.19,213.22,20.56,215.31,20.52Z"/><path class="cls-10" d="M217.05,20.79l-3,.42a1.48,1.48,0,0,0,1.67,1.34A1.59,1.59,0,0,0,217.05,20.79Z"/><path class="cls-9" d="M216.66,21.25a2.19,2.19,0,0,1,.36,0,1.55,1.55,0,0,1-1.3,1.27,1.52,1.52,0,0,1-.48,0A1.38,1.38,0,0,1,216.66,21.25Z"/></g><g id="Tie"><path class="cls-11" d="M215.1,36a12.94,12.94,0,0,1-1.3-3.52l1.61-1.64.48,4.12Z"/><path class="cls-12" d="M215.1,36a12.94,12.94,0,0,1-1.3-3.52l1.61-1.64.48,4.12Z"/><polygon class="cls-11" points="217.3 35.08 220.05 33.24 222.32 34.79 218.1 36.91 217.3 35.08"/><polygon class="cls-12" points="217.3 35.08 220.05 33.24 222.32 34.79 218.1 36.91 217.3 35.08"/><path class="cls-11" d="M218.48,60.47a131.69,131.69,0,0,1-1.37-22.2l-1.5-.16c-1.05,2.57-4.18,15.07-4.14,21.16-.09,2.12,2.61,7.83,4,7.89S218.7,61.74,218.48,60.47Z"/><path class="cls-13" d="M218.48,60.47a131.69,131.69,0,0,1-1.37-22.2l-1.5-.16c-1.05,2.57-4.18,15.07-4.14,21.16-.09,2.12,2.61,7.83,4,7.89S218.7,61.74,218.48,60.47Z"/><path class="cls-14" d="M215.49,38.43l.12-.32h0l1.5.16h0c0,.18,0,.36,0,.66A2.64,2.64,0,0,1,215.49,38.43Z"/><path class="cls-11" d="M217.34,34.88a6.09,6.09,0,0,0-1.42-.07A3.39,3.39,0,0,0,215.1,36a5.1,5.1,0,0,0,.51,2.16,1.81,1.81,0,0,0,1.5.16,3.12,3.12,0,0,0,1.09-1.44A2.85,2.85,0,0,0,217.34,34.88Z"/><path class="cls-13" d="M217.34,34.88a6.09,6.09,0,0,0-1.42-.07A3.39,3.39,0,0,0,215.1,36a5.1,5.1,0,0,0,.51,2.16,1.81,1.81,0,0,0,1.5.16,3.12,3.12,0,0,0,1.09-1.44A2.85,2.85,0,0,0,217.34,34.88Z"/><path class="cls-5" d="M217.31,34.87s.11.11.16.12c1-.56,1.21-.75,1.48-.67.53.15,1.76,2.33,2.07,3s.25.7,1.21.06a17.16,17.16,0,0,0,4.37-4.21,12.66,12.66,0,0,0,1.73-3.46s-1.09-1.52-1.42-2.1c-.62-1.12-1-1.57-1.6-1.47v.72c-.11,1-1.13,1.91-2.5,3.09s-3.57,2.3-4.09,2.8A10.09,10.09,0,0,0,217.31,34.87Z"/><path class="cls-5" d="M212.35,35.7c.15.39,1.42-2.72,2-2.65.3,0,1,.86,1.53,1.76l.43,0a9.51,9.51,0,0,1-.65-2.37,29.43,29.43,0,0,1,.3-4.21l-.08-.75-.55,0a4.77,4.77,0,0,0-.54.73c-.61,1-2.19,2.81-2.39,4A10.49,10.49,0,0,0,212.35,35.7Z"/></g><polygon class="cls-11" points="185.38 46.29 210.07 52.92 218.88 81.01 218.39 81.62 194.88 74.84 184.89 46.9 185.38 46.29"/><polygon class="cls-15" points="209.57 53.53 218.39 81.62 218.88 81.01 210.07 52.92 209.57 53.53"/><polygon class="cls-16" points="184.89 46.9 209.57 53.53 218.39 81.62 194.88 74.84 184.89 46.9"/><g class="cls-17"><path d="M192.58,52.2l-.27-.94c-.15-.52,1.28-.35,3.19.38l4.44,1c1.92.73,3.72,1.24,3.87,1.76l.27.95Z"/></g><path class="cls-2" d="M190.82,48c-.1-.33.46-.31,1.24-.16l1.42.36s-.67-1.34,2.67-.71c3.68.7,3.9,2.5,3.9,2.5a14.72,14.72,0,0,0,1.78.49c1.22.3,1.37.52,1.5.85l.22.6L191,48.53S190.91,48.3,190.82,48Z"/><path class="cls-2" d="M192.25,49.72c1.17.42,1.66.64,1.89,1.44s.34,1.3.34,1.3l6.57,2s-.45-1.35-.57-1.8.72-.52,1.87-.09L202,51.47l-10.21-2.92Z"/><path class="cls-2" d="M192.25,52.24,192,51.3c-.15-.52,1.28-.35,3.2.38l4.43,1c1.92.73,3.72,1.25,3.87,1.77l.27.94Z"/><path class="cls-4" d="M241.31,42c-1.2-7.42-3.38-8.66-7.54-9.48C230,38.35,232.3,47.1,232.3,47.1l2.28,12.16c-.69.59-11.25,6.69-13.08,7.3a5.09,5.09,0,0,1-2.58-.24,11.27,11.27,0,0,0-4.74-.3l.76,2.45c-2.73,1-5.64.9-8.49,1-.27,0-.61,0-.72.3a.61.61,0,0,0,.24.65,2.63,2.63,0,0,1,.56.49c.21.32.12.75.18,1.13a3,3,0,0,0,.87,1.45,7,7,0,0,0,1.43,1.3,10,10,0,0,0,6.41.83,21.87,21.87,0,0,0,3.94-1.21c1.2-.46,8.53-2.72,9.4-3,6.47-2.35,15.38-5.23,15.86-8.32S242.57,49.76,241.31,42Z"/><path class="cls-5" d="M233.84,32c4.89,2,5.65,2.19,7,6s4.05,20.22,3.87,24.58c-2.88-2.43-6.83-3.23-10.1-3.26L232,47.2C231.28,43.91,229.48,37.08,233.84,32Z"/><path class="cls-6" d="M234.21,57.69c-.29.14.15.59,0,1.16s-.83.83-.71,1.13c0,0,3.93-.45,6.52,1.52s2.48,4.06,2.48,4.06l-.59.38s.73,1.09,1.89-.11a6.9,6.9,0,0,0,1.46-5.38c-.26-1.9,0-2.8-.91-3.1S237.89,55.89,234.21,57.69Z"/><path class="cls-7" d="M234.13,59h0c1-.68,5.42-1.22,7.89.7-1.16-1.45-4.13-2.55-7.81-1.27h0a.92.92,0,0,1,0,.43A.35.35,0,0,1,234.13,59Z"/><path class="cls-7" d="M244,63.54c-.67-1.89-3-3.71-5.41-4.17C241.47,59.71,243.56,60.82,244,63.54Z"/></g></g><path d="M262.46,157.23a6.77,6.77,0,0,0-.09-1l0-.16c0-.05,0-.09,0-.13l0-.1c-.55-2.69-2.55-5.09-5.79-7a30.46,30.46,0,0,0-27.62,0c-3.3,1.91-5.36,4.45-5.83,7.2a8.86,8.86,0,0,0-3.48,6.67v3.88a.63.63,0,0,0,0,.19,7.73,7.73,0,0,0,.46,2.09,11.08,11.08,0,0,0,4.15,5c.41.29.86.57,1.32.84a16.28,16.28,0,0,0,1.5.78l.06,0h0l.29.13.18.07.08,0c.34.15.68.29,1,.42.54.21,1.07.39,1.59.55s.8.22,1.21.32l.06,0,.17,0,.29.07.3.06.19,0c.84.18,1.71.33,2.59.44.67.09,1.34.16,2,.2h.15l.25,0c.24,0,.49,0,.74,0h1.12a29.66,29.66,0,0,0,12.24-2.5c.54-.25,1-.51,1.53-.79s.82-.51,1.13-.72c2.68-1.82,4.32-4.06,4.74-6.49a9,9,0,0,0,3.47-6.32v-3.94Zm-12.63-10.12a28.89,28.89,0,0,0-3.51-.6A28.89,28.89,0,0,1,249.83,147.11Zm-10.75-.6a28.73,28.73,0,0,0-3.52.6A28.73,28.73,0,0,1,239.08,146.51Z"/><g id="Coins"><path class="cls-11" d="M257.29,162.69a12.38,12.38,0,0,0-4.53-4.19c-7.41-4.27-19.42-4.27-26.82,0a12.3,12.3,0,0,0-4.53,4.19h-1v3.88h0c.13,2.69,2,5.36,5.54,7.42,7.4,4.27,19.41,4.27,26.82,0,3.56-2.06,5.41-4.73,5.55-7.42h0v-3.88Z"/><g class="cls-18"><path d="M257.29,162.69a12.38,12.38,0,0,0-4.53-4.19c-7.41-4.27-19.42-4.27-26.82,0a12.3,12.3,0,0,0-4.53,4.19h-1v3.88h0c.13,2.69,2,5.36,5.54,7.42,7.4,4.27,19.41,4.27,26.82,0,3.56-2.06,5.41-4.73,5.55-7.42h0v-3.88Z"/></g><path class="cls-19" d="M239.35,155.3a27.47,27.47,0,0,0-13.41,3.2,12.3,12.3,0,0,0-4.53,4.19h-1v3.88h0c.13,2.69,2,5.36,5.54,7.42a27.36,27.36,0,0,0,13.41,3.2Z"/><path class="cls-19" d="M229,157.07a21.91,21.91,0,0,0-3.05,1.43,12.3,12.3,0,0,0-4.53,4.19h-1v3.88h0c.13,2.69,2,5.36,5.54,7.42a21.91,21.91,0,0,0,3.05,1.43Z"/><path class="cls-20" d="M249.7,157.07a22,22,0,0,1,3.06,1.43,12.38,12.38,0,0,1,4.53,4.19h1v3.88h0c-.14,2.69-2,5.36-5.55,7.42a22,22,0,0,1-3.06,1.43Z"/><path class="cls-11" d="M252.76,155c-7.41-4.27-19.42-4.27-26.82,0s-7.41,11.21,0,15.49,19.41,4.27,26.82,0S260.16,159.23,252.76,155Z"/><path class="cls-12" d="M252.76,155c-7.41-4.27-19.42-4.27-26.82,0s-7.41,11.21,0,15.49,19.41,4.27,26.82,0S260.16,159.23,252.76,155Z"/><path class="cls-11" d="M248.08,157.79a21.31,21.31,0,0,0-17.46,0c-2.49,1.27-3.85,3-3.85,4.91s1.36,3.63,3.85,4.9a21.31,21.31,0,0,0,17.46,0c2.48-1.27,3.85-3,3.85-4.9S250.56,159.06,248.08,157.79Z"/><path class="cls-21" d="M248.08,157.79a21.31,21.31,0,0,0-17.46,0c-2.49,1.27-3.85,3-3.85,4.91s1.36,3.63,3.85,4.9a21.31,21.31,0,0,0,17.46,0c2.48-1.27,3.85-3,3.85-4.9S250.56,159.06,248.08,157.79Z"/><path class="cls-11" d="M252.34,155.67a28.79,28.79,0,0,0-26,0c-3.32,1.91-5.14,4.41-5.14,7s1.82,5.11,5.14,7a28.79,28.79,0,0,0,26,0c3.32-1.91,5.14-4.41,5.14-7S255.66,157.58,252.34,155.67Zm-4.26,11.93a21.31,21.31,0,0,1-17.46,0c-2.49-1.27-3.85-3-3.85-4.9s1.36-3.64,3.85-4.91a21.31,21.31,0,0,1,17.46,0c2.48,1.27,3.85,3,3.85,4.91S250.56,166.33,248.08,167.6Z"/><path class="cls-22" d="M252.34,155.67a28.79,28.79,0,0,0-26,0c-3.32,1.91-5.14,4.41-5.14,7s1.82,5.11,5.14,7a28.79,28.79,0,0,0,26,0c3.32-1.91,5.14-4.41,5.14-7S255.66,157.58,252.34,155.67Zm-4.26,11.93a21.31,21.31,0,0,1-17.46,0c-2.49-1.27-3.85-3-3.85-4.9s1.36-3.64,3.85-4.91a21.31,21.31,0,0,1,17.46,0c2.48,1.27,3.85,3,3.85,4.91S250.56,166.33,248.08,167.6Z"/><path class="cls-12" d="M247.78,167c4.66-2.39,4.66-6.26,0-8.65s-12.21-2.39-16.87,0-4.65,6.26,0,8.65S243.12,169.41,247.78,167Z"/><path class="cls-11" d="M247.78,167c4.66-2.39,4.66-6.26,0-8.65s-12.21-2.39-16.87,0-4.65,6.26,0,8.65S243.12,169.41,247.78,167Z"/><path class="cls-23" d="M247.78,167c4.66-2.39,4.66-6.26,0-8.65s-12.21-2.39-16.87,0-4.65,6.26,0,8.65S243.12,169.41,247.78,167Z"/><path class="cls-11" d="M247.78,160c-4.66-2.39-12.21-2.39-16.87,0-1.92,1-3,2.23-3.38,3.51.33,1.29,1.46,2.53,3.38,3.52,4.66,2.39,12.21,2.39,16.87,0,1.93-1,3.05-2.23,3.39-3.51C250.83,162.22,249.71,161,247.78,160Z"/><path class="cls-24" d="M247.78,160c-4.66-2.39-12.21-2.39-16.87,0-1.92,1-3,2.23-3.38,3.51.33,1.29,1.46,2.53,3.38,3.52,4.66,2.39,12.21,2.39,16.87,0,1.93-1,3.05-2.23,3.39-3.51C250.83,162.22,249.71,161,247.78,160Z"/><polygon class="cls-11" points="240.48 158.46 240.48 160.21 239.88 160.84 238.78 162 238.78 160.18 240.48 158.46"/><polygon class="cls-24" points="240.48 158.46 240.48 160.21 239.88 160.84 238.78 162 238.78 160.18 240.48 158.46"/><path class="cls-11" d="M238.78,160.17v1a9.82,9.82,0,0,1-1.7.48,2,2,0,0,1-.73,0,1.7,1.7,0,0,1-.35-.14c-.42-.25-.48-.63.32-1.09A2.84,2.84,0,0,1,238.78,160.17Z"/><path class="cls-23" d="M238.78,160.17v1a9.82,9.82,0,0,1-1.7.48,2,2,0,0,1-.73,0,1.7,1.7,0,0,1-.35-.14c-.42-.25-.48-.63.32-1.09A2.84,2.84,0,0,1,238.78,160.17Z"/><path class="cls-11" d="M246.69,165.14v1.51l-1.91,1.1-1.42-.81a7.18,7.18,0,0,1-5.47.24v-1.51l.87-.86-.87.24a5.59,5.59,0,0,1-4.27-.49c-.86-.49-1.26-1-1.25-1.59V161.5l.15-.64-.52-.31V159l1.41.82a2.17,2.17,0,0,0-1,1.62v0c0,.54.41,1.07,1.25,1.55,1.86,1.08,3.7.72,5.39.18s2.71-1.11,3.62-.59c.56.32.39.72-.24,1.08a3.14,3.14,0,0,1-2.7.16l-1.8,1.79a5.39,5.39,0,0,0,1,.29,7.41,7.41,0,0,0,4.47-.53l1.42.81Z"/><path class="cls-12" d="M232.37,161.48v0c0,.54.41,1.07,1.25,1.55,1.86,1.08,3.7.72,5.39.18s2.71-1.11,3.62-.59c.56.32.39.72-.24,1.08a3.14,3.14,0,0,1-2.7.16l-1.8,1.79a5.39,5.39,0,0,0,1,.29,7.41,7.41,0,0,0,4.47-.53l1.42.81,1.91-1.1v1.51l-1.91,1.1-1.42-.81a7.18,7.18,0,0,1-5.47.24v-1.51l.87-.86-.87.24a5.59,5.59,0,0,1-4.27-.49c-.86-.49-1.26-1-1.25-1.59V161.5l.15-.64"/><path class="cls-23" d="M232,159v1.51l.52.31h0a3.08,3.08,0,0,1,.89-1Z"/><path class="cls-11" d="M246.37,164.15a1.71,1.71,0,0,1-.14.72l-1-.55a1.87,1.87,0,0,0,1.09-1.45C246.37,163.28,246.37,164.11,246.37,164.15Z"/><g class="cls-25"><path d="M246.37,164.15a1.71,1.71,0,0,1-.14.72l-1-.55a1.87,1.87,0,0,0,1.09-1.45C246.37,163.28,246.37,164.11,246.37,164.15Z"/></g><path class="cls-11" d="M246.37,165l-1.09-.64a1.86,1.86,0,0,0,1.09-1.68.61.61,0,0,0,0-.14,2.09,2.09,0,0,0-1.22-1.49h0a5.06,5.06,0,0,0-2.55-.66h-.46l-.2,0h-.08l-.16,0a9.94,9.94,0,0,0-1.23.26l-.58.17c-.28.08-.55.17-.8.26l-.3.1a10.29,10.29,0,0,1-1.7.49,1.94,1.94,0,0,1-.73,0,1.43,1.43,0,0,1-.34-.14c-.43-.25-.5-.62.31-1.09a2.8,2.8,0,0,1,2.46-.25l1.7-1.72a7.34,7.34,0,0,0-5.14.28l-1.41-.81L232,159l1.42.82a2.17,2.17,0,0,0-1.06,1.62v0c0,.54.42,1.07,1.26,1.55,1.86,1.08,3.7.72,5.39.18s2.71-1.12,3.62-.6c.56.33.39.73-.24,1.09a3.14,3.14,0,0,1-2.7.16l-1.81,1.79a7,7,0,0,0,1,.3,6.56,6.56,0,0,0,1.75.12,8,8,0,0,0,2.73-.66l1.42.82,1.91-1.11Z"/><g class="cls-25"><path class="cls-26" d="M246.37,165l-1.09-.64a1.86,1.86,0,0,0,1.09-1.68.61.61,0,0,0,0-.14,2.09,2.09,0,0,0-1.22-1.49h0a5.06,5.06,0,0,0-2.55-.66h-.46l-.2,0h-.08l-.16,0a9.94,9.94,0,0,0-1.23.26l-.58.17c-.28.08-.55.17-.8.26l-.3.1a10.29,10.29,0,0,1-1.7.49,1.94,1.94,0,0,1-.73,0,1.43,1.43,0,0,1-.34-.14c-.43-.25-.5-.62.31-1.09a2.8,2.8,0,0,1,2.46-.25l1.7-1.72a7.34,7.34,0,0,0-5.14.28l-1.41-.81L232,159l1.42.82a2.17,2.17,0,0,0-1.06,1.62v0c0,.54.42,1.07,1.26,1.55,1.86,1.08,3.7.72,5.39.18s2.71-1.12,3.62-.6c.56.33.39.73-.24,1.09a3.14,3.14,0,0,1-2.7.16l-1.81,1.79a7,7,0,0,0,1,.3,6.56,6.56,0,0,0,1.75.12,8,8,0,0,0,2.73-.66l1.42.82,1.91-1.11Z"/></g><polygon class="cls-11" points="243.36 165.43 243.36 166.94 244.78 167.75 244.78 166.24 243.36 165.43"/><polygon class="cls-23" points="243.36 165.43 243.36 166.94 244.78 167.75 244.78 166.24 243.36 165.43"/><polygon class="cls-27" points="232 159.04 233.93 157.93 235.34 158.74 233.94 158.16 232 159.04"/><path class="cls-27" d="M236.32,160.43a2.8,2.8,0,0,1,2.46-.25l1.7-1.72-1.7,1.54A2.58,2.58,0,0,0,236.32,160.43Z"/><path class="cls-27" d="M237.88,165.67a7,7,0,0,0,1,.3,6.56,6.56,0,0,0,1.75.12,6.09,6.09,0,0,1-2.46-.49l1.52-1.72Z"/><polygon class="cls-27" points="243.36 165.43 244.78 166.06 246.69 165.14 244.78 166.24 243.36 165.43"/><path class="cls-27" d="M226.5,155.92c5-3,12.85-3.35,12.85-3.35a26.39,26.39,0,0,0-13,3.1c-3.32,1.91-5.14,4.41-5.14,7C221.21,162.7,221.39,159,226.5,155.92Z"/><path class="cls-27" d="M237.88,173.61a28.11,28.11,0,0,0,14.88-3.17c4.23-2.45,6.05-5.77,5.43-9,0,0,.8,5.2-5.75,8.76S237.88,173.61,237.88,173.61Z"/><path class="cls-11" d="M260.64,157.26a12.29,12.29,0,0,0-4.53-4.19c-7.41-4.28-19.42-4.28-26.82,0a12.21,12.21,0,0,0-4.53,4.19h-1v3.87h0c.13,2.69,2,5.36,5.54,7.42,7.4,4.28,19.41,4.28,26.82,0,3.56-2.06,5.41-4.73,5.55-7.42h0v-3.87Z"/><g class="cls-18"><path d="M260.64,157.26a12.29,12.29,0,0,0-4.53-4.19c-7.41-4.28-19.42-4.28-26.82,0a12.21,12.21,0,0,0-4.53,4.19h-1v3.87h0c.13,2.69,2,5.36,5.54,7.42,7.4,4.28,19.41,4.28,26.82,0,3.56-2.06,5.41-4.73,5.55-7.42h0v-3.87Z"/></g><path class="cls-19" d="M242.7,149.86a27.39,27.39,0,0,0-13.41,3.21,12.21,12.21,0,0,0-4.53,4.19h-1v3.87h0c.13,2.69,2,5.36,5.54,7.42a27.39,27.39,0,0,0,13.41,3.21Z"/><path class="cls-19" d="M232.34,151.64a20.82,20.82,0,0,0-3.05,1.43,12.21,12.21,0,0,0-4.53,4.19h-1v3.87h0c.13,2.69,2,5.36,5.54,7.42a20.82,20.82,0,0,0,3.05,1.43Z"/><path class="cls-20" d="M253.05,151.64a20.94,20.94,0,0,1,3.06,1.43,12.29,12.29,0,0,1,4.53,4.19h1v3.87h0c-.14,2.69-2,5.36-5.55,7.42a20.94,20.94,0,0,1-3.06,1.43Z"/><path class="cls-11" d="M256.11,149.52c-7.41-4.28-19.42-4.28-26.82,0s-7.41,11.2,0,15.48,19.41,4.28,26.82,0S263.51,153.79,256.11,149.52Z"/><path class="cls-12" d="M256.11,149.52c-7.41-4.28-19.42-4.28-26.82,0s-7.41,11.2,0,15.48,19.41,4.28,26.82,0S263.51,153.79,256.11,149.52Z"/><path class="cls-11" d="M251.43,152.35a21.42,21.42,0,0,0-17.46,0c-2.49,1.27-3.85,3-3.85,4.91s1.36,3.63,3.85,4.91a21.42,21.42,0,0,0,17.46,0c2.48-1.28,3.85-3,3.85-4.91S253.91,153.62,251.43,152.35Z"/><path class="cls-21" d="M251.43,152.35a21.42,21.42,0,0,0-17.46,0c-2.49,1.27-3.85,3-3.85,4.91s1.36,3.63,3.85,4.91a21.42,21.42,0,0,0,17.46,0c2.48-1.28,3.85-3,3.85-4.91S253.91,153.62,251.43,152.35Z"/><path class="cls-11" d="M255.69,150.23a28.79,28.79,0,0,0-26,0c-3.31,1.92-5.14,4.41-5.14,7s1.83,5.11,5.14,7a28.87,28.87,0,0,0,26,0c3.32-1.92,5.15-4.41,5.15-7S259,152.15,255.69,150.23Zm-4.26,11.94a21.42,21.42,0,0,1-17.46,0c-2.49-1.28-3.85-3-3.85-4.91s1.36-3.64,3.85-4.91a21.42,21.42,0,0,1,17.46,0c2.48,1.27,3.85,3,3.85,4.91S253.91,160.89,251.43,162.17Z"/><path class="cls-22" d="M255.69,150.23a28.79,28.79,0,0,0-26,0c-3.31,1.92-5.14,4.41-5.14,7s1.83,5.11,5.14,7a28.87,28.87,0,0,0,26,0c3.32-1.92,5.15-4.41,5.15-7S259,152.15,255.69,150.23Zm-4.26,11.94a21.42,21.42,0,0,1-17.46,0c-2.49-1.28-3.85-3-3.85-4.91s1.36-3.64,3.85-4.91a21.42,21.42,0,0,1,17.46,0c2.48,1.27,3.85,3,3.85,4.91S253.91,160.89,251.43,162.17Z"/><path class="cls-12" d="M251.13,161.59c4.66-2.39,4.66-6.27,0-8.66s-12.21-2.39-16.87,0-4.65,6.27,0,8.66S246.47,164,251.13,161.59Z"/><path class="cls-11" d="M251.13,161.59c4.66-2.39,4.66-6.27,0-8.66s-12.21-2.39-16.87,0-4.65,6.27,0,8.66S246.47,164,251.13,161.59Z"/><path class="cls-23" d="M251.13,161.59c4.66-2.39,4.66-6.27,0-8.66s-12.21-2.39-16.87,0-4.65,6.27,0,8.66S246.47,164,251.13,161.59Z"/><path class="cls-11" d="M251.13,154.55c-4.66-2.39-12.21-2.39-16.87,0-1.92,1-3,2.23-3.38,3.52.33,1.28,1.46,2.53,3.38,3.52,4.66,2.39,12.21,2.39,16.87,0a6.06,6.06,0,0,0,3.39-3.52C254.18,156.78,253.06,155.54,251.13,154.55Z"/><path class="cls-24" d="M251.13,154.55c-4.66-2.39-12.21-2.39-16.87,0-1.92,1-3,2.23-3.38,3.52.33,1.28,1.46,2.53,3.38,3.52,4.66,2.39,12.21,2.39,16.87,0a6.06,6.06,0,0,0,3.39-3.52C254.18,156.78,253.06,155.54,251.13,154.55Z"/><polygon class="cls-11" points="243.83 153.02 243.83 154.77 243.23 155.4 242.13 156.56 242.13 154.74 243.83 153.02"/><polygon class="cls-24" points="243.83 153.02 243.83 154.77 243.23 155.4 242.13 156.56 242.13 154.74 243.83 153.02"/><path class="cls-11" d="M242.13,154.74v1a9.82,9.82,0,0,1-1.7.48,1.61,1.61,0,0,1-.73,0,1.7,1.7,0,0,1-.35-.14c-.42-.25-.48-.62.32-1.09A2.8,2.8,0,0,1,242.13,154.74Z"/><path class="cls-23" d="M242.13,154.74v1a9.82,9.82,0,0,1-1.7.48,1.61,1.61,0,0,1-.73,0,1.7,1.7,0,0,1-.35-.14c-.42-.25-.48-.62.32-1.09A2.8,2.8,0,0,1,242.13,154.74Z"/><path class="cls-11" d="M250,159.7v1.51l-1.91,1.11-1.42-.82a7.22,7.22,0,0,1-5.47.25v-1.52l.87-.86-.87.24a5.55,5.55,0,0,1-4.27-.49c-.86-.49-1.26-1-1.25-1.59v-1.47l.15-.64-.52-.3V153.6l1.41.82a2.18,2.18,0,0,0-1,1.62v0c0,.54.41,1.07,1.25,1.55,1.86,1.08,3.7.72,5.39.18s2.72-1.11,3.62-.59c.56.33.39.72-.24,1.09a3.13,3.13,0,0,1-2.7.15l-1.8,1.79a6.33,6.33,0,0,0,1,.3,7.49,7.49,0,0,0,4.47-.54l1.42.82Z"/><path class="cls-12" d="M235.72,156v0c0,.54.41,1.07,1.25,1.55,1.86,1.08,3.7.72,5.39.18s2.72-1.11,3.62-.59c.56.33.39.72-.24,1.09a3.13,3.13,0,0,1-2.7.15l-1.8,1.79a6.33,6.33,0,0,0,1,.3,7.49,7.49,0,0,0,4.47-.54l1.42.82L250,159.7v1.51l-1.91,1.11-1.42-.82a7.22,7.22,0,0,1-5.47.25v-1.52l.87-.86-.87.24a5.55,5.55,0,0,1-4.27-.49c-.86-.49-1.26-1-1.25-1.59v-1.47l.15-.64"/><path class="cls-23" d="M235.35,153.6v1.52l.52.3h0a3.21,3.21,0,0,1,.89-1Z"/><path class="cls-11" d="M249.73,158.72a1.78,1.78,0,0,1-.15.72l-1-.55a1.89,1.89,0,0,0,1.09-1.46C249.72,157.85,249.73,158.68,249.73,158.72Z"/><g class="cls-25"><path d="M249.73,158.72a1.78,1.78,0,0,1-.15.72l-1-.55a1.89,1.89,0,0,0,1.09-1.46C249.72,157.85,249.73,158.68,249.73,158.72Z"/></g><path class="cls-11" d="M249.72,159.52l-1.09-.63a1.88,1.88,0,0,0,1.09-1.68.76.76,0,0,0,0-.15c0-.52-.43-1-1.22-1.48h0a5,5,0,0,0-2.54-.66h-.25l-.22,0-.2,0h-.08l-.16,0a9.92,9.92,0,0,0-1.23.25l-.58.17-.8.26-.3.11a9.58,9.58,0,0,1-1.7.48,1.75,1.75,0,0,1-.73,0,1.43,1.43,0,0,1-.34-.14c-.43-.25-.49-.62.31-1.09a2.8,2.8,0,0,1,2.46-.25l1.7-1.72a7.29,7.29,0,0,0-5.14.29l-1.41-.82-1.93,1.12,1.42.81a2.19,2.19,0,0,0-1.06,1.63h0c0,.55.42,1.07,1.26,1.56a6.3,6.3,0,0,0,5.39.17c1.57-.51,2.71-1.11,3.62-.59.56.33.39.72-.24,1.08a3.1,3.1,0,0,1-2.7.16l-1.81,1.8a8.52,8.52,0,0,0,1,.29,7,7,0,0,0,1.75.13,8.05,8.05,0,0,0,2.73-.67l1.42.82,1.91-1.1Z"/><g class="cls-25"><path class="cls-26" d="M249.72,159.52l-1.09-.63a1.88,1.88,0,0,0,1.09-1.68.76.76,0,0,0,0-.15c0-.52-.43-1-1.22-1.48h0a5,5,0,0,0-2.54-.66h-.25l-.22,0-.2,0h-.08l-.16,0a9.92,9.92,0,0,0-1.23.25l-.58.17-.8.26-.3.11a9.58,9.58,0,0,1-1.7.48,1.75,1.75,0,0,1-.73,0,1.43,1.43,0,0,1-.34-.14c-.43-.25-.49-.62.31-1.09a2.8,2.8,0,0,1,2.46-.25l1.7-1.72a7.29,7.29,0,0,0-5.14.29l-1.41-.82-1.93,1.12,1.42.81a2.19,2.19,0,0,0-1.06,1.63h0c0,.55.42,1.07,1.26,1.56a6.3,6.3,0,0,0,5.39.17c1.57-.51,2.71-1.11,3.62-.59.56.33.39.72-.24,1.08a3.1,3.1,0,0,1-2.7.16l-1.81,1.8a8.52,8.52,0,0,0,1,.29,7,7,0,0,0,1.75.13,8.05,8.05,0,0,0,2.73-.67l1.42.82,1.91-1.1Z"/></g><polygon class="cls-11" points="246.71 159.99 246.71 161.5 248.13 162.32 248.13 160.81 246.71 159.99"/><polygon class="cls-23" points="246.71 159.99 246.71 161.5 248.13 162.32 248.13 160.81 246.71 159.99"/><polygon class="cls-27" points="235.35 153.61 237.28 152.49 238.69 153.31 237.29 152.72 235.35 153.61"/><path class="cls-27" d="M239.67,155a2.8,2.8,0,0,1,2.46-.25l1.7-1.72-1.7,1.54A2.58,2.58,0,0,0,239.67,155Z"/><path class="cls-27" d="M241.23,160.24a8.52,8.52,0,0,0,1,.29,7,7,0,0,0,1.75.13,6.29,6.29,0,0,1-2.46-.49l1.52-1.73Z"/><polygon class="cls-27" points="246.71 159.99 248.13 160.63 250.04 159.71 248.13 160.81 246.71 159.99"/><path class="cls-27" d="M229.85,150.49c5-3.05,12.85-3.36,12.85-3.36a26.5,26.5,0,0,0-13,3.1c-3.31,1.92-5.14,4.41-5.14,7C224.56,157.26,224.74,153.59,229.85,150.49Z"/><path class="cls-27" d="M241.23,168.17A28.11,28.11,0,0,0,256.11,165c4.23-2.45,6.05-5.76,5.43-8.95,0,0,.8,5.2-5.75,8.75S241.23,168.17,241.23,168.17Z"/></g><path d="M75.88,74.53l-1-.56a.79.79,0,0,0-.4-.1.85.85,0,0,0-.4.1l-1.43.83-.58-.33v-.15a1.19,1.19,0,0,0-.52-1h0l-.07,0h0l-.83-.49,0,0-.11,0a.92.92,0,0,0-.4-.08H70a1.59,1.59,0,0,0-.41.12l-.1,0-.12.07v-.15a1.19,1.19,0,0,0-.52-1h0l-.07,0h0l-.83-.48,0,0-.09,0a1.15,1.15,0,0,0-.41-.08h-.14a1.23,1.23,0,0,0-.41.13l-.11,0-.11.06v-.15a1.2,1.2,0,0,0-.52-1h0l-.07,0h0l-.82-.48-.06,0-.08,0a1.15,1.15,0,0,0-.41-.08l-.14,0a1,1,0,0,0-.41.12l-.11,0-.11.07v-.15a1.19,1.19,0,0,0-.45-1V58.63a.78.78,0,0,0-.4-.69L37.57,43.24a.71.71,0,0,0-.4-.11.73.73,0,0,0-.4.11L.4,64.24a.78.78,0,0,0-.4.69v79.8a.79.79,0,0,0,.4.69l25.46,14.7a.83.83,0,0,0,.4.11.8.8,0,0,0,.4-.11l36.37-21a.79.79,0,0,0,.4-.69v-35.1l12.45-7.19a.78.78,0,0,0,.4-.69V75.23A.81.81,0,0,0,75.88,74.53Z"/><g id="Cabinet"><g id="Cabinet-2" data-name="Cabinet"><polygon class="cls-1" points="26.26 159.43 0.8 144.73 0.8 64.93 26.26 79.63 26.26 159.43"/><polygon class="cls-2" points="26.26 79.63 62.63 58.63 62.63 138.43 26.26 159.43 26.26 79.63"/><polygon class="cls-28" points="62.63 58.63 26.26 79.63 0.8 64.93 37.17 43.93 62.63 58.63"/><polygon class="cls-1" points="29.9 131.35 59 114.55 59 134.77 59.66 135.16 30.57 151.96 29.9 151.57 29.9 131.35"/><polygon class="cls-28" points="30.57 131.73 59.67 114.93 59.66 135.16 30.57 151.96 30.57 131.73"/><g class="cls-29"><polygon points="30.57 131.73 59.67 114.93 59.66 135.16 30.57 151.96 30.57 131.73"/></g><path class="cls-1" d="M42,128.58l5-2.86c.64-.37,1.16-.2,1.16.38a2.33,2.33,0,0,1-1.16,1.72l-5,2.86c-.64.37-1.16.2-1.16-.38A2.33,2.33,0,0,1,42,128.58Z"/><polygon class="cls-1" points="29.9 106.93 59 90.13 59 110.35 59.66 110.74 30.57 127.54 29.9 127.15 29.9 106.93"/><polygon class="cls-28" points="30.57 107.31 59.67 90.52 59.66 110.74 30.57 127.54 30.57 107.31"/><g class="cls-29"><polygon points="30.57 107.31 59.67 90.52 59.66 110.74 30.57 127.54 30.57 107.31"/></g><path class="cls-1" d="M42,104.16l5-2.86c.64-.37,1.16-.2,1.16.38a2.33,2.33,0,0,1-1.16,1.72l-5,2.86c-.64.37-1.16.2-1.16-.38A2.33,2.33,0,0,1,42,104.16Z"/><polygon class="cls-1" points="29.9 82.51 59 65.71 59 85.93 29.9 102.73 29.9 82.51"/></g><g id="Drawer"><polygon class="cls-2" points="73.55 77.53 57.4 68.21 57.4 86.03 73.54 95.35 73.55 77.53"/><g class="cls-17"><polygon points="73.55 77.53 57.4 68.21 57.4 86.03 73.54 95.35 73.55 77.53"/></g><polygon class="cls-28" points="58.53 67.56 57.4 68.21 73.55 77.53 74.67 76.88 58.53 67.56"/><path class="cls-11" d="M63.08,69.53a.39.39,0,0,0-.16-.36.07.07,0,0,0,0,0l-.82-.48h0a.4.4,0,0,0-.4,0L45.21,78.19l-.48-1.94a.51.51,0,0,0-.24-.31h0l-.86-.5h0a.51.51,0,0,0-.52,0l-7,4a1.25,1.25,0,0,0-.56,1v23.33a.39.39,0,0,0,.15.36h0l.88.51h0a.43.43,0,0,0,.39,0L62.52,89.89a1.26,1.26,0,0,0,.57-1Z"/><path class="cls-11" d="M63.08,69.53V88.91a1.26,1.26,0,0,1-.57,1L36.91,104.67a.33.33,0,0,1-.5-.29V81a1.19,1.19,0,0,1,.16-.56A1.39,1.39,0,0,1,37,80l7-4a.5.5,0,0,1,.51,0h0a.5.5,0,0,1,.24.32l.48,1.93.08.2a.49.49,0,0,0,.75.31l16.47-9.5a.43.43,0,0,1,.37-.06l0,0h0A.41.41,0,0,1,63.08,69.53Z"/><path class="cls-3" d="M63.08,69.53V88.91a1.26,1.26,0,0,1-.57,1L36.91,104.67a.33.33,0,0,1-.5-.29V81a1.19,1.19,0,0,1,.16-.56A1.39,1.39,0,0,1,37,80l7-4a.5.5,0,0,1,.51,0h0a.5.5,0,0,1,.24.32l.48,1.93.08.2a.49.49,0,0,0,.75.31l16.47-9.5a.43.43,0,0,1,.37-.06l0,0h0A.41.41,0,0,1,63.08,69.53Z"/><path class="cls-15" d="M36.61,104.69h0l-.88-.51a.39.39,0,0,1-.16-.36V80.48a1.21,1.21,0,0,1,.17-.56l.85.5h0a1.19,1.19,0,0,0-.16.56v23.4A.34.34,0,0,0,36.61,104.69Z"/><path class="cls-11" d="M65.82,71.12a.41.41,0,0,0-.16-.36l0,0-.82-.48h0a.39.39,0,0,0-.4,0L48,79.78l-.48-1.93a.51.51,0,0,0-.24-.31h0l-.86-.5h0a.49.49,0,0,0-.52,0l-7,4a1.29,1.29,0,0,0-.56,1v23.33a.4.4,0,0,0,.15.36h0l.88.51h0a.41.41,0,0,0,.39,0L65.26,91.49a1.26,1.26,0,0,0,.57-1Z"/><path class="cls-30" d="M47.22,77.53a.52.52,0,0,0-.51,0l-7,4a1.11,1.11,0,0,0-.4.43l-.86-.5a1.28,1.28,0,0,1,.4-.43l7-4a.51.51,0,0,1,.52,0h0Z"/><path class="cls-30" d="M65.62,70.74a.4.4,0,0,0-.37.06L48.79,80.29A.5.5,0,0,1,48,80L48,79.78,64.4,70.3a.49.49,0,0,1,.25-.08.33.33,0,0,1,.14,0h0Z"/><path class="cls-11" d="M65.82,71.12V90.5a1.26,1.26,0,0,1-.57,1L39.65,106.27a.33.33,0,0,1-.5-.29V82.58a1.16,1.16,0,0,1,.16-.56,1.21,1.21,0,0,1,.41-.43l7-4a.52.52,0,0,1,.51,0h0a.51.51,0,0,1,.24.31L48,79.78,48,80a.49.49,0,0,0,.76.3L65.25,70.8a.43.43,0,0,1,.37-.06l0,0h0A.38.38,0,0,1,65.82,71.12Z"/><path class="cls-12" d="M39.36,106.29h0l-.88-.51a.4.4,0,0,1-.15-.36V82.08a1.19,1.19,0,0,1,.16-.56l.86.5h0a1.07,1.07,0,0,0-.17.56V106A.33.33,0,0,0,39.36,106.29Z"/><path class="cls-11" d="M68.56,72.72a.4.4,0,0,0-.16-.36l0,0-.82-.48h0a.39.39,0,0,0-.4,0L50.69,81.38l-.48-1.93a.5.5,0,0,0-.23-.31h0l-.86-.49h0a.51.51,0,0,0-.52,0l-7,4a1.24,1.24,0,0,0-.57,1V107a.42.42,0,0,0,.15.36h0l.88.51h0a.41.41,0,0,0,.39,0L68,93.09a1.3,1.3,0,0,0,.57-1Z"/><path class="cls-22" d="M50,79.13a.52.52,0,0,0-.51,0l-7,4a1.16,1.16,0,0,0-.4.42l-.86-.49a1.21,1.21,0,0,1,.41-.43l7-4a.51.51,0,0,1,.52,0h0Z"/><path class="cls-22" d="M68.36,72.34a.43.43,0,0,0-.37,0l-16.46,9.5a.5.5,0,0,1-.76-.3l-.08-.21L67.14,71.9a.43.43,0,0,1,.25-.08.28.28,0,0,1,.15,0h0Z"/><path class="cls-11" d="M68.56,72.72V92.1a1.26,1.26,0,0,1-.57,1L42.39,107.87a.33.33,0,0,1-.5-.29V84.17a1.1,1.1,0,0,1,.17-.56,1.16,1.16,0,0,1,.4-.42l7-4a.52.52,0,0,1,.51,0h0a.48.48,0,0,1,.24.31l.48,1.93.08.21a.5.5,0,0,0,.76.3L68,72.39a.43.43,0,0,1,.37,0h0A.4.4,0,0,1,68.56,72.72Z"/><path class="cls-30" d="M68.56,72.72V92.1a1.26,1.26,0,0,1-.57,1L42.39,107.87a.33.33,0,0,1-.5-.29V84.17a1.1,1.1,0,0,1,.17-.56,1.16,1.16,0,0,1,.4-.42l7-4a.52.52,0,0,1,.51,0h0a.48.48,0,0,1,.24.31l.48,1.93.08.21a.5.5,0,0,0,.76.3L68,72.39a.43.43,0,0,1,.37,0h0A.4.4,0,0,1,68.56,72.72Z"/><path class="cls-31" d="M42.1,107.89h0l-.88-.51A.42.42,0,0,1,41,107V83.68a1.07,1.07,0,0,1,.17-.56l.85.49h0a1,1,0,0,0-.17.55v23.41A.34.34,0,0,0,42.1,107.89Z"/><path class="cls-11" d="M71.3,74.32a.39.39,0,0,0-.16-.36l0,0-.82-.48h0a.43.43,0,0,0-.4,0L53.43,83,53,81.05a.56.56,0,0,0-.23-.32h0l-.86-.5h0a.51.51,0,0,0-.52,0l-7,4a1.24,1.24,0,0,0-.57,1v23.33a.44.44,0,0,0,.15.36h0l.88.51h0a.41.41,0,0,0,.39,0L70.74,94.68a1.24,1.24,0,0,0,.57-1Z"/><path class="cls-32" d="M52.71,80.72a.52.52,0,0,0-.51,0l-7,4a1.08,1.08,0,0,0-.4.42l-.85-.5a1.16,1.16,0,0,1,.4-.42l7-4a.51.51,0,0,1,.52,0h0Z"/><path class="cls-32" d="M71.1,73.94a.4.4,0,0,0-.37,0l-16.46,9.5a.5.5,0,0,1-.76-.3L53.43,83l16.45-9.49a.5.5,0,0,1,.25-.07.24.24,0,0,1,.15,0h0Z"/><path class="cls-11" d="M71.3,74.32V93.7a1.24,1.24,0,0,1-.57,1L45.13,109.47a.33.33,0,0,1-.5-.29V85.77a1.1,1.1,0,0,1,.17-.56,1.08,1.08,0,0,1,.4-.42l7-4a.51.51,0,0,1,.52,0h0a.56.56,0,0,1,.23.32L53.43,83l.08.21a.5.5,0,0,0,.76.3L70.73,74a.43.43,0,0,1,.37,0h0A.4.4,0,0,1,71.3,74.32Z"/><path class="cls-22" d="M71.3,74.32V93.7a1.24,1.24,0,0,1-.57,1L45.13,109.47a.33.33,0,0,1-.5-.29V85.77a1.1,1.1,0,0,1,.17-.56,1.08,1.08,0,0,1,.4-.42l7-4a.51.51,0,0,1,.52,0h0a.56.56,0,0,1,.23.32L53.43,83l.08.21a.5.5,0,0,0,.76.3L70.73,74a.43.43,0,0,1,.37,0h0A.4.4,0,0,1,71.3,74.32Z"/><polygon class="cls-2" points="46.71 93.02 30.57 83.7 30.57 101.52 46.71 110.84 46.71 93.02"/><polygon class="cls-28" points="31.69 83.05 30.57 83.7 46.71 93.02 47.84 92.37 31.69 83.05"/><polygon class="cls-28" points="46.39 92.03 75.48 75.22 75.48 95.45 46.39 112.25 46.39 92.03"/><path class="cls-1" d="M57.79,88.87l5-2.86c.64-.37,1.16-.2,1.16.38a2.33,2.33,0,0,1-1.16,1.72l-5,2.86c-.64.37-1.16.2-1.16-.38A2.33,2.33,0,0,1,57.79,88.87Z"/><polygon class="cls-1" points="46.39 92.03 45.42 91.47 45.42 111.69 46.39 112.25 46.39 92.03"/><polygon class="cls-2" points="45.42 91.47 74.52 74.67 75.48 75.22 46.39 92.03 45.42 91.47"/></g></g><path d="M90.7,2.85a.13.13,0,0,0,0-.06.71.71,0,0,0,0-.2.61.61,0,0,0-.05-.18.91.91,0,0,0-.11-.25c0-.06,0-.11-.08-.16a1.08,1.08,0,0,0-.18-.24l-.1-.12a1.73,1.73,0,0,0-.38-.3l-2-1.11A2,2,0,0,0,86.84,0a2,2,0,0,0-1,.24L72.48,8,61.92,14.07l-.09.07a1.42,1.42,0,0,0-.3.25.44.44,0,0,0-.08.1,2.35,2.35,0,0,0-.19.25s0,0,0,.08a2.39,2.39,0,0,0-.13.28l0,.1a1.8,1.8,0,0,0-.07.35.79.79,0,0,0,0,.17V45.45a1.94,1.94,0,0,0,.47,1.21,1.92,1.92,0,0,0,.49.43l.88.49,1.09.62a1.74,1.74,0,0,0,.49.18,2.14,2.14,0,0,0,.45,0,2,2,0,0,0,1-.24l7.37-4.26.71,1.6a1.28,1.28,0,0,0,.55.62l2,1.13,0,0h0l.09,0a1.31,1.31,0,0,0,.56.12.68.68,0,0,0,.21,0,1.2,1.2,0,0,0,.48-.17,1.88,1.88,0,0,0,.18-.12,1.31,1.31,0,0,0,.41-.63l2-6.73,9.41-5.43a2,2,0,0,0,.95-1.65V3S90.7,2.89,90.7,2.85ZM87,.82l-.2,0h0Zm.35.11a1.17,1.17,0,0,0-.26-.1A1.17,1.17,0,0,1,87.39.93ZM86.66.82h0ZM64.55,47.6a1.7,1.7,0,0,0,.39,0h-.1A1.43,1.43,0,0,1,64.55,47.6Zm.49,0a.84.84,0,0,0,.36-.11A.84.84,0,0,1,65,47.6Zm12-.94a.56.56,0,0,1-.25,0,.58.58,0,0,0,.26,0Z"/><g id="Speech_Bubble" data-name="Speech Bubble"><g id="Speech_Bubble-2" data-name="Speech Bubble"><path class="cls-11" d="M78.1,36.67,72.3,40l2.31,5.17a.46.46,0,0,0,.22.25l2,1.15a.53.53,0,0,0,.78-.31l2.5-8.47Z"/><path class="cls-3" d="M78.1,36.67,72.3,40l2.31,5.17a.46.46,0,0,0,.22.25l2,1.15a.53.53,0,0,0,.78-.31l2.5-8.47Z"/><path class="cls-11" d="M74.3,41.18l2.3,5.18a.54.54,0,0,0,1-.07l2.5-8.47Z"/><path class="cls-11" d="M86.28.93l-24,13.84a1.21,1.21,0,0,0-.55,1V45.45a1.21,1.21,0,0,0,.56.95l2,1.1a1.22,1.22,0,0,0,1.1,0l24-13.83a1.21,1.21,0,0,0,.55-.95V3a1.21,1.21,0,0,0-.56-1l-2-1.1A1.25,1.25,0,0,0,86.28.93Z"/><path class="cls-32" d="M89.9,2.88c0-.28-.27-.38-.54-.22l-24,13.83a1.14,1.14,0,0,0-.39.42L62,15.16a1,1,0,0,1,.37-.39L86.28.93a1.27,1.27,0,0,1,1.11,0l2,1.1A1.22,1.22,0,0,1,89.9,2.88Z"/><path class="cls-11" d="M64.85,47.18V17.45a1.25,1.25,0,0,1,.55-1l24-13.83c.3-.17.55,0,.55.32V32.71a1.21,1.21,0,0,1-.55.95l-24,13.83C65.1,47.67,64.85,47.53,64.85,47.18Z"/><path class="cls-3" d="M65.4,47.49a1.25,1.25,0,0,1-1.1,0l-2-1.11a1.18,1.18,0,0,1-.56-.94V15.72a1.06,1.06,0,0,1,.18-.56L65,16.91a1.09,1.09,0,0,0-.16.54V47.18C64.85,47.5,65.08,47.68,65.4,47.49Z"/></g><path class="cls-33" d="M74.91,19c0,.58,0,1.09,0,1.54s0,1,0,1.52a8.31,8.31,0,0,1-1,3.57,6.21,6.21,0,0,1-2.32,2.46,2.12,2.12,0,0,1-2.32.22,3,3,0,0,1-1-2.43c0-.53,0-1,0-1.47s0-1,0-1.58a8.07,8.07,0,0,1,.94-3.58,6.06,6.06,0,0,1,2.37-2.49c1-.58,1.8-.66,2.37-.25A3.13,3.13,0,0,1,74.91,19Zm5.81-6.66a3.88,3.88,0,0,1,.29-.61,1.25,1.25,0,0,1,.44-.41l2.13-1.22a.33.33,0,0,1,.36,0,.48.48,0,0,1,.13.38,1.49,1.49,0,0,1,0,.17l-.06.22L73.89,37.14a3.15,3.15,0,0,1-.3.61,1.17,1.17,0,0,1-.44.41L71,39.39a.34.34,0,0,1-.36,0c-.09-.06-.13-.19-.13-.38a1.49,1.49,0,0,1,0-.17,1,1,0,0,1,.06-.22ZM70.93,24.54a1.79,1.79,0,0,0,.18.78c.09.18.26.2.49.07a1.15,1.15,0,0,0,.49-.64,3.5,3.5,0,0,0,.17-1c0-1.21,0-2.34,0-3.4a1.88,1.88,0,0,0-.17-.78c-.1-.17-.26-.2-.49-.06a1.06,1.06,0,0,0-.49.63,3.56,3.56,0,0,0-.18,1Q70.85,22.83,70.93,24.54Zm15.64-1.1c0,.57,0,1.09,0,1.54s0,.95,0,1.52a8.31,8.31,0,0,1-1,3.57,6.21,6.21,0,0,1-2.32,2.46,2.12,2.12,0,0,1-2.32.22,3,3,0,0,1-1-2.43c0-.53,0-1,0-1.47s0-1,0-1.58a8.34,8.34,0,0,1,.94-3.58,6.15,6.15,0,0,1,2.38-2.49c1-.58,1.79-.67,2.37-.25A3.12,3.12,0,0,1,86.57,23.44Zm-4,5.52a2,2,0,0,0,.17.78c.1.18.27.2.5.06a1.09,1.09,0,0,0,.49-.63,3.91,3.91,0,0,0,.17-1q.08-1.8,0-3.39a2,2,0,0,0-.17-.78c-.1-.18-.26-.2-.49-.06a1.11,1.11,0,0,0-.5.63,4,4,0,0,0-.17,1Q82.52,27.25,82.59,29Z"/></g><path d="M211.83,136.84a.79.79,0,0,0-.33-.41L120.27,83.76a.83.83,0,0,0-.4-.11h0a.67.67,0,0,0-.39.12l-.69.42a.79.79,0,0,0-.4.1.82.82,0,0,0-.31.33L70.18,113.86l-21.24,13-.06,0a2.4,2.4,0,0,0-1.11,1.89,2.35,2.35,0,0,0,.87,1.71l-.2.22-.15.21a3.21,3.21,0,0,0-.19.31,2.55,2.55,0,0,0-.13.29l0,.06a1.17,1.17,0,0,0-.09.24,2.74,2.74,0,0,0-.09.55.41.41,0,0,0,0,.11v4.17a2.43,2.43,0,0,0,.08.55A3,3,0,0,0,49.13,139l.74.43-.88.44-.11.07a2.17,2.17,0,0,0,.07,3.82l1,.59-2.38,1.14a.71.71,0,0,0-.18.08.81.81,0,0,0-.41.68v20.61a.78.78,0,0,0,.4.69l91.27,52.66a.78.78,0,0,0,.8,0L209,180.13a2,2,0,0,0,1.15-1.73v-1.56s0-.09,0-.13a2,2,0,0,0-1.14-1.6l-.9-.52v-6.26l.69-.34.06,0a2.78,2.78,0,0,0,1.3-2.25v-1.19a2.09,2.09,0,0,0-1.15-1.68l-1.54-.89,4.05-2a.8.8,0,0,0,.44-.72v-22A.66.66,0,0,0,211.83,136.84Z"/><g id="Files"><path class="cls-11" d="M208.55,179.44a1.26,1.26,0,0,0,.75-1v-1.6l-88.38-50a3.94,3.94,0,0,0-3.6,0l-69.5,40.12,91.27,52.66Z"/><path class="cls-34" d="M208.55,179.44a1.26,1.26,0,0,0,.75-1v-1.6l-88.38-50a3.94,3.94,0,0,0-3.6,0l-69.5,40.12,91.27,52.66Z"/><path class="cls-11" d="M208.55,177.88a1.1,1.1,0,0,0,0-2.08l-87.63-50.59a3.94,3.94,0,0,0-3.6,0l-69.5,40.12L139.09,218Z"/><path class="cls-14" d="M208.55,177.88a1.1,1.1,0,0,0,0-2.08l-87.63-50.59a3.94,3.94,0,0,0-3.6,0l-69.5,40.12L139.09,218Z"/><path class="cls-6" d="M63.82,154.85l51.45-29.69a3.94,3.94,0,0,1,3.6,0l81.69,47.16,6.69-3.9v7.92l-.12.08c.22.49,0,1-.62,1.41l-58.93,34L56.32,159.18v-8.66Z"/><path class="cls-33" d="M206.51,169.17a1.1,1.1,0,0,0,0-2.08L118.87,116.5a4,4,0,0,0-3.6,0l-58.95,34,91.26,52.65Z"/><polygon class="cls-5" points="147.58 203.18 147.58 211.83 56.32 159.18 56.32 150.52 147.58 203.18"/><path class="cls-1" d="M146.63,199.79a2.13,2.13,0,0,0,.67.23,1.87,1.87,0,0,0,1,0,1,1,0,0,0,.34-.12c.54-.29.48-.83-.15-1.19a2.39,2.39,0,0,0-.93-.27,2,2,0,0,0-1.13.19.2.2,0,0,0-.1.08C146,199,146.05,199.46,146.63,199.79Z"/><path class="cls-1" d="M137.55,206.57a4.7,4.7,0,0,0,.91,3,3.23,3.23,0,0,0,2.58,1.23h0a5,5,0,0,0,2.49-.75c.15-.09.32-.17.46-.27l-1-.58c-2.45,1.37-4.4.2-4.4-2.62a9.83,9.83,0,0,1,4.45-7.71c1.33-.77,2.53-.79,3.34-.17a2.37,2.37,0,0,1,.92,1.33,1.87,1.87,0,0,0,1,0,3.74,3.74,0,0,0-.74-1.58,3.23,3.23,0,0,0-2.58-1.2,5,5,0,0,0-2.51.75A10.8,10.8,0,0,0,137.55,206.57Z"/><path class="cls-11" d="M140.13,198.39l69.17-33.81v1.13a2,2,0,0,1-.9,1.56L140.13,200Z"/><path class="cls-34" d="M140.13,198.39l69.17-33.81v1.13a2,2,0,0,1-.9,1.56L140.13,200Z"/><path class="cls-11" d="M208.55,165.61a1.09,1.09,0,0,0,0-2.07l-87.63-50.6a4,4,0,0,0-3.6,0l-69.5,33.37L139.09,199Z"/><path class="cls-12" d="M208.55,165.61a1.09,1.09,0,0,0,0-2.07l-87.63-50.6a4,4,0,0,0-3.6,0l-69.5,33.37L139.09,199Z"/><polygon class="cls-11" points="139.09 219.55 47.82 166.89 47.82 146.28 139.09 198.97 139.09 219.55"/><path class="cls-28" d="M123.27,206.33a3.25,3.25,0,0,0,2.59-1.23,4.76,4.76,0,0,0,.91-3,10.87,10.87,0,0,0-5-8.62,5.08,5.08,0,0,0-2.51-.74c-2.09,0-3.5,1.69-3.5,4.22a10.84,10.84,0,0,0,5,8.61,5,5,0,0,0,2.5.75Z"/><path class="cls-8" d="M125.73,202.11c0,2.84-2,4-4.46,2.57a9.83,9.83,0,0,1-4.45-7.71c0-2.85,2-4,4.45-2.58A9.88,9.88,0,0,1,125.73,202.11Z"/><path class="cls-8" d="M109.55,191.74v1.55c0,3.12-2.19,4.39-4.9,2.83L58.84,169.67a10.87,10.87,0,0,1-4.9-8.48v-1.56c0-3.12,2.2-4.38,4.9-2.82l45.81,26.45A10.81,10.81,0,0,1,109.55,191.74Z"/><polygon class="cls-11" points="140.16 218.93 140.16 198.45 139.09 198.97 139.09 219.55 140.16 218.93"/><polygon class="cls-34" points="140.16 218.93 140.16 198.45 139.09 198.97 139.09 219.55 140.16 218.93"/><path class="cls-11" d="M48.57,141.85a1.62,1.62,0,0,0,.78,1.24l89.7,51.76a1.77,1.77,0,0,0,1.57,0l70.48-35.66v-1.56L119.86,105,49.35,140.62A1.62,1.62,0,0,0,48.57,141.85Z"/><path class="cls-14" d="M211.1,157.63l-70.47,35.65a1.45,1.45,0,0,1-.8.18,1.49,1.49,0,0,1-.79-.18L49.35,141.52a.49.49,0,0,1,0-.91L119.87,105Z"/><path class="cls-34" d="M211.1,157.63v1.56l-70.47,35.65a1.55,1.55,0,0,1-.8.18v-1.56a1.45,1.45,0,0,0,.8-.18Z"/><polygon class="cls-11" points="210.03 158.25 118.76 105.6 118.76 84.99 210.02 137.88 210.03 158.25"/><polygon class="cls-35" points="210.03 158.25 118.76 105.6 118.76 84.99 210.02 137.88 210.03 158.25"/><path class="cls-6" d="M49.54,130.77a2.16,2.16,0,0,0-1,1.7v4.17a2.16,2.16,0,0,0,1,1.69l89.31,51.53a2.18,2.18,0,0,0,2,0l59.74-32.32v-6.43L109.31,98.44Z"/><path class="cls-33" d="M109.31,98.44,49.54,130.77a.6.6,0,0,0,0,1.13l89.31,51.53a2.18,2.18,0,0,0,2,0l59.74-32.32Z"/><path class="cls-1" d="M192.94,151.63a2.07,2.07,0,0,0,.66.23,2.1,2.1,0,0,0,1.06,0,1,1,0,0,0,.34-.12c.54-.3.47-.84-.15-1.19a2.39,2.39,0,0,0-.94-.27,1.93,1.93,0,0,0-1.12.19.2.2,0,0,0-.1.08C192.27,150.84,192.36,151.3,192.94,151.63Z"/><path class="cls-5" d="M139.83,183.64v6.44a2,2,0,0,1-1-.22L49.53,138.34a2.2,2.2,0,0,1-1-1.7v-4.18a2.16,2.16,0,0,1,.75-1.51c-.3.29-.23.68.22,1l89.31,51.52A1.71,1.71,0,0,0,139.83,183.64Z"/><path class="cls-1" d="M203.4,142.71a3.92,3.92,0,0,0-4.05.24c-2.44,1.41-4.55,4.66-5.53,8.19l1.33.2c.91-3.13,2.77-6,4.87-7.24a3.43,3.43,0,0,1,1.68-.52,2,2,0,0,1,1,.27c1.07.64,1.67,2.35,1.6,4.57-.13,4.27-2.57,9.1-5.45,10.76a3.2,3.2,0,0,1-2,.5l-1.46.83.09.05a3.24,3.24,0,0,0,1.69.47,4.76,4.76,0,0,0,2.35-.7c3.29-1.9,6-7.11,6.12-11.87C205.73,145.71,204.91,143.62,203.4,142.71Z"/><path class="cls-11" d="M48.57,128.77a1.64,1.64,0,0,0,.78,1.24l89.7,51.75a1.74,1.74,0,0,0,1.57,0l70.48-43.07v-1.57L119.86,84.45,49.35,127.53A1.64,1.64,0,0,0,48.57,128.77Z"/><path class="cls-11" d="M211.1,137.12,140.63,180.2a1.65,1.65,0,0,1-.8.18,1.59,1.59,0,0,1-.79-.18L49.35,128.43a.48.48,0,0,1,0-.9l70.52-43.08Z"/><path class="cls-12" d="M211.1,137.12,140.63,180.2a1.65,1.65,0,0,1-.8.18,1.59,1.59,0,0,1-.79-.18L49.35,128.43a.48.48,0,0,1,0-.9l70.52-43.08Z"/><path class="cls-34" d="M211.1,137.12v1.57l-70.47,43.07a1.65,1.65,0,0,1-.8.18v-1.56a1.65,1.65,0,0,0,.8-.18Z"/><polygon class="cls-11" points="211.1 157.63 211.1 137.16 210.02 137.88 210.03 158.25 211.1 157.63"/><polygon class="cls-34" points="211.1 157.63 211.1 137.16 210.02 137.88 210.03 158.25 211.1 157.63"/><g id="Form"><g id="Paper"><path class="cls-8" d="M138.08,176.83l66.73-38.52a1.3,1.3,0,0,0,.57-1v-.75a1.26,1.26,0,0,0-.57-1L122.38,88a1.21,1.21,0,0,0-1.14,0L54.51,126.54a1.26,1.26,0,0,0-.57,1v.74a1.26,1.26,0,0,0,.57,1l82.43,47.57A1.27,1.27,0,0,0,138.08,176.83Z"/><path class="cls-36" d="M54.39,126.63a.75.75,0,0,0-.16.15l-.06.09a1.14,1.14,0,0,0-.16.31.83.83,0,0,0-.06.21.61.61,0,0,0,0,.14v.74a1.24,1.24,0,0,0,.57,1l82.43,47.57a1.07,1.07,0,0,0,.57.13V174.9a1.17,1.17,0,0,1-.57-.13L54.51,127.2C54.24,127,54.2,126.81,54.39,126.63Z"/><path class="cls-7" d="M205,135.69c.17.18.12.4-.14.55l-66.73,38.53a1.15,1.15,0,0,1-.57.14V177a1.15,1.15,0,0,0,.57-.14l66.73-38.53a1.22,1.22,0,0,0,.57-1v-.75A1.24,1.24,0,0,0,205,135.69Z"/></g></g><g id="Forms"><polygon class="cls-11" points="124.75 92.98 110.49 101.21 111.52 101.81 125.78 93.58 124.75 92.98"/><polygon class="cls-11" points="126.81 94.17 105.42 106.52 106.45 107.11 127.83 94.77 126.81 94.17"/><polygon class="cls-11" points="128.86 95.36 109.86 106.33 110.88 106.93 129.89 95.95 128.86 95.36"/><polygon class="cls-11" points="167.34 117.57 106.24 152.85 108.89 154.38 169.99 119.1 167.34 117.57"/><polygon class="cls-37" points="167.34 117.57 106.24 152.85 108.89 154.38 169.99 119.1 167.34 117.57"/><path class="cls-11" d="M109.51,154.3l60.34-34.84,3.5,2L113,156.32l-3.5-2m-.62.07,4,2.31L174,121.4l-4-2.3-61.09,35.27Z"/><polygon class="cls-11" points="153.4 133.21 153.66 132.93 149.94 130.78 149.69 131.07 153.4 133.21"/><polygon class="cls-11" points="133.25 144.85 133.51 144.56 129.77 142.4 129.52 142.69 133.25 144.85"/><path class="cls-11" d="M113.25,156.46l60.35-34.84,3.5,2-60.35,34.84-3.5-2m-.62.08,4,2.3,61.1-35.27-4-2.31-61.1,35.28Z"/><polygon class="cls-11" points="157.15 135.38 157.4 135.09 153.68 132.94 153.43 133.23 157.15 135.38"/><polygon class="cls-11" points="137 147.01 137.25 146.72 133.51 144.56 133.26 144.85 137 147.01"/><path class="cls-11" d="M117,158.62l60.34-34.84,3.5,2L120.5,160.64l-3.5-2m-.62.08,4,2.3,61.09-35.27-4-2.31L116.38,158.7Z"/><polygon class="cls-11" points="160.89 137.54 161.14 137.25 157.43 135.1 157.17 135.39 160.89 137.54"/><polygon class="cls-11" points="140.74 149.17 141 148.88 137.26 146.72 137.01 147.01 140.74 149.17"/><path class="cls-11" d="M120.74,160.78,181.09,126l3.5,2L124.24,162.8l-3.5-2m-.62.08,4,2.3,61.1-35.27-4-2.3-61.1,35.27Z"/><polygon class="cls-11" points="164.63 139.7 164.89 139.41 161.17 137.27 160.92 137.55 164.63 139.7"/><polygon class="cls-11" points="144.49 151.33 144.74 151.04 141 148.89 140.75 149.17 144.49 151.33"/><path class="cls-11" d="M127.53,164.7l20.05-11.58,4.64,2.68-20.05,11.58-4.64-2.68m-.71,0,5.3,3.05,20.8-12-5.29-3.06-20.81,12Z"/><polygon class="cls-11" points="190.82 131.13 159.95 148.95 162.18 150.24 193.05 132.41 190.82 131.13"/><polygon class="cls-11" points="98.28 110.83 67.42 128.65 69.64 129.93 100.51 112.11 98.28 110.83"/><polygon class="cls-11" points="116.51 127.58 89.49 143.18 92.14 144.7 119.16 129.1 116.51 127.58"/><polygon class="cls-37" points="116.51 127.58 89.49 143.18 92.14 144.7 119.16 129.1 116.51 127.58"/><path class="cls-11" d="M99.26,145.05l-2.15,1.24L95,145.07l2.15-1.24Zm-2.11,1,1.63-.94-1.67-1-1.63,1Z"/><path class="cls-11" d="M103.19,147.32l-2.14,1.24-2.11-1.22,2.14-1.24Zm-2.11,1,1.64-.95-1.67-1-1.64.94Z"/><path class="cls-11" d="M107.13,149.59,105,150.83l-2.11-1.22,2.15-1.24Zm-2.11,1,1.64-.95-1.68-1-1.63.94Z"/><path class="cls-7" d="M120.54,131.13a.46.46,0,0,1-.07.07L99.13,143.51a.15.15,0,0,1-.23,0,.21.21,0,0,1,.09-.25l21.34-12.32a.16.16,0,0,1,.23.06A.17.17,0,0,1,120.54,131.13Z"/><path class="cls-7" d="M121.54,131.7a.16.16,0,0,1-.07.07l-21.34,12.32a.16.16,0,0,1-.23-.05.2.2,0,0,1,.09-.25l21.34-12.32a.16.16,0,0,1,.21.23Z"/><path class="cls-7" d="M124.48,133.4l-.07.07-21.34,12.32a.17.17,0,0,1-.24-.06.21.21,0,0,1,.1-.24l21.34-12.32a.15.15,0,0,1,.23.05A.17.17,0,0,1,124.48,133.4Z"/><path class="cls-7" d="M125.48,134l-.07.07-21.34,12.31a.16.16,0,0,1-.24-.05.22.22,0,0,1,.1-.25l21.34-12.32a.16.16,0,0,1,.23.06A.17.17,0,0,1,125.48,134Z"/><path class="cls-7" d="M128.42,135.67a.27.27,0,0,1-.08.07L107,148.06a.16.16,0,0,1-.24-.06.19.19,0,0,1,.1-.24l21.33-12.32a.17.17,0,0,1,.24.06A.21.21,0,0,1,128.42,135.67Z"/><path class="cls-7" d="M129.42,136.25a.27.27,0,0,1-.08.07L108,148.64a.16.16,0,0,1-.24-.06.19.19,0,0,1,.1-.24L129.2,136a.16.16,0,0,1,.24,0A.22.22,0,0,1,129.42,136.25Z"/><polygon class="cls-11" points="150.59 107.9 123.57 123.5 126.21 125.03 153.23 109.43 150.59 107.9"/><polygon class="cls-37" points="150.59 107.9 123.57 123.5 126.21 125.03 153.23 109.43 150.59 107.9"/><path class="cls-11" d="M133.33,125.37l-2.14,1.24-2.11-1.22,2.14-1.24Zm-2.11,1,1.64-1-1.67-1-1.64.94Z"/><path class="cls-11" d="M137.27,127.65l-2.14,1.24L133,127.67l2.15-1.24Zm-2.11,1,1.64-.94-1.67-1-1.64,1Z"/><path class="cls-11" d="M141.21,129.92l-2.15,1.24L137,129.94l2.15-1.24Zm-2.11,1,1.63-.94-1.67-1-1.63.95Z"/><path class="cls-7" d="M154.62,111.45a.23.23,0,0,1-.07.07l-21.34,12.32a.17.17,0,0,1-.24-.06.21.21,0,0,1,.1-.24l21.34-12.32a.16.16,0,0,1,.21.23Z"/><path class="cls-7" d="M155.62,112a.23.23,0,0,1-.07.07l-21.34,12.32a.17.17,0,0,1-.24-.06.21.21,0,0,1,.1-.24l21.34-12.32a.15.15,0,0,1,.23,0A.17.17,0,0,1,155.62,112Z"/><path class="cls-7" d="M158.56,113.73a.24.24,0,0,1-.08.06l-21.33,12.32a.16.16,0,0,1-.24,0,.2.2,0,0,1,.1-.25l21.33-12.32a.17.17,0,0,1,.24.06A.23.23,0,0,1,158.56,113.73Z"/><path class="cls-7" d="M159.56,114.3a.27.27,0,0,1-.08.07l-21.33,12.32a.16.16,0,0,1-.24-.06.19.19,0,0,1,.1-.24l21.33-12.32a.17.17,0,0,1,.24.06A.21.21,0,0,1,159.56,114.3Z"/><path class="cls-7" d="M162.49,116a.23.23,0,0,1-.07.07l-21.34,12.32a.16.16,0,0,1-.23-.06.21.21,0,0,1,.09-.25l21.34-12.31a.15.15,0,0,1,.23,0A.17.17,0,0,1,162.49,116Z"/><path class="cls-7" d="M163.49,116.58s0,0-.07.06L142.08,129a.15.15,0,0,1-.23-.05.2.2,0,0,1,.09-.25l21.34-12.32a.15.15,0,0,1,.23.06A.17.17,0,0,1,163.49,116.58Z"/><polygon class="cls-11" points="140.78 102.24 79.68 137.51 82.33 139.04 143.43 103.77 140.78 102.24"/><polygon class="cls-37" points="140.78 102.24 79.68 137.51 82.33 139.04 143.43 103.77 140.78 102.24"/><path class="cls-7" d="M114.66,122.8a.23.23,0,0,1-.07.07l-29,16.73a.16.16,0,0,1-.24,0,.22.22,0,0,1,.1-.25l29-16.73a.15.15,0,0,1,.23.05A.17.17,0,0,1,114.66,122.8Z"/><path class="cls-7" d="M145.63,106.71a.46.46,0,0,1-.07.07L87.15,140.5a.17.17,0,0,1-.24-.06.21.21,0,0,1,.1-.24l58.41-33.73a.16.16,0,0,1,.23.06A.17.17,0,0,1,145.63,106.71Z"/><path class="cls-7" d="M147.09,107.55a.27.27,0,0,1-.08.07l-58.4,33.72a.16.16,0,0,1-.24-.06.2.2,0,0,1,.1-.24l58.4-33.72a.16.16,0,0,1,.24.05A.17.17,0,0,1,147.09,107.55Z"/><path class="cls-7" d="M104.48,116.92a.23.23,0,0,1-.07.07l-29,16.73a.16.16,0,0,1-.24-.05.21.21,0,0,1,.1-.25l29-16.73a.15.15,0,0,1,.23,0A.17.17,0,0,1,104.48,116.92Z"/><path class="cls-7" d="M135.45,100.83a.27.27,0,0,1-.08.07L77,134.62a.16.16,0,0,1-.24-.06.2.2,0,0,1,.1-.24l58.4-33.72a.16.16,0,0,1,.24.05A.19.19,0,0,1,135.45,100.83Z"/><path class="cls-7" d="M136.91,101.67a.27.27,0,0,1-.08.07L78.42,135.46a.16.16,0,0,1-.23-.05.2.2,0,0,1,.09-.25l58.41-33.72a.17.17,0,0,1,.24,0A.22.22,0,0,1,136.91,101.67Z"/></g></g><path d="M68.1,148.92v-.1a4.5,4.5,0,0,0-.06-.94,2.23,2.23,0,0,0-.9-1.33l-.09-.05a1.9,1.9,0,0,0-1.19-.42,3.33,3.33,0,0,0-1.63.57l-51.62,29.8a3.81,3.81,0,0,0-1.29,1.35,3.63,3.63,0,0,0-.52,1.79v42.18a2.85,2.85,0,0,0,.56,2,2,2,0,0,0,.42.33.56.56,0,0,0,.14.1,2.43,2.43,0,0,0,1.16.32,2.62,2.62,0,0,0,.61-.08l.33-.1.15-.07.09-.05a2.79,2.79,0,0,0,.3-.15l0,0,.07,0,51.62-29.8a3.91,3.91,0,0,0,1.81-3.14ZM66.26,147l-.07,0Zm-.39-.09h0Zm-.26,0-.1,0Zm-.28.09-.1,0Zm-.31.13-.09.05ZM12.79,223.68l-.1,0Zm.25,0h0Z"/><g id="Laptop"><path class="cls-2" d="M12.31,223.5c-.57-.31-.7-.83-.7-1.73V179.59A3.11,3.11,0,0,1,13,177.15l51.62-29.81c.78-.45,1.35-.69,2-.16s.66.81.66,1.71v42.18a3.13,3.13,0,0,1-1.41,2.45l-51.62,29.8A1.69,1.69,0,0,1,12.31,223.5Z"/><path class="cls-28" d="M67.3,148.89c0-.9-.64-1.26-1.42-.82L14.27,177.88a2.74,2.74,0,0,0-1,1.05L12,178.2h0a3,3,0,0,1,1-1.06l51.62-29.8c.78-.45,1.35-.69,2-.16S67.3,148,67.3,148.89Z"/><path class="cls-1" d="M14.17,223.38a1.67,1.67,0,0,1-1.86.12c-.54-.27-.7-.83-.7-1.73V179.59A2.93,2.93,0,0,1,12,178.2l1.26.73h0a2.87,2.87,0,0,0-.42,1.39V222.5C12.86,223.34,13.5,223.77,14.17,223.38Z"/><path d="M15,179.51,64.7,150.84c.47-.27.85-.06.85.49v39.34a1.87,1.87,0,0,1-.85,1.47L15,220.81c-.47.27-.85.05-.85-.49V181A1.86,1.86,0,0,1,15,179.51Z"/><path class="cls-33" d="M15,179.51a1.86,1.86,0,0,0-.85,1.47v38.69l49.11-28.35a1.86,1.86,0,0,0,.85-1.46v-38.7Z"/></g><path d="M69,159.09v-1.94a3.21,3.21,0,0,0-.06-.63.84.84,0,0,0-.07-.24l0-.08a1.14,1.14,0,0,0-.09-.26,3.5,3.5,0,0,0-.2-.33l-.12-.17a2.21,2.21,0,0,0-.32-.28l0,0-.09-.06-.38-.22-.6-.34-.28-.17a1.84,1.84,0,0,0-1-.27,1.69,1.69,0,0,0-.38,0,2.85,2.85,0,0,0-1,.35l-32.82,19-11.75,6.79A5.09,5.09,0,0,0,18.08,182l-.09.14a5.2,5.2,0,0,0-.74,2.54v34.19a3.9,3.9,0,0,0,.05.58c0,.07,0,.14.05.2a2.67,2.67,0,0,0,.25.61,1.83,1.83,0,0,0,.68.7l1.29.76.15.06.08,0a1.43,1.43,0,0,0,.29.1.71.71,0,0,0,.21,0l.11,0h.13l.15,0a2,2,0,0,0,.38-.06l.21,0a3,3,0,0,0,.61-.26l0,0,44.57-25.73A5.58,5.58,0,0,0,69,191.34V159.09ZM66.34,155a1,1,0,0,0-.34-.12A1,1,0,0,1,66.34,155Zm-.57-.15.12,0a1.16,1.16,0,0,0-.37,0A1.07,1.07,0,0,1,65.77,154.86Z"/><g id="Spreadsheets"><path class="cls-5" d="M68.24,159.09l-2-1.18L18.05,186.58v32.25a1.51,1.51,0,0,0,.63,1.4h0L20,221h0a1.5,1.5,0,0,0,1.53-.15L66.08,195.1a4.8,4.8,0,0,0,2.16-3.76Z"/><path class="cls-3" d="M18.05,192.37v26.46a1.51,1.51,0,0,0,.63,1.4h0L20,221a1,1,0,0,0,.56.14l-1.2-1.54V193.09Z"/><path class="cls-33" d="M20.54,220.88a1.7,1.7,0,0,0,.84-.26L66,194.88a4.51,4.51,0,0,0,2-3.54V159.53l-48.4,27.94v32.11C19.59,220.39,20,220.88,20.54,220.88Z"/><path class="cls-7" d="M67.74,160v31.38a4.3,4.3,0,0,1-1.91,3.32L21.26,220.4a1.5,1.5,0,0,1-.72.23c-.63,0-.7-.73-.7-1v-32L67.74,160m.5-.87-48.9,28.24v32.25c0,1,.49,1.55,1.2,1.55a2,2,0,0,0,1-.3L66.08,195.1a4.8,4.8,0,0,0,2.16-3.76V159.09Z"/><path class="cls-11" d="M66.34,155a1.52,1.52,0,0,0-1.56.14L20.22,180.88a4.81,4.81,0,0,0-2.17,3.76v1.94l1.29.75,48.9-28.24v-1.94a1.54,1.54,0,0,0-.62-1.4C67.25,155.54,66.69,155.23,66.34,155Z"/><path class="cls-11" d="M19.34,185.39a4.8,4.8,0,0,1,2.17-3.76L66.08,155.9c1.19-.69,2.16-.13,2.16,1.25v1.94l-48.9,28.24Z"/><path class="cls-22" d="M19.34,185.39a4.8,4.8,0,0,1,2.17-3.76L66.08,155.9c1.19-.69,2.16-.13,2.16,1.25v1.94l-48.9,28.24Z"/><path class="cls-11" d="M67.64,155.77a1.48,1.48,0,0,0-1.56.13L21.51,181.63A4.43,4.43,0,0,0,20,183.25l-1.3-.74a4.49,4.49,0,0,1,1.54-1.63l44.56-25.73a1.53,1.53,0,0,1,1.56-.14c.35.22.91.53,1.28.74Z"/><path class="cls-38" d="M67.64,155.77a1.48,1.48,0,0,0-1.56.13L21.51,181.63A4.43,4.43,0,0,0,20,183.25l-1.3-.74a4.49,4.49,0,0,1,1.54-1.63l44.56-25.73a1.53,1.53,0,0,1,1.56-.14c.35.22.91.53,1.28.74Z"/><path class="cls-33" d="M60.68,160.52a1.66,1.66,0,0,0-.76,1.31c0,.48.34.68.76.43a1.65,1.65,0,0,0,.75-1.31C61.43,160.47,61.1,160.28,60.68,160.52Z"/><path class="cls-33" d="M63.33,159a1.67,1.67,0,0,0-.76,1.31c0,.48.34.68.76.44a1.69,1.69,0,0,0,.75-1.31C64.08,159,63.74,158.75,63.33,159Z"/><path class="cls-33" d="M66,157.47a1.67,1.67,0,0,0-.75,1.31c0,.48.34.68.75.43a1.66,1.66,0,0,0,.76-1.31C66.73,157.42,66.39,157.23,66,157.47Z"/><polygon class="cls-6" points="19.34 187.33 19.34 193.09 68.24 164.86 68.24 159.09 19.34 187.33"/><polygon class="cls-7" points="21.31 187.63 26.32 184.75 26.32 187.63 21.3 190.52 21.31 187.63"/><polygon class="cls-7" points="27.55 184.03 27.55 185.16 30.05 183.72 30.05 182.58 27.55 184.03"/><polygon class="cls-7" points="27.55 185.78 27.55 186.91 30.05 185.47 30.05 184.34 27.55 185.78"/><polygon class="cls-7" points="31.3 181.86 31.3 183 33.8 181.55 33.8 180.42 31.3 181.86"/><polygon class="cls-7" points="31.3 183.61 31.3 184.75 33.8 183.31 33.8 182.17 31.3 183.61"/><polygon class="cls-7" points="35.05 179.7 35.05 180.83 37.55 179.39 37.55 178.25 35.05 179.7"/><polygon class="cls-7" points="35.05 181.45 35.05 182.58 37.55 181.14 37.55 180.01 35.05 181.45"/><polygon class="cls-7" points="46.29 173.21 46.29 174.34 48.79 172.9 48.79 171.76 46.29 173.21"/><polygon class="cls-7" points="46.29 174.96 46.29 176.09 48.79 174.65 48.79 173.52 46.29 174.96"/><polygon class="cls-7" points="50.04 171.04 50.04 172.18 52.54 170.73 52.54 169.6 50.04 171.04"/><polygon class="cls-7" points="50.04 172.79 50.04 173.93 52.54 172.49 52.54 171.35 50.04 172.79"/><polygon class="cls-7" points="53.79 168.88 53.79 170.01 56.28 168.57 56.28 167.44 53.79 168.88"/><polygon class="cls-7" points="53.79 170.63 53.79 171.76 56.28 170.32 56.28 169.19 53.79 170.63"/><polygon class="cls-7" points="38.8 177.53 45.04 173.93 45.04 176.81 38.8 180.42 38.8 177.53"/><polygon class="cls-7" points="57.54 166.72 62.55 163.84 62.55 166.71 57.53 169.6 57.54 166.72"/><polygon class="cls-7" points="63.78 163.11 63.78 164.24 66.28 162.8 66.28 161.67 63.78 163.11"/><polygon class="cls-7" points="63.78 164.86 63.78 166 66.28 164.55 66.28 163.42 63.78 164.86"/><polygon class="cls-7" points="19.34 187.33 18.05 186.6 18.05 192.37 19.34 193.09 19.34 187.33"/><g id="Spreadsheets-2" data-name="Spreadsheets"><polygon class="cls-11" points="26.93 192.75 32.53 189.51 32.53 192.1 26.93 195.34 26.93 192.75"/><polygon class="cls-11" points="26.93 213.46 32.53 210.23 32.53 212.81 26.93 216.05 26.93 213.46"/><polygon class="cls-11" points="60.56 194.04 66.17 190.81 66.17 193.39 60.56 196.63 60.56 194.04"/><polygon class="cls-22" points="60.56 194.04 66.17 190.81 66.17 193.39 60.56 196.63 60.56 194.04"/><polygon class="cls-11" points="32.53 205.05 38.13 201.81 38.13 204.4 32.53 207.63 32.53 205.05"/><polygon class="cls-24" points="32.53 205.05 38.13 201.81 38.13 204.4 32.53 207.63 32.53 205.05"/><polygon class="cls-11" points="43.75 185.62 49.35 182.39 49.35 184.97 43.75 188.21 43.75 185.62"/><polygon class="cls-39" points="43.75 185.62 49.35 182.39 49.35 184.97 43.75 188.21 43.75 185.62"/><path class="cls-7" d="M21.25,193.28l-.07,0v26.22l.28-.15,11.21-6.48L38,209.82l.27-.15,5.33-3.08.28-.16,5.33-3.08.28-.16,5.32-3.08.28-.15,5.33-3.09.28-.15L66,193.63l.27-.15V167.26ZM26.79,216l-5.33,3.08v-2.27l5.33-3.08Zm0-2.59-5.33,3.07v-2.27l5.33-3.07Zm0-2.59-5.33,3.08V211.6l5.33-3.07Zm0-2.59-5.33,3.08V209l5.33-3.07Zm0-2.59-5.33,3.08v-2.27l5.33-3.08Zm0-2.59-5.33,3.08v-2.27l5.33-3.08Zm0-2.59-5.33,3.08v-2.28l5.33-3.07Zm0-2.59-5.33,3.07v-2.27l5.33-3.07Zm0-2.59-5.33,3.07v-2.27L26.79,193Zm0-2.59-5.33,3.07v-2.26l5.33-3.08Zm5.61,20.07-5.33,3.08v-2.27l5.33-3.08Zm0-2.58-5.33,3.07V211l5.33-3.08Zm0-2.59-5.33,3.07v-2.27l5.33-3.08Zm0-2.6-5.33,3.08v-2.27l5.33-3.08Zm0-2.59-5.33,3.08v-2.27l5.33-3.08Zm0-2.59-5.33,3.08V200.6l5.33-3.08Zm0-2.59-5.33,3.08V198l5.33-3.08Zm0-2.59-5.33,3.08v-2.27l5.33-3.08Zm0-2.59-5.33,3.08v-2.28l5.33-3.07Zm0-2.59-5.33,3.08v-2.27l5.33-3.08ZM38,209.51l-5.34,3.07v-2.27L38,207.23Zm0-2.59L32.67,210v-2.27L38,204.65Zm0-2.59-5.34,3.07v-2.27L38,202.06Zm0-2.59-5.34,3.08v-2.28L38,199.46Zm0-2.6-5.34,3.08V200L38,196.87Zm0-2.59-5.34,3.08v-2.27L38,194.28ZM38,194,32.67,197v-2.27L38,191.69Zm0-2.58-5.34,3.07v-2.27L38,189.1Zm0-2.59-5.34,3.07v-2.27L38,186.51Zm0-2.6-5.34,3.08V187L38,183.92Zm5.6,20.08-5.33,3.08v-2.28L43.61,204Zm0-2.59-5.33,3.07v-2.27l5.33-3.07Zm0-2.59-5.33,3.07v-2.27l5.33-3.07Zm0-2.59-5.33,3.08V199.3l5.33-3.07Zm0-2.59L38.28,199v-2.28l5.33-3.08Zm0-2.59-5.33,3.08v-2.27L43.61,191Zm0-2.59-5.33,3.07v-2.27l5.33-3.08Zm0-2.59-5.33,3.07v-2.27l5.33-3.07Zm0-2.59-5.33,3.07v-2.27l5.33-3.07Zm0-2.59L38.28,186v-2.27l5.33-3.07ZM49.22,203l-5.33,3.08v-2.27l5.33-3.08Zm0-2.59-5.33,3.08v-2.28l5.33-3.07Zm0-2.59-5.33,3.08v-2.27l5.33-3.08Zm0-2.59-5.33,3.08v-2.27L49.22,193Zm0-2.59-5.33,3.08v-2.27l5.33-3.08Zm0-2.59-5.33,3.08v-2.27l5.33-3.08Zm0-2.59-5.33,3.08V188.3l5.33-3.08Zm0-2.59L43.89,188V185.7l5.33-3.07Zm0-2.59-5.33,3.07v-2.26L49.22,180Zm0-2.59-5.33,3.08v-2.27l5.33-3.08Zm5.6,20.08-5.32,3.07V200.6l5.32-3.08Zm0-2.59-5.32,3.07V198l5.32-3.08Zm0-2.59-5.32,3.07v-2.27l5.32-3.07Zm0-2.6L49.5,195.1v-2.27l5.32-3.08Zm0-2.59-5.32,3.09v-2.28l5.32-3.08Zm0-2.59-5.32,3.08v-2.27l5.32-3.08Zm0-2.59-5.32,3.08v-2.27L54.82,182Zm0-2.59-5.32,3.08v-2.27l5.32-3.08Zm0-2.59-5.32,3.08v-2.27l5.32-3.08Zm0-2.59-5.32,3.08v-2.27l5.32-3.08Zm5.61,20.08-5.33,3.07v-2.27l5.33-3.07Zm0-2.59L55.1,197v-2.27l5.33-3.07Zm0-2.59-5.33,3.07v-2.27l5.33-3.07Zm0-2.59-5.33,3.07v-2.27l5.33-3.07Zm0-2.6-5.33,3.09V187l5.33-3.08Zm0-2.59-5.33,3.09v-2.28l5.33-3.08Zm0-2.58-5.33,3.07v-2.27l5.33-3.08Zm0-2.6L55.1,181.5v-2.27l5.33-3.08Zm0-2.58-5.33,3.07v-2.27l5.33-3.07Zm0-2.59-5.33,3.07v-2.27L60.43,171ZM66,193.32l-5.33,3.08v-2.27L66,191.05Zm0-2.59-5.33,3.07v-2.27L66,188.46Zm0-2.59-5.33,3.08v-2.28L66,185.87Zm0-2.59-5.33,3.08v-2.28L66,183.28ZM66,183,60.71,186v-2.27L66,180.69Zm0-2.6-5.33,3.09v-2.27L66,178.09Zm0-2.58-5.33,3.08v-2.27L66,175.51Zm0-2.59-5.33,3.07V176L66,172.91Zm0-2.59-5.33,3.07V173.4L66,170.33ZM66,170l-5.33,3.07v-2.26L66,167.74Z"/></g></g><path d="M214.81,114.94,181.22,97.32l-.05,0,0,0a2.56,2.56,0,0,0-1.18-.27,3.46,3.46,0,0,0-.89.12l-7.79-4.44.42-.53.45-.6c.14-.19.27-.38.4-.58s.27-.4.4-.6l.36-.59.33-.6.32-.61c.1-.2.19-.4.28-.6s.19-.42.28-.63l.21-.55,0-.11c.07-.19.14-.39.2-.58s.1-.32.14-.49l0-.1,0-.12c.05-.18.1-.36.14-.54s.07-.29.1-.44l0-.14,0-.14c0-.18.08-.36.11-.54s0-.27.05-.4l0-.16,0-.16.06-.55v0c0-.44,0-.83,0-1.2V69c0-7.22-4.77-14-13.5-19-8.57-5-19.94-7.67-32-7.67h0c-12.09,0-23.46,2.72-32,7.67a36.36,36.36,0,0,0-6,4.29l-.06,0-.1.1c-.52.47-1,.93-1.46,1.41l-.09.09-.17.18c-.52.55-1,1.07-1.37,1.58l-.08.1,0,.05c-.37.47-.72,1-1.06,1.48l0,.08-.17.25c-.37.59-.68,1.14-1,1.66l0,.1c-.26.52-.48,1-.7,1.58l-.15.39c-.22.63-.39,1.18-.52,1.7,0,0,0,.06,0,.09-.12.51-.22,1-.3,1.62,0,.14,0,.29-.05.43-.07.65-.1,1.18-.11,1.69v12.2c0,7.19,4.8,13.92,13.5,19a47,47,0,0,0,5.27,2.61c.61.26,1.24.51,1.86.75a61.91,61.91,0,0,0,7.88,2.4c.68.16,1.37.31,2.06.44,1.37.28,2.79.52,4.2.72a75.75,75.75,0,0,0,8.59.72q1.08,0,2.16,0c.73,0,1.45,0,2.17,0,11.26-.31,21.86-3,29.86-7.64.52-.3,1.05-.62,1.57-1l0,0,10.25,5.85a3,3,0,0,0,1.41,2.4l32.08,20.29a.53.53,0,0,0,.17.08,7.18,7.18,0,0,0,3.56.94,7.29,7.29,0,0,0,3.47-13.7ZM180.4,97.86l-.15,0Zm-.45,0-.32,0,.31,0Zm-.48,0A3.23,3.23,0,0,0,179,98,3.23,3.23,0,0,1,179.47,97.86ZM89.93,70.27c0-.18,0-.37-.05-.55s0-.15,0-.22,0-.3,0-.45A9.87,9.87,0,0,0,89.93,70.27ZM93.22,76l-.22-.3-.06-.1a6.18,6.18,0,0,1-.36-.53l-.06-.1.44-.67a19.89,19.89,0,0,1,2.82-3.16c.37-.34.76-.68,1.17-1a32.91,32.91,0,0,1,4.23-2.88c.81-.47,1.69-.93,2.62-1.38l.06,0c.94-.45,1.9-.87,2.87-1.26a63.78,63.78,0,0,1,23.5-4.21c11.07,0,21.39,2.45,29.06,6.88A24.24,24.24,0,0,1,168,75a24.65,24.65,0,0,1-8.65,7.74c-7.68,4.43-18,6.87-29.06,6.87s-21.38-2.44-29.06-6.87a26.7,26.7,0,0,1-7.52-6.15ZM91,73.82h0c.14.31.3.61.47.92C91.26,74.43,91.11,74.12,91,73.82Zm69.22-24.06c.57.3,1.12.6,1.67.92C161.31,50.36,160.76,50.06,160.19,49.76Zm-29.95-6.64h0Zm26.91,5.2-.51-.23Zm-7.6-2.67-.48-.14ZM147.14,45l-.07,0Zm-1.87-.41-.24-.06Zm-6-1-.51-.06ZM137,43.42l-.34,0Zm-1.43-.11c-.35,0-.7-.06-1-.07C134.87,43.25,135.22,43.28,135.57,43.31Z"/><g id="Glass"><path class="cls-11" d="M85.51,68.94V81.11c0,6.61,4.37,13.21,13.1,18.26,17.47,10.08,45.78,10.08,63.25,0,8.73-5.05,13.1-11.65,13.1-18.26V68.94h0c0-6.61-4.37-13.22-13.1-18.26-17.47-10.08-45.78-10.08-63.25,0-8.73,5-13.1,11.65-13.1,18.26Zm85.12,0c0,5.28-3.88,10.44-10.93,14.51-7.8,4.5-18.27,7-29.46,7s-21.67-2.48-29.46-7c-7.06-4.07-10.94-9.23-10.94-14.51s3.88-10.44,10.94-14.51c7.79-4.51,18.26-7,29.46-7s21.66,2.48,29.46,7C166.75,58.5,170.63,63.65,170.63,68.94Z"/><path class="cls-12" d="M174.91,82.25c-.69,4.18-2.54,7.33-10,13.13-10.51,8.2-37.09,11.55-52.52,6.45C97.87,97,93.23,87.64,93.23,81.2l0-3.79a13.22,13.22,0,0,1-3.43-8.47,13.33,13.33,0,0,1,3.6-8.68l0-5.33h-.83c-4.76,4.25-7.15,9.13-7.15,14V81.11c0,6.61,4.37,13.21,13.1,18.26,17.47,10.08,45.78,10.08,63.25,0C170.09,94.61,174.44,88.47,174.91,82.25Z"/><path class="cls-11" d="M161.86,50.68c-17.46-10.08-45.78-10.08-63.24,0s-17.47,26.43,0,36.51,45.78,10.09,63.24,0S179.32,60.76,161.86,50.68ZM159.7,83.45c-7.8,4.5-18.26,7-29.46,7s-21.66-2.48-29.46-7c-7-4.07-10.94-9.23-10.94-14.51s3.89-10.44,10.94-14.51c7.8-4.51,18.26-7,29.46-7s21.66,2.48,29.46,7c7.05,4.07,10.93,9.22,10.93,14.51S166.75,79.38,159.7,83.45Z"/><path class="cls-22" d="M161.86,50.68c-17.46-10.08-45.78-10.08-63.24,0s-17.47,26.43,0,36.51,45.78,10.09,63.24,0S179.32,60.76,161.86,50.68ZM159.7,83.45c-7.8,4.5-18.26,7-29.46,7s-21.66-2.48-29.46-7c-7-4.07-10.94-9.23-10.94-14.51s3.89-10.44,10.94-14.51c7.8-4.51,18.26-7,29.46-7s21.66,2.48,29.46,7c7.05,4.07,10.93,9.22,10.93,14.51S166.75,79.38,159.7,83.45Z"/><path class="cls-11" d="M170.64,68.94A12,12,0,0,1,168.89,75c-1.77-3.08-4.9-6-9.19-8.43-7.8-4.51-18.26-7-29.47-7s-21.66,2.48-29.45,7c-4.3,2.47-7.42,5.35-9.2,8.43a12.13,12.13,0,0,1-1.74-6.09c0-5.29,3.88-10.44,10.94-14.52,7.79-4.5,18.26-7,29.45-7s21.67,2.48,29.47,7C166.75,58.5,170.64,63.65,170.64,68.94Z"/><path class="cls-19" d="M100.78,54.42c-7.06,4.08-10.94,9.23-10.94,14.52A12.13,12.13,0,0,0,91.58,75c1.78-3.08,4.9-6,9.2-8.43a44.08,44.08,0,0,1,5.65-2.72c-1.71.66-6.94,2.34-5-2.65,2.27-5.92,13.33-12.34,21.47-13.4v0A56,56,0,0,0,100.78,54.42Z"/><path class="cls-37" d="M159.7,59.94c-7.8-4.51-18.26-7-29.46-7s-21.66,2.48-29.46,7C95,63.3,91.3,67.39,90.2,71.69c1.1,4.3,4.76,8.4,10.58,11.76,7.8,4.5,18.26,7,29.46,7s21.66-2.48,29.46-7c5.82-3.36,9.47-7.46,10.57-11.76C169.17,67.39,165.52,63.3,159.7,59.94Z"/><path class="cls-2" d="M161.43,95.48a6,6,0,0,1,2.67-4.68,1.92,1.92,0,0,1,1.9-.2h0L178.94,98h0a1.91,1.91,0,0,1,.79,1.73,6,6,0,0,1-2.67,4.67,1.91,1.91,0,0,1-1.91.2h0l-12.93-7.38h0A1.88,1.88,0,0,1,161.43,95.48Z"/><path class="cls-1" d="M162.23,97.22a1.88,1.88,0,0,1-.8-1.74,5.19,5.19,0,0,1,.46-2L178.56,103a5.05,5.05,0,0,1-1.49,1.4,1.91,1.91,0,0,1-1.91.2l-12.93-7.38Z"/><path class="cls-11" d="M214.43,115.65h0L180.84,98h0l0,0h0a2.49,2.49,0,0,0-2.44.27,7.76,7.76,0,0,0-3.48,6.09,2.48,2.48,0,0,0,1,2.26L208,127v0a6.48,6.48,0,1,0,6.39-11.28Z"/><path class="cls-12" d="M214.55,115.72a3.15,3.15,0,0,1-3.21,5.4h0l-35.29-20.45a7.31,7.31,0,0,0-1.17,3.7,2.48,2.48,0,0,0,1,2.26L208,127v0a6.48,6.48,0,1,0,6.51-11.21Z"/></g></g></g></svg>