<svg xmlns="http://www.w3.org/2000/svg" viewBox="0 0 119.93 164.07"><defs><style>.cls-1{fill:#e1e1e1;}.cls-2{fill:#d0d0d0;}.cls-3{fill:#b7b7b7;}.cls-4{fill:#b4b4b4;}.cls-5{fill:#898989;}.cls-6{fill:#797979;}.cls-7{fill:#ebebeb;}.cls-8{fill:#dbdbdb;}.cls-9{fill:#000000;}</style></defs><g id="Layer_2" data-name="Layer 2"><g id="Layer_1-2" data-name="Layer 1"><path class="cls-1" d="M90.93,47,70.39,23.74S40.07,53.67,30.67,57.59c0,0-.39,23.87,14.68,30.52.42.19.82.35,1.23.52l-1.23,13.44S42,108.46,38,108.65l20.84,35.81,21.13-36s-3.91,1-5.09-4.89c-.66-3.29-1.25-9.57-1.65-14.47q.63-.46,1.26-1C81.74,82,89.17,74,89.17,64c0,0,8-.19,10.57-4.11S98.76,46.63,90.93,47Z"/><path class="cls-2" d="M30.67,57.59S32,85,44.17,88.11h1.18S40.07,74,40.07,51.72Z"/><path class="cls-2" d="M46.91,92v8.22s12.72,4.11,25.83,0V90.07S65.7,97.11,46.91,92Z"/><path class="cls-3" d="M41.83,7.89S31.85,13.57,30.67,30s2.16,22.89,2.16,22.89S38.3,52.11,50,41,70.39,21,70.39,21L90,46s8,1.26,8.17-2.85S94.85-8.74,41.83,7.89Z"/><path class="cls-4" d="M7.59,100.63l3.32,13.3s6.26-3.71,19.76-5.28,15.26-1.37,14.68-8-1-10.56-1-10.56-16-8-15.07-32.87l7.44-5.48S31.65,23.93,41.83,7.89c0,0-20,11-20,27.2s1.17,34-4.11,40.69S7,93.78,7.59,100.63Z"/><path class="cls-3" d="M90.35,66A39.42,39.42,0,0,1,75.09,90.07s-2.1,16,.81,16.3,28.34,2.87,33.23,7.56c0,0,5.67-13.5.78-23.86s-13.34-23.69-12.64-28Z"/><path class="cls-5" d="M33.74,110s-14.81-.17-22.19,6.32-3,43.64-3,43.64v4.09H33.74Z"/><path class="cls-6" d="M13.39,115v49.09H2.57s-3.53-35.53.65-40.22A66.87,66.87,0,0,1,13.39,115Z"/><path class="cls-5" d="M84.09,110,85,164.07h32s1.17-37.74-1-41.27A30.7,30.7,0,0,0,84.09,110Z"/><polygon class="cls-7" points="46.13 124.11 58.52 146.02 61 143.81 81.74 109.38 83.17 111.33 83.17 164.06 41.7 164.06 41.7 125.02 46.13 124.11"/><polygon class="cls-8" points="35.7 110.81 36.22 164.06 46.13 164.06 46.13 124.11 38.01 110.02 35.7 110.81"/><circle class="cls-9" cx="76.03" cy="52.11" r="5.49" transform="translate(-9.94 18.86) rotate(-13.28)"/><path class="cls-9" d="M52.42,68.1a3.76,3.76,0,0,0,2,.51h5a3,3,0,0,0,0-6h-.95l2.22-4.08a3,3,0,0,0-1.2-4.07h0a3,3,0,0,0-4.07,1.2l-4.22,7.75A3.52,3.52,0,0,0,52.42,68.1Z"/><path class="cls-9" d="M54.36,76.32a2.88,2.88,0,0,0,3.16,3,31.28,31.28,0,0,0,9-2.09A3,3,0,0,0,64,71.82a21.73,21.73,0,0,1-6.87,1.66A3,3,0,0,0,54.36,76.32Z"/><path class="cls-9" d="M111.78,113a30.25,30.25,0,0,0-1-28.73c-1.68-2.93-3.12-5.32-4.27-7.24-4.48-7.48-5.27-8.82-5.31-15.93,0,0,2.32-3.68,2.32-6.45a9.67,9.67,0,0,0-2.32-6.5V36.85C101.2,26.36,89,0,60,0h-.6A39.83,39.83,0,0,0,27.7,14.79c-6.47,7.84-9.42,16.93-9.42,22.06V60.52c0,7.64-.71,8.82-5.31,16.51C11.82,79,10.38,81.34,8.7,84.27a30.28,30.28,0,0,0-.88,29A19.67,19.67,0,0,0,0,129.39v34.68H5V129.39C5,113.1,26.07,111,32.46,110.8v53.27h5V111.69L58,146.78a2.27,2.27,0,0,0,3.93,0l20.55-35.09v52.38h5V110.8c6.38.24,27.45,2.3,27.45,18.59v34.68h5V129.39A19.72,19.72,0,0,0,111.78,113ZM97.52,54.65a3.62,3.62,0,0,1-1.07,2.76,8.86,8.86,0,0,1-4.47,2V49.66C94.45,50.22,97.52,51.54,97.52,54.65ZM34,105.76c-7.13,0-14.8,1.29-21,4.32a24.46,24.46,0,0,1,1-22.83c1.65-2.88,3.07-5.24,4.2-7.14C23,72,24.28,69.82,24.28,60.52V36.85C24.28,30.32,33.07,6,59.44,6H60C86.41,6,95.2,30.32,95.2,36.85v7.48h0a21.09,21.09,0,0,0-4.27-1C90.49,43,79.74,33.43,74,21.5a3.81,3.81,0,0,0-2-1.95,3.62,3.62,0,0,0-4.07,1l-.19.21c-13.07,15.08-26.3,26.53-39.31,34h0a3,3,0,0,0-1.5,2.6V68.94c0,4.71,5.83,16.11,16.74,22.44v9.84C43.63,104,39.85,105.76,34,105.76ZM48.07,48.39A191.15,191.15,0,0,0,70.12,27.1,87.33,87.33,0,0,0,86,47V65.41C86,75.54,77.91,89.8,60,89.8S32.89,72.46,32.89,68.94V60.79a3,3,0,0,1,1.43-2.55c1.67-1,3.34-2.13,5-3.29a5.47,5.47,0,0,0,5.29,2.62,5.49,5.49,0,0,0,3.44-9.18Zm12.11,91.49a.25.25,0,0,1-.43,0L42.9,109.11c4.1-1.87,5.73-5,5.73-7.89V93.76A32,32,0,0,0,60,95.8,35.25,35.25,0,0,0,71.3,94v7.2c0,2.86,1.63,6,5.73,7.89Zm46.44-30c-6.18-2.91-13.7-4.15-20.69-4.15-5.85,0-9.63-1.78-9.63-4.54V91.79A31.18,31.18,0,0,0,92,65.47a20.37,20.37,0,0,0,3.35-.75h0c.42,6,2,8.67,6,15.39,1.13,1.9,2.55,4.26,4.2,7.14A24.34,24.34,0,0,1,106.62,109.91Z"/></g></g></svg>