<svg xmlns="http://www.w3.org/2000/svg" viewBox="0 0 171.58 160.71"><defs><style>.cls-1{fill:#b7b7b7;}.cls-2{fill:#b4b4b4;}.cls-3{fill:#f0a479;}.cls-4{fill:#e1e1e1;}.cls-5{fill:#d0d0d0;}.cls-6{fill:#ebebeb;}.cls-7{fill:#d8dce5;}.cls-8{fill:#989898;}.cls-9{fill:#888;}.cls-10{fill:#dbdbdb;}.cls-10{fill:#000000;}</style></defs><g id="Layer_2" data-name="Layer 2"><g id="Layer_1-2" data-name="Layer 1"><g id="Layer_2-2" data-name="Layer 2"><g id="Layer_1-2-2" data-name="Layer 1-2"><path class="cls-1" d="M85.51,2.68A21.56,21.56,0,0,0,64,24.24V33a6.85,6.85,0,0,1,5.49-1.8V30.09A1.47,1.47,0,0,1,71,28.62h0a38.62,38.62,0,0,0,23.24-6.24,1.46,1.46,0,0,1,1.87.23c5.49,5.9,5.45,5.67,5.45,6.44v2.11a6.52,6.52,0,0,1,5.49,1.6V24.24A21.55,21.55,0,0,0,85.51,2.68Z"/><path class="cls-2" d="M70.73,24.24A21.56,21.56,0,0,1,88.9,3a21.33,21.33,0,0,0-3.39-.27A21.56,21.56,0,0,0,64,24.24V33a6.85,6.85,0,0,1,5.49-1.8V30.09a1.47,1.47,0,0,1,1.29-1.46V24.24Z"/><path class="cls-3" d="M101.54,30.38V42.61A6.24,6.24,0,0,0,104,30.38,6.14,6.14,0,0,0,101.54,30.38Z"/><path class="cls-4" d="M107.07,32a6.52,6.52,0,0,0-5.53-1.62V42.61A6.54,6.54,0,0,0,107.07,41Z"/><path class="cls-3" d="M69.49,42.25V30.36C65.83,29.88,62,32.69,62,36.5a6.31,6.31,0,0,0,6.35,6.25,7.35,7.35,0,0,0,1.15-.12C69.49,42.5,69.49,42.37,69.49,42.25Z"/><path class="cls-4" d="M69.49,40.4a6.16,6.16,0,0,1-1.39-3.9,5.74,5.74,0,0,1,1.39-3.73V30.36C65.83,29.88,62,32.69,62,36.5a6.31,6.31,0,0,0,6.35,6.25,7.35,7.35,0,0,0,1.15-.12V40.4Z"/><path class="cls-4" d="M85.74,57.29a16.57,16.57,0,0,1-9-2.56v8.84l9,11.11,9-11.11V54.49A15.71,15.71,0,0,1,85.74,57.29Z"/><path class="cls-5" d="M83.39,57.14a16.29,16.29,0,0,1-6.7-2.41v8.84l6.7,8.27Z"/><path class="cls-6" d="M118.53,72,94.71,62.81l-9,11.12-9-11.12L52.88,72s-8.81,3.62-8.81,13.67v39.42a2.94,2.94,0,0,0,2.91,3H124.4a2.94,2.94,0,0,0,2.94-2.93V85.71C127.35,75.66,118.53,72,118.53,72Z"/><path class="cls-7" d="M50.77,125.13V82.36a14.55,14.55,0,0,1,5.62-11.68L52.88,72s-8.81,3.62-8.81,13.67v39.41a3,3,0,0,0,2.9,3H53.7A2.94,2.94,0,0,1,50.77,125.13Z"/><path class="cls-4" d="M96.12,21.85a1.45,1.45,0,0,0-1.87-.22A38.65,38.65,0,0,1,71,27.87a1.47,1.47,0,0,0-1.57,1.35v13a16.07,16.07,0,0,0,32.13,0V28.29C101.57,27.52,101.61,27.75,96.12,21.85Z"/><path class="cls-5" d="M76.15,42.21V27.84a33.92,33.92,0,0,1-5.14,0,1.47,1.47,0,0,0-1.57,1.35v13A15.87,15.87,0,0,0,85.31,58.06h.43a15.58,15.58,0,0,0,3.12-.32A15.85,15.85,0,0,1,76.15,42.21Z"/><path class="cls-6" d="M96.57,79.64l6.74-13.5L94.7,62.81l-9,11.12,8.78,6.23a1.41,1.41,0,0,0,2-.32A1.32,1.32,0,0,0,96.57,79.64Z"/><path class="cls-6" d="M74.83,79.64,68.1,66.14l8.6-3.33,9,11.12-8.78,6.23a1.42,1.42,0,0,1-2-.34A1.08,1.08,0,0,1,74.83,79.64Z"/><path class="cls-8" d="M94.86,117.16,89.08,82.94H82.33l-5.78,34.22a1.51,1.51,0,0,0,.34,1.19h0l8,8.79a1.12,1.12,0,0,0,1.58.08.6.6,0,0,0,.08-.08l8-8.79h0A1.5,1.5,0,0,0,94.86,117.16Z"/><path class="cls-9" d="M83.61,118.35a1.48,1.48,0,0,1-.35-1.19L89,82.94H82.33l-5.78,34.22a1.51,1.51,0,0,0,.34,1.19l8,8.79a1.12,1.12,0,0,0,1.58.08.6.6,0,0,0,.08-.08l2.53-2.78Z"/><polygon class="cls-8" points="85.71 73.94 85.71 73.93 85.7 73.93 85.7 73.93 85.7 73.94 79.31 78.47 82.33 83.02 85.7 83.02 85.71 83.02 89.08 83.02 92.1 78.47 85.71 73.94"/><path class="cls-9" d="M89.05,76.31l-3.34-2.38h0l-6.39,4.54,3,4.55H89l-2.59-3.91a.79.79,0,0,1,.2-1.09Z"/><path class="cls-1" d="M127.15,33a21.56,21.56,0,0,0-21.56,21.56v8.72a6.88,6.88,0,0,1,5.49-1.8V60.39a1.47,1.47,0,0,1,1.49-1.47h.08a38.58,38.58,0,0,0,23.23-6.23,1.46,1.46,0,0,1,1.88.22c5.49,5.9,5.45,5.67,5.45,6.44v2.11a6.52,6.52,0,0,1,5.49,1.6V54.54A21.55,21.55,0,0,0,127.15,33Z"/><path class="cls-2" d="M112.37,54.54a21.56,21.56,0,0,1,18.16-21.29,21.33,21.33,0,0,0-3.39-.27,21.55,21.55,0,0,0-21.55,21.55h0v8.72a6.88,6.88,0,0,1,5.49-1.8V60.39a1.47,1.47,0,0,1,1.29-1.46Z"/><path class="cls-3" d="M143.18,60.68V72.92a6.24,6.24,0,1,0,0-12.24Z"/><path class="cls-4" d="M148.71,62.31a6.51,6.51,0,0,0-5.53-1.63V72.92a6.57,6.57,0,0,0,5.54-1.63v-9Z"/><path class="cls-3" d="M111.13,72.55V60.67c-3.66-.49-7.49,2.32-7.49,6.13A6.31,6.31,0,0,0,110,73.05a7.35,7.35,0,0,0,1.15-.12C111.13,72.8,111.13,72.68,111.13,72.55Z"/><path class="cls-4" d="M111.13,70.7a6.16,6.16,0,0,1-1.39-3.9,5.8,5.8,0,0,1,1.39-3.73v-2.4c-3.66-.49-7.49,2.32-7.49,6.13A6.31,6.31,0,0,0,110,73.05a7.35,7.35,0,0,0,1.15-.12V70.7Z"/><path class="cls-4" d="M127.38,87.59a16.67,16.67,0,0,1-9-2.55v8.83l9,11.12,9-11.12V84.8A15.72,15.72,0,0,1,127.38,87.59Z"/><path class="cls-5" d="M125,87.44a16.42,16.42,0,0,1-6.7-2.4v8.83l6.7,8.27Z"/><path class="cls-6" d="M160.17,102.34l-23.83-9.23-9,11.12-9-11.12-23.81,9.23S85.71,106,85.71,116v39.42a2.93,2.93,0,0,0,2.93,2.93h77.41a2.94,2.94,0,0,0,2.94-2.93V116C169,106,160.17,102.34,160.17,102.34Z"/><path class="cls-10" d="M92.41,155.43V112.66A14.56,14.56,0,0,1,98,101l-3.51,1.36S85.71,106,85.71,116v39.42a2.93,2.93,0,0,0,2.93,2.93h6.71A2.93,2.93,0,0,1,92.41,155.43Z"/><path class="cls-4" d="M137.76,52.16a1.45,1.45,0,0,0-1.88-.23,38.59,38.59,0,0,1-23.23,6.24,1.47,1.47,0,0,0-1.57,1.35v13a16.07,16.07,0,0,0,32.13,0V58.59C143.21,57.82,143.25,58.05,137.76,52.16Z"/><path class="cls-5" d="M117.79,72.51V58.14a33.92,33.92,0,0,1-5.14,0,1.47,1.47,0,0,0-1.57,1.35v13a15.85,15.85,0,0,0,15.85,15.85h.45A15.62,15.62,0,0,0,130.5,88,15.88,15.88,0,0,1,117.79,72.51Z"/><path class="cls-6" d="M138.21,109.94,145,96.44l-8.61-3.33-9,11.12,8.78,6.24a1.42,1.42,0,0,0,2-.41Z"/><path class="cls-6" d="M116.47,109.94l-6.73-13.5,8.6-3.33,9,11.12-8.78,6.24a1.43,1.43,0,0,1-2-.36Z"/><path class="cls-8" d="M136.5,147.46l-5.78-34.21H124l-5.78,34.21a1.51,1.51,0,0,0,.34,1.19h0l8,8.8a1.12,1.12,0,0,0,1.58.08l.08-.08,8-8.8h0A1.49,1.49,0,0,0,136.5,147.46Z"/><path class="cls-9" d="M125.25,148.65a1.48,1.48,0,0,1-.35-1.19l5.78-34.21H124l-5.78,34.21a1.51,1.51,0,0,0,.34,1.19l8,8.8a1.12,1.12,0,0,0,1.58.08l.08-.08,2.53-2.79Z"/><polygon class="cls-8" points="127.35 104.24 127.35 104.23 127.34 104.23 127.34 104.23 127.34 104.24 120.95 108.77 123.97 113.32 127.34 113.32 127.35 113.32 130.72 113.32 133.74 108.77 127.35 104.24"/><path class="cls-9" d="M130.69,106.61l-3.34-2.37h0L121,108.77l3,4.55h6.7l-2.59-3.9a.79.79,0,0,1,.2-1.09Z"/><path class="cls-1" d="M43.87,33A21.56,21.56,0,0,0,22.31,54.54v8.72a6.88,6.88,0,0,1,5.49-1.8V60.39a1.47,1.47,0,0,1,1.49-1.47h.09a38.58,38.58,0,0,0,23.23-6.23,1.45,1.45,0,0,1,1.87.22c5.49,5.9,5.45,5.67,5.45,6.44v2.11a6.52,6.52,0,0,1,5.49,1.6V54.54A21.55,21.55,0,0,0,43.87,33Z"/><path class="cls-2" d="M29.09,54.54A21.56,21.56,0,0,1,47.26,33.25,22.65,22.65,0,0,0,43.87,33,21.56,21.56,0,0,0,22.31,54.54v8.72a6.88,6.88,0,0,1,5.49-1.8V60.39a1.47,1.47,0,0,1,1.29-1.46Z"/><path class="cls-3" d="M59.91,60.68V72.92a6.24,6.24,0,1,0,0-12.24Z"/><path class="cls-4" d="M65.43,62.31a6.5,6.5,0,0,0-5.52-1.63V72.92a6.54,6.54,0,0,0,5.53-1.63v-9Z"/><path class="cls-3" d="M27.85,72.55V60.67c-3.66-.49-7.49,2.32-7.49,6.13a6.31,6.31,0,0,0,6.35,6.25,7.35,7.35,0,0,0,1.15-.12C27.85,72.8,27.85,72.68,27.85,72.55Z"/><path class="cls-4" d="M27.85,70.7a6.16,6.16,0,0,1-1.39-3.9,5.8,5.8,0,0,1,1.39-3.73v-2.4c-3.66-.49-7.49,2.32-7.49,6.13a6.31,6.31,0,0,0,6.35,6.25,7.35,7.35,0,0,0,1.15-.12V70.7Z"/><path class="cls-4" d="M44.1,87.59A16.76,16.76,0,0,1,35.05,85v8.83l9,11.12,9-11.12v-9A15.72,15.72,0,0,1,44.1,87.59Z"/><path class="cls-5" d="M41.75,87.44a16.42,16.42,0,0,1-6.7-2.4v8.83l6.7,8.27Z"/><path class="cls-6" d="M76.9,102.34,53.07,93.11l-9,11.12-9-11.12-23.81,9.23S2.43,106,2.43,116v39.42a2.94,2.94,0,0,0,2.94,2.93h77.4a2.94,2.94,0,0,0,2.94-2.93V116C85.71,106,76.9,102.34,76.9,102.34Z"/><path class="cls-10" d="M9.13,155.43V112.66A14.55,14.55,0,0,1,14.76,101l-3.51,1.36S2.43,106,2.43,116v39.42a2.94,2.94,0,0,0,2.94,2.93h6.7A2.93,2.93,0,0,1,9.13,155.43Z"/><path class="cls-4" d="M54.48,52.16a1.45,1.45,0,0,0-1.87-.23,38.59,38.59,0,0,1-23.23,6.24,1.48,1.48,0,0,0-1.58,1.36v13a16.07,16.07,0,0,0,32.13,0V58.59C59.93,57.82,60,58.05,54.48,52.16Z"/><path class="cls-5" d="M34.51,72.51V58.14a33.79,33.79,0,0,1-5.13,0A1.48,1.48,0,0,0,27.8,59.5v13A15.87,15.87,0,0,0,43.67,88.36h.43A15.62,15.62,0,0,0,47.22,88,15.88,15.88,0,0,1,34.51,72.51Z"/><path class="cls-6" d="M54.93,109.94l6.74-13.5-8.6-3.33-9,11.12,8.78,6.24a1.42,1.42,0,0,0,2-.36A1,1,0,0,0,54.93,109.94Z"/><path class="cls-6" d="M33.19,109.94l-6.73-13.5,8.6-3.33,9,11.12-8.78,6.24a1.43,1.43,0,0,1-2-.36Z"/><path class="cls-8" d="M53.22,147.46l-5.78-34.21H40.69l-5.78,34.21a1.51,1.51,0,0,0,.34,1.19h0l8,8.8a1.11,1.11,0,0,0,1.57.08l.08-.08,8-8.8h0A1.51,1.51,0,0,0,53.22,147.46Z"/><path class="cls-9" d="M42,148.65a1.48,1.48,0,0,1-.35-1.19l5.78-34.21H40.69l-5.78,34.21a1.51,1.51,0,0,0,.34,1.19l8,8.8a1.12,1.12,0,0,0,1.58.08l.08-.08,2.53-2.79Z"/><polygon class="cls-8" points="44.07 104.24 44.07 104.23 44.06 104.23 44.06 104.23 44.06 104.24 37.67 108.77 40.69 113.32 44.06 113.32 44.07 113.32 47.44 113.32 50.46 108.77 44.07 104.24"/><path class="cls-9" d="M47.42,106.61l-3.35-2.37h0l-6.39,4.53,3,4.55h6.7l-2.59-3.9a.79.79,0,0,1,.2-1.09Z"/><path class="cls-10" d="M171.58,138.46V115.84c0-11.6-9.94-15.82-10.37-16h-.05l-22.22-8.61V86.64a18.32,18.32,0,0,0,6.64-11.4,8.8,8.8,0,0,0,4.67-2,8.66,8.66,0,0,0,1.05-12V54.37a24,24,0,0,0-39.69-18.29,8.72,8.72,0,0,0-2-5.23V24.07a24.07,24.07,0,1,0-48.14,0v7a8.19,8.19,0,0,0-1.94,5,24,24,0,0,0-6.7-4h-.15c-6.09-2.61-14.32-1.68-18.59.47h0A24.29,24.29,0,0,0,24.72,40a23.88,23.88,0,0,0-4.85,14.48v7a8.18,8.18,0,0,0-1.95,5.3,8.69,8.69,0,0,0,7.69,8.62,18.59,18.59,0,0,0,7,11.69v4.28L10.41,100h-.05A17.1,17.1,0,0,0,0,115.84v39.42a5.46,5.46,0,0,0,5.45,5.45H166.13a5.45,5.45,0,0,0,5.45-5.45V138.47Zm-30-40.84-4.93,9.89-5.56-4L137.23,96Zm-14.13,2.44-6.5-8V89.63a20.23,20.23,0,0,0,6.54,1.06h0a18.45,18.45,0,0,0,6.45-1.17v2.53Zm3,9.18-.93,1.4h-4l-.93-1.4,3-2.09ZM85.79,69.76l-6.5-8V59.32a20.13,20.13,0,0,0,6.53,1.07h0a18.68,18.68,0,0,0,6.45-1.17v2.53Zm2.95,9.18-.93,1.39h-4l-.92-1.39,3-2.09ZM44.15,100.06l-6.5-8V89.63a20.39,20.39,0,0,0,6.53,1.06h0a18.45,18.45,0,0,0,6.45-1.17v2.53Zm3,9.18-.93,1.4h-4.1l-.92-1.4,2.95-2.09ZM54,96l4.32,1.67-4.93,9.89-1.34-1h0l-4.22-3Zm1.71-4.73V86.65a18.44,18.44,0,0,0,6.64-11.4,8.77,8.77,0,0,0,6-3.47l4.4,8.82h0a3.93,3.93,0,0,0,2.56,2.06,4,4,0,0,0,3.24-.61l.26-.2,1,1.56L77,99.5ZM99.14,42A13.57,13.57,0,0,1,72,42h0V30.27A41.22,41.22,0,0,0,95,24c2.27,2.43,3.61,3.84,4.18,4.49Zm4.8,2.9a8.89,8.89,0,0,0,1.25-.24,24,24,0,0,0-2,9.67v7a9.07,9.07,0,0,0-1,1.47L97.3,60.92V56.34a18.32,18.32,0,0,0,6.64-11.4ZM74.26,56.64v4.28l-5.13,2A8.37,8.37,0,0,0,68,61.16V54.37a24,24,0,0,0-2-9.67,8.76,8.76,0,0,0,1.26.24A18.54,18.54,0,0,0,74.26,56.64Zm3.68,19.61h0l-1.33,1-4.94-9.89L76,65.65l6.17,7.62ZM91.57,70.6l4-4.95,4.32,1.67L95,77.21l-1.34-.95h0l-4.21-3Zm1.27,11.25.27.2a3.93,3.93,0,0,0,5.49-.94,3.3,3.3,0,0,0,.31-.51h0l4.24-8.51a8.75,8.75,0,0,0,5.73,3.16,18.3,18.3,0,0,0,7,11.69v4.28L94.53,99.51,91.8,83.41ZM117.61,96l6.17,7.62c-2.69,1.92-5.41,3.84-5.55,3.94l-4.93-9.89Zm23.17-23.61a13.55,13.55,0,0,1-27.1,0V60.57a41.18,41.18,0,0,0,22.92-6.23c2.26,2.43,3.61,3.84,4.18,4.5Zm7.44-5.71a3.61,3.61,0,0,1-2.41,3.42V63.21a3.63,3.63,0,0,1,2.41,3.42Zm-40-12.26a19,19,0,0,1,38.09,0v3.76l-.47-.08a2.84,2.84,0,0,0-.6-1.7c-.66-1-1.8-2.08-5.51-6.07a4,4,0,0,0-5.1-.62,36,36,0,0,1-21.46,5.84,4,4,0,0,0-4.23,2.59l-.72.14Zm.47,9v6.69a3.62,3.62,0,0,1-2.42-3.42,3.71,3.71,0,0,1,2.38-3.33Zm-2.07-27a3.58,3.58,0,0,1-1.25,2.74,3.48,3.48,0,0,1-1.16.68V32.91a3.63,3.63,0,0,1,2.37,3.42Zm-40-12.26a19,19,0,1,1,38.09,0v3.76l-.47-.08a3,3,0,0,0-.71-1.86c-.67-.91-1.91-2.16-5.4-5.91a4,4,0,0,0-5.1-.63,35.81,35.81,0,0,1-21.66,5.84,4,4,0,0,0-4,2.59l-.72.15Zm.47,9v6.69a3.62,3.62,0,0,1-2.42-3.42A3.72,3.72,0,0,1,67,33.06ZM64.93,66.41a3.63,3.63,0,0,1-2.4,3.64V63.22A3.57,3.57,0,0,1,64.93,66.41ZM25.37,70.05A3.63,3.63,0,0,1,23,66.63a3.73,3.73,0,0,1,2.42-3.27Zm.25-12-.71.14V54.37A19.14,19.14,0,0,1,38.14,36.25a24.22,24.22,0,0,1,12.56.32A19.06,19.06,0,0,1,63,54.37v3.76l-.48-.08a2.84,2.84,0,0,0-.6-1.7c-.64-.93-1.79-2.08-5.51-6.07a4,4,0,0,0-5.09-.62A35.94,35.94,0,0,1,30,55.51c-2.3-.13-3.76.89-4.38,2.58ZM30.4,72.34V60.57a41.1,41.1,0,0,0,22.92-6.23c2.24,2.41,3.61,3.84,4.18,4.5v13.5a13.55,13.55,0,1,1-27.1,0ZM34.34,96l6.17,7.62-4.21,3h0l-1.33,1-5-10ZM20,155.68V119a2.52,2.52,0,0,0-5,0v36.72H5.45A.42.42,0,0,1,5,155.3V115.84a12.51,12.51,0,0,1,7.24-11.34l13-5L31,110.9h0a3.93,3.93,0,0,0,2.59,2.1,4,4,0,0,0,3.24-.61l.27-.19,1,1.55-5.62,33.18V147a4,4,0,0,0,1,3.23l5,5.49Zm17.53-8.47,5.34-31.55h2.5l5.33,31.55-6.58,7.24Zm45.72,8a.42.42,0,0,1-.42.42H73.31V119a2.52,2.52,0,0,0-5,0v36.72H49.82l5-5.49a4,4,0,0,0,1-3.23v-.07L50.2,113.75l1-1.55.27.19a3.93,3.93,0,0,0,2.27.73,4,4,0,0,0,3.53-2.18h0L63,99.45l13,5a12.49,12.49,0,0,1,7.25,11.34ZM81.66,102.1l2.85-16.79H87l2.84,16.8a17.93,17.93,0,0,0-4.09,4.55,18,18,0,0,0-4.06-4.51Zm21.62,53.53h0V119a2.52,2.52,0,0,0-5,0v36.72H88.73a.42.42,0,0,1-.42-.42V115.84a12,12,0,0,1,2.93-8,13.45,13.45,0,0,1,4.31-3.29L99,103.16l9.58-3.71,5.72,11.45h0a3.93,3.93,0,0,0,2.56,2.06,4,4,0,0,0,3.24-.61l.26-.19,1,1.55-5.62,33.18V147a4,4,0,0,0,1,3.23l5,5.49Zm17.53-8.47,5.34-31.55h2.5l5.35,31.6-6.58,7.24Zm45.72,8a.42.42,0,0,1-.42.42h-9.56V119a2.51,2.51,0,0,0-5,0v36.72H133.1l5-5.49a4,4,0,0,0,1-3.23v-.07l-5.62-33.18,1-1.55.27.19a3.92,3.92,0,0,0,5.47-.91,3.65,3.65,0,0,0,.32-.54h0l5.72-11.45,13.05,5a12.5,12.5,0,0,1,7.25,11.34v30.9h0Z"/></g></g></g></g></svg>