<svg xmlns="http://www.w3.org/2000/svg" viewBox="0 0 123.5 167"><defs><style>.cls-1{fill:#ffcb66;}.cls-2{fill:#ffdac6;}.cls-3{fill:#f6ad76;}.cls-4{fill:#f5c4b0;}.cls-5{fill:#dbdbdb;}.cls-6{fill:#ffd9c5;}.cls-7{fill:#eaeaea;}.cls-8{fill:#2e6aa3;}.cls-9{fill:#bfbfbf;}.cls-10{fill:#000000;}</style></defs><g id="Layer_2" data-name="Layer 2"><g id="Layer_1-2" data-name="Layer 1"><g id="Layer_2-2" data-name="Layer 2"><g id="Layer_1-2-2" data-name="Layer 1-2"><path class="cls-1" d="M34.1,4.1s-9.4,9.2-7.6,14.3S43.7,32.1,43.7,32.1l38,2L93,47.1s3.7-12.9,2.9-17.8-8.6-9.4-11-9.8c0,0-3.9-9.2-11.7-8.6s-34.4-.2-34.4-.2Z"/><path class="cls-2" d="M35.6,35.2l32.9-.9,12.9.9,11,16.6V75.7c0,6.7-11.2,27.6-30.7,27.6S38.8,82.9,38.8,82.9Z"/><path class="cls-3" d="M25.3,17.2s1,18.2,9,17.6,18-.8,18-.8-27.2-14.7-26-20.7Z"/><path class="cls-4" d="M31.4,35.8V73c0,8.6,9.6,24.1,17.8,26.2,0,0-6.8-23.7-6.8-39.9v-25Z"/><path class="cls-2" d="M29.4,50.6s-6.1,2.3-6.1,8,6.1,8.1,6.1,8.1Z"/><path class="cls-5" d="M10.8,119.7V167H120.4s7.4-49.2-14.7-52-24.8-2.7-24.8-2.7L62.1,122.6,37.8,112.3S17.9,112.7,10.8,119.7Z"/><path class="cls-2" d="M94.3,50.6s6.1,2.3,6.1,8-6.1,8.1-6.1,8.1Z"/><polygon class="cls-6" points="46.6 105.69 46.6 113.59 61.7 121.3 77.5 111.8 76.6 103.3 46.6 105.69"/><path class="cls-4" d="M44.9,100.1v7.8s15.9,8.6,33.5,0V99.6C78.3,99.6,61.5,109.1,44.9,100.1Z"/><polygon class="cls-7" points="40.3 114.59 46.6 132.79 61.7 123.69 78.3 132.79 83.6 112.3 62.1 122.5 41.9 112.3 40.3 114.59"/><polygon class="cls-8" points="61.7 123.69 53.9 131.59 53.9 167 70.3 167 69.3 131.19 61.7 123.69"/><polygon class="cls-9" points="14.5 117 14.5 167 4.2 167 4.2 130.29 14.5 117"/><path class="cls-10" d="M24.7,145.1h2a2,2,0,0,1,2,2V167h-6V147.1A2,2,0,0,1,24.7,145.1Z"/><path class="cls-10" d="M96.7,144.9h2a2,2,0,0,1,2,2V167h-6V146.9A2,2,0,0,1,96.7,144.9Z"/><path class="cls-10" d="M99,110.9c-6.7-1.1-13.7-2.1-17.3-2.6V98.8c8.7-7.1,13.6-17.9,13.6-24.9V69.8c3.8-1.4,9-4.8,9-11.3s-5.1-9.9-8.9-11.3a34.15,34.15,0,0,1,1.9-8.4c1-3.3,2-6.3,2-9.2,0-5.8-5-12.2-12.4-13.1C84.9,13.7,80.2,8,73.6,8h-32L36.4,1.2A2.9,2.9,0,0,0,32.3.6h0c-.4.3-9.5,6.9-9.5,18.3,0,8.3,3.5,12.9,5.5,14.9V47.5c-3.8,1.5-8.5,4.9-8.5,11.1s4.7,9.7,8.5,11.1v3.4c0,6.3,4.9,17.5,13.6,25.2v10.2c-3.7.5-10.6,1.4-17.3,2.6C14.7,112.7,0,122.7,0,134.1V167H6V134.1c0-7.6,11.7-15.8,19.4-17.1,4.3-.7,8.8-1.4,12.3-1.9a7.57,7.57,0,0,0,.1,1.5l2.7,16.2a4.79,4.79,0,0,0,2.1,3.3,4.3,4.3,0,0,0,2.5.7,4.63,4.63,0,0,0,2.5-.8l4-2.6,2,3.5a1.8,1.8,0,0,1,.2,1L50.9,167h6l2.6-26.7H64L66.6,167h6l-2.8-29.3a1.8,1.8,0,0,1,.2-1l2-3.5,4,2.6a4.3,4.3,0,0,0,2.5.7,4.36,4.36,0,0,0,2.9-1.1,5,5,0,0,0,1.6-2.8l2.7-16.3a7.08,7.08,0,0,0,.1-1.4c3.6.5,8,1.2,12.3,1.9,7.7,1.3,19.4,9.4,19.4,17.1V167h6V133.9C123.4,122.5,108.7,112.5,99,110.9Zm-3.8-57a5.21,5.21,0,0,1,2.4,7,5.08,5.08,0,0,1-2.4,2.4ZM28.2,63a5.17,5.17,0,0,1-1.7-7.1,4.62,4.62,0,0,1,1.7-1.7Zm.6-44A17.46,17.46,0,0,1,33.5,7.5l5,6.6h35c4.2,0,7.8,5,8.9,6.9l.9,1.6H85c4.5,0,8.2,3.9,8.2,7.2,0,1.9-.9,4.7-1.7,7.4-.4,1.3-.8,2.7-1.2,4L82.4,31.1H34.2v-.2L32.8,30c-.1-.2-4.1-3-4-11Zm5.4,54.1V37H79.4l9.8,12.5V73.9c0,8-10.4,26.3-27.5,26.3C45.1,100.3,34.2,81,34.2,73.1Zm27.5,33.2a30.78,30.78,0,0,0,14-3.4v7.7l-14.1,8.9-13.8-8.7v-8.2A28.06,28.06,0,0,0,61.7,106.3ZM46.1,129.7l-2.4-14.2h0c0-.1,0-.1.1-.1H44l12.2,7.7Zm18.6,4c-.1.2-.2.3-.2.5H58.9c-.1-.1-.1-.2-.2-.3l-2.2-3.8,5.3-3.5,5,3.3Zm15-18.3-2.4,14.2L67.2,123l12.2-7.7h.2c.1,0,.1,0,.1.1Z"/><path class="cls-10" d="M61.2,75.9H58.1a5,5,0,0,1-4.8-6.6l5.3-14.4a2.93,2.93,0,0,1,3.8-1.8h0a2.93,2.93,0,0,1,1.8,3.8l-4.7,13h1.7a3,3,0,0,1,3,3h0A3,3,0,0,1,61.2,75.9Z"/><path class="cls-10" d="M60.9,86.5H59.1a3,3,0,0,1-3-3h0a3,3,0,0,1,3-3h1.8c2,0,5.2-1.3,7.7-3.2a3,3,0,0,1,3.8.3h0a2.9,2.9,0,0,1,0,4.2l-.3.3C68.9,84.6,64.6,86.5,60.9,86.5Z"/><circle class="cls-10" cx="45.1" cy="55.7" r="5.4"/><circle class="cls-10" cx="78.5" cy="55.7" r="5.4"/></g></g></g></g></svg>