<svg xmlns="http://www.w3.org/2000/svg" viewBox="0 0 119.94 164.1"><defs><style>.cls-1{fill:#ffdac6;}.cls-2{fill:#f5c4b0;}.cls-3{fill:#ffcb66;}.cls-4{fill:#f5ad76;}.cls-5{fill:#3cacde;}.cls-6{fill:#329ac7;}.cls-7{fill:#ebebeb;}.cls-8{fill:#dbdbdb;}.cls-9{fill:#000000;}</style></defs><g id="Layer_2" data-name="Layer 2"><g id="Layer_1-2" data-name="Layer 1"><g id="Layer_2-2" data-name="Layer 2"><g id="Layer_1-2-2" data-name="Layer 1-2"><path class="cls-1" d="M90.93,47,70.39,23.75S40.07,53.68,30.67,57.6c0,0-.39,23.87,14.68,30.52.42.19.82.35,1.23.52l-1.23,13.44S42,108.47,38,108.66l20.84,35.81,21.13-36s-3.91,1-5.09-4.89c-.66-3.29-1.25-9.57-1.65-14.47.42-.31.84-.64,1.26-1C81.74,82,89.17,74,89.17,64c0,0,8-.19,10.57-4.11S98.76,46.64,90.93,47Z"/><path class="cls-2" d="M30.67,57.6S32,85,44.17,88.12h1.18S40.07,74,40.07,51.73Z"/><path class="cls-2" d="M46.91,92v8.22s12.72,4.11,25.83,0V90.08S65.7,97.12,46.91,92Z"/><path class="cls-3" d="M41.83,7.9S31.85,13.58,30.67,30,32.83,52.9,32.83,52.9,38.3,52.12,50,41,70.39,21,70.39,21L90,46s8,1.26,8.17-2.85S94.85-8.73,41.83,7.9Z"/><path class="cls-4" d="M7.59,100.64l3.32,13.3s6.26-3.71,19.76-5.28,15.26-1.37,14.68-8-1-10.56-1-10.56-16-8-15.07-32.87l7.44-5.48S31.65,23.94,41.83,7.9c0,0-20,11-20,27.2s1.17,34-4.11,40.69S7,93.79,7.59,100.64Z"/><path class="cls-3" d="M90.35,66A39.41,39.41,0,0,1,75.09,90.08s-2.1,16,.81,16.3,28.34,2.87,33.23,7.56c0,0,5.67-13.5.78-23.86s-13.34-23.69-12.64-28Z"/><path class="cls-5" d="M33.74,110s-14.81-.17-22.19,6.32-3,43.64-3,43.64v4.09H33.74Z"/><path class="cls-6" d="M13.39,115V164.1H2.57s-3.53-35.53.65-40.22A66.49,66.49,0,0,1,13.39,115Z"/><path class="cls-5" d="M84.09,110,85,164.08h32s1.17-37.74-1-41.27A30.69,30.69,0,0,0,84.09,110Z"/><polygon class="cls-7" points="46.13 124.12 58.52 146.03 61 143.82 81.74 109.39 83.17 111.34 83.17 164.07 41.7 164.07 41.7 125.03 46.13 124.12"/><polygon class="cls-8" points="35.7 110.82 36.22 164.07 46.13 164.07 46.13 124.12 38.01 110.03 35.7 110.82"/><circle class="cls-9" cx="76.03" cy="52.12" r="5.49"/><path class="cls-9" d="M52.42,68.11a3.8,3.8,0,0,0,2,.51h5a3,3,0,0,0,0-6h-1l2.22-4.08a3,3,0,0,0-1.19-4.07h0a3,3,0,0,0-4.07,1.2h0L51.2,63.42A3.53,3.53,0,0,0,52.42,68.11Z"/><path class="cls-9" d="M54.36,76.33a2.89,2.89,0,0,0,2.75,3h.41a31.62,31.62,0,0,0,9-2.09A3,3,0,0,0,64,71.83a21.94,21.94,0,0,1-6.87,1.66A3,3,0,0,0,54.36,76.33Z"/><path class="cls-9" d="M111.78,113a30.23,30.23,0,0,0-1-28.73c-1.68-2.93-3.12-5.32-4.27-7.24-4.48-7.48-5.27-8.82-5.31-15.93,0,0,2.32-3.68,2.32-6.45a9.6,9.6,0,0,0-2.32-6.5V36.86C101.2,26.37,89,0,60,0h-.6A39.81,39.81,0,0,0,27.7,14.8c-6.47,7.84-9.42,16.93-9.42,22.06V60.53c0,7.64-.71,8.82-5.31,16.51-1.15,2-2.59,4.31-4.27,7.24a30.32,30.32,0,0,0-.88,29A19.68,19.68,0,0,0,0,129.4v34.68H5V129.4C5,113.11,26.07,111,32.46,110.81v53.27h5V111.7L58,146.79a2.28,2.28,0,0,0,3.11.82,2.15,2.15,0,0,0,.82-.82L82.48,111.7v52.38h5V110.81c6.38.24,27.45,2.3,27.45,18.59v34.68h5V129.4A19.68,19.68,0,0,0,111.78,113ZM97.52,54.66a3.58,3.58,0,0,1-1.07,2.76,8.93,8.93,0,0,1-4.47,2V49.67C94.45,50.23,97.52,51.55,97.52,54.66ZM34,105.77c-7.13,0-14.8,1.29-21,4.32a24.48,24.48,0,0,1,1-22.83c1.65-2.88,3.07-5.24,4.2-7.14C23,72,24.28,69.83,24.28,60.53V36.86C24.28,30.33,33.07,6,59.44,6H60C86.41,6,95.2,30.33,95.2,36.86v7.48h0a20.72,20.72,0,0,0-4.27-1C90.49,43,79.74,33.44,74,21.51a3.78,3.78,0,0,0-2-2,3.61,3.61,0,0,0-4.07,1l-.19.21c-13.07,15.08-26.3,26.53-39.31,34h0a3,3,0,0,0-1.5,2.6V69c0,4.71,5.83,16.11,16.74,22.44v9.84C43.63,104,39.85,105.77,34,105.77ZM48.07,48.4A191.2,191.2,0,0,0,70.12,27.11,88,88,0,0,0,86,47V65.42c0,10.13-8.09,24.39-26,24.39S32.89,72.47,32.89,69V60.8a3,3,0,0,1,1.43-2.55c1.67-1,3.34-2.13,5-3.29a5.49,5.49,0,1,0,8.73-6.56Zm12.11,91.49a.24.24,0,0,1-.34.08l-.09-.08L42.9,109.12c4.1-1.87,5.73-5,5.73-7.89V93.77a32.24,32.24,0,0,0,11.37,2A35.26,35.26,0,0,0,71.3,94v7.2c0,2.86,1.63,6,5.73,7.89Zm46.44-30c-6.18-2.91-13.7-4.15-20.69-4.15-5.85,0-9.63-1.78-9.63-4.54V91.8A31.17,31.17,0,0,0,92,65.48a21.09,21.09,0,0,0,3.35-.75h0c.42,6,2,8.67,6,15.39,1.13,1.9,2.55,4.26,4.2,7.14a24.34,24.34,0,0,1,1.07,22.66Z"/></g></g></g></g></svg>