<svg xmlns="http://www.w3.org/2000/svg" viewBox="0 0 124.39 163.45"><defs><style>.cls-1{fill:#ebebeb;}.cls-2{fill:#dbdbdb;}.cls-3{fill:#fed843;}.cls-4{fill:#fabe2c;}.cls-5{fill:#fc0;}.cls-6{fill:#ed9a06;}.cls-7{fill:#c6c6c6;}.cls-8{fill:#b2b2b2;}.cls-9{fill:#000000;}</style></defs><g id="Layer_2" data-name="Layer 2"><g id="Layer_1-2" data-name="Layer 1"><path class="cls-1" d="M18.7,144s8.61-92.12,9.65-109.63S46.08,3.54,67.87,3.54s32.48,17,34.83,40.18,8.35,104.35,8.35,104.35S100.19,167.63,81,153.28c0,0-20.88,15.92-33.36,0C47.61,153.28,20.79,167.83,18.7,144Z"/><path class="cls-2" d="M18.7,140.76s11.39,13.31,28.91,5c0,0,17.63,13.28,33.36-1.06,0,0,22.77,10,21-1.9S93.31,58.49,91.74,42.1,86,10.85,63.18,3.54L83.13,5.71S99.52,16.28,102,40.56s10,102.2,10,102.2,1.51,25.39-31,10.52c0,0-17.23,17.48-33.36,1.31C47.61,154.59,20.79,166.85,18.7,140.76Z"/><circle class="cls-3" cx="65.12" cy="58.45" r="3.75"/><path class="cls-4" d="M63,60.84s4.17-1.43,4.56-4.43C67.57,56.41,68.88,63.84,63,60.84Z"/><ellipse class="cls-5" cx="51.92" cy="31.91" rx="4.3" ry="9.68"/><path class="cls-6" d="M49,38.37s5.38-6,1.57-15.31l2.74-2.69s6.45,9,3.13,15.55S52.21,44.63,49,38.37Z"/><ellipse class="cls-3" cx="51.92" cy="31.91" rx="4.3" ry="9.68"/><path class="cls-4" d="M49,38.37s5.38-6,1.57-15.31l2.74-2.69s6.45,9,3.13,15.55S52.21,44.63,49,38.37Z"/><path class="cls-9" d="M52.11,18.06c-5.28,0-7.64,7.15-7.64,14.24a22.45,22.45,0,0,0,1.45,8.4c1.78,4.23,4.64,4.86,6.19,4.86s4.47-.64,6.33-5A22.82,22.82,0,0,0,60,31.93C60,25,57.54,18.06,52.11,18.06Zm1.73,20.55c-.25.59-.92,2-1.73,2s-1.35-1.26-1.58-1.8a17.68,17.68,0,0,1-1.06-6.46c0-5.75,1.83-9.24,2.64-9.24,1.14,0,2.86,3.54,2.86,8.87A17.9,17.9,0,0,1,53.84,38.61Z"/><ellipse class="cls-3" cx="77.92" cy="31.91" rx="4.3" ry="9.68"/><path class="cls-4" d="M75,38.37s5.38-6,1.57-15.31l2.74-2.69s6.45,9,3.13,15.55S78.21,44.63,75,38.37Z"/><path class="cls-9" d="M78.11,18.06c-5.28,0-7.64,7.15-7.64,14.24a22.45,22.45,0,0,0,1.45,8.4c1.78,4.23,4.64,4.86,6.19,4.86s4.47-.64,6.33-5A22.82,22.82,0,0,0,86,31.93C86,25,83.54,18.06,78.11,18.06Zm1.73,20.55c-.25.59-.92,2-1.73,2s-1.35-1.26-1.58-1.8a17.68,17.68,0,0,1-1.06-6.46c0-5.75,1.83-9.24,2.64-9.24,1.14,0,2.86,3.54,2.86,8.87A17.9,17.9,0,0,1,79.84,38.61Z"/><path class="cls-9" d="M65.12,51.41a7.33,7.33,0,1,0,7.33,7.33A7.34,7.34,0,0,0,65.12,51.41Zm0,9.66a2.33,2.33,0,1,1,2.33-2.33A2.33,2.33,0,0,1,65.12,61.07Z"/><path class="cls-7" d="M23.58,78.69S6.36,117.27,4.41,124.17s10.17,24.52,15,15.91Z"/><path class="cls-8" d="M5,122.37s2.75,13.56,13.71,14.22l-2.48,9.65S.54,146.37,5,122.37Z"/><path class="cls-7" d="M108.44,111.35l5.67,34.89s8.37-1.1,7.63-10.44S108.44,111.35,108.44,111.35Z"/><path class="cls-9" d="M123.56,133.09c-2.68-7-12.21-31.16-13.41-34.21-2.85-28.15-6.05-59.71-6.79-66.34C102.1,21.29,92.5,0,65.13,0,41.06,0,27.49,15.07,24.82,44.8c-.69,7.65-1.62,17.87-2.64,28.89-1.63,3.69-15.3,34.64-20.67,48a20,20,0,0,0,2.16,19.15c3.25,4.81,8.43,8.6,12.73,9.48,1.48,3.46,4.51,6.38,8.78,8.32a26.4,26.4,0,0,0,10.71,2.28,18.88,18.88,0,0,0,11.59-3.55,17.21,17.21,0,0,0,3.19,2.54,26.17,26.17,0,0,0,13.53,3.57,23.79,23.79,0,0,0,12.17-3.07,16.44,16.44,0,0,0,4.25-3.71c11.63,6.31,22.26,4.39,27.92.73a13.36,13.36,0,0,0,6-8.13,13.35,13.35,0,0,0,7.74-5.32A11.45,11.45,0,0,0,123.56,133.09ZM7.81,138a15,15,0,0,1-1.66-14.48c3.29-8.17,9.73-23,14.57-34.09-2.17,23.23-4.38,46.32-5.29,54.16,0,.36-.06.71-.07,1.06A19.88,19.88,0,0,1,7.81,138Zm98,15.19c-4.83,3.13-13.67,4-22.76-.89a19.18,19.18,0,0,0,1-8.09c-1.8-23.2-4.41-62.77-4.43-63.17a2.5,2.5,0,1,0-5,.33c0,.39,2.63,40,4.44,63.23.4,5.24-1.38,9.1-5.31,11.49-5.48,3.34-14.66,3.13-20.46-.47-2.08-1.29-4.49-3.52-4.21-6.83,1.29-14.92,5.17-48.7,5.21-49a2.5,2.5,0,1,0-5-.57c0,.34-3.94,34.19-5.23,49.18a10.89,10.89,0,0,0,.64,4.76c-3.88,3.23-11.42,3.7-17.51.93-2.28-1-7.52-4.08-6.85-9.88,1.56-13.51,7-72.05,9.4-98.93C32.27,17.79,43.5,5,65.13,5,89,5,97.3,23.38,98.39,33.09c1.27,11.43,10.15,99.65,11.47,112.88a6.31,6.31,0,0,1,0,1.06v0h0C109.69,150.2,107.32,152.23,105.82,153.2Zm12.4-12.09a8.51,8.51,0,0,1-3.53,2.88c-.41-4.08-1.43-14.2-2.7-26.8,2.76,7,5.62,14.31,6.89,17.67A6.42,6.42,0,0,1,118.22,141.11Z"/></g></g></svg>