<svg xmlns="http://www.w3.org/2000/svg" viewBox="0 0 166.12 163.52"><defs><style>.cls-1{fill:#3cacde;}.cls-1,.cls-10,.cls-11,.cls-12,.cls-13,.cls-14,.cls-2,.cls-3,.cls-4,.cls-5,.cls-6,.cls-7,.cls-8,.cls-9{fill-rule:evenodd;}.cls-2{fill:#ebebeb;}.cls-3{fill:#fed1a3;}.cls-4{fill:#ffdac6;}.cls-5{fill:#ffcb66;}.cls-6{fill:#f5c4b0;}.cls-7{fill:#f5ad76;}.cls-8{fill:#dbdbdb;}.cls-9{fill:#ffbc85;}.cls-10{fill:#329ac7;}.cls-11{fill:#dd636e;}.cls-12{fill:#da4a54;}.cls-13{fill:#85c10d;}.cls-14{fill:#75a00d;}.cls-15{fill:#000000;}</style></defs><g id="Layer_2" data-name="Layer 2"><g id="Layer_1-2" data-name="Layer 1"><path class="cls-1" d="M83.88,84.63a41.1,41.1,0,1,0-41.1-41.1A41.19,41.19,0,0,0,83.88,84.63Z"/><path class="cls-2" d="M59.47,73.68V76.6a41.1,41.1,0,0,0,48.81,0V73.68c0-8.12-5.53-10.4-11.18-12L86.24,68.06c-1.84,1.2-2.9,1.2-4.74,0L70.65,61.69c-5.65,1.59-11.18,3.87-11.18,12Z"/><path class="cls-3" d="M70.65,61.69,81.5,68.06c1.84,1.2,2.9,1.2,4.74,0L97.1,61.69l-3-.81c-2.3-.62-2.91-3.59-3.38-4.55a17.83,17.83,0,0,1-2.47,1.15,11.35,11.35,0,0,1-8.75,0A18.51,18.51,0,0,1,77,56.33c-.47,1-1.07,3.93-3.37,4.55l-3,.81Z"/><path class="cls-4" d="M66.4,40.67C66.4,46.2,71,53,77,56.33a18.51,18.51,0,0,0,2.48,1.15,11.35,11.35,0,0,0,8.75,0,17.83,17.83,0,0,0,2.47-1.15c6-3.34,10.63-10.13,10.63-15.66V35.32c-7.07-.49-6-5.9-10.9-4.64-3.77,1-5.18,1.47-6.57,1.47s-2.8-.49-6.58-1.47c-4.89-1.26-3.83,4.15-10.9,4.64v5.35Z"/><path class="cls-5" d="M83.88,15.62c-8.74.14-17.48,6.72-17.48,19.7,7.07-.49,6-5.9,10.9-4.64,3.78,1,5.17,1.47,6.58,1.47s2.8-.49,6.57-1.47c4.88-1.26,3.83,4.15,10.9,4.64,0-13-8.74-19.56-17.47-19.7Z"/><path class="cls-6" d="M92.05,40.11c0,6.27-5.89,14.14-13.11,16.81-.13.06-.28.11-.42.16.32.14.65.28,1,.4a11.35,11.35,0,0,0,8.75,0,17.83,17.83,0,0,0,2.47-1.15c6-3.34,10.63-10.13,10.63-15.66V35.32c-6.4-.45-6.15-4.9-9.64-4.82a26.3,26.3,0,0,1,.34,4.27v5.34Z"/><path class="cls-7" d="M80.17,16.08c5.56,2,10.26,6.76,11.54,14.42,3.49-.08,3.24,4.37,9.64,4.82,0-13-8.74-19.56-17.47-19.7a17.2,17.2,0,0,0-3.71.46Z"/><path class="cls-8" d="M101.19,78.09v2.72a41.67,41.67,0,0,0,7.09-4.21V73.68c0-8.12-5.53-10.4-11.18-12l-5.4,3.17c4.1,1.09,9.49,2.14,9.49,13.23Z"/><path class="cls-9" d="M77,56.33c-.35.72-.77,2.57-1.94,3.71a17,17,0,0,0,1.71.74C80,62,83.73,63,86.89,61.87c.65-.14.91-.5,1.32.29a5.13,5.13,0,0,0,3.47,2.72l5.42-3.19-3-.81c-2.3-.62-2.91-3.59-3.38-4.55a17.83,17.83,0,0,1-2.47,1.15,11.35,11.35,0,0,1-8.75,0c-.33-.12-.66-.26-1-.4a15,15,0,0,1-1.5-.75Z"/><path class="cls-10" d="M76.11,3.16a41.12,41.12,0,0,1,28.56,62c2.17,1.79,3.61,4.41,3.61,8.56V76.6A41.12,41.12,0,0,0,76.11,3.16Z"/><path class="cls-1" d="M26,161.07A23.57,23.57,0,1,0,2.43,137.51,23.62,23.62,0,0,0,26,161.07Z"/><path class="cls-10" d="M26,113.94a23.57,23.57,0,1,1,0,47.13,23.27,23.27,0,0,1-7.51-1.22,23.58,23.58,0,0,0-.26-44.61,23.72,23.72,0,0,1,7.77-1.3Z"/><path class="cls-5" d="M19.76,141.67a15.25,15.25,0,0,0-9,13.85,23.62,23.62,0,0,0,30.42,0,15.26,15.26,0,0,0-9-13.85Z"/><path class="cls-4" d="M16.06,133.92A10,10,0,1,0,26,124,9.94,9.94,0,0,0,16.06,133.92Z"/><path class="cls-6" d="M23.52,124.28a10,10,0,0,1,3.73,17.38h0a10,10,0,0,1-3.74,1.87,9.79,9.79,0,0,0,2.5.32A9.95,9.95,0,1,0,26,124a9.65,9.65,0,0,0-2.49.31Z"/><path class="cls-7" d="M28.68,143.49c4.26,3.13,7.14,10,7.27,15.39a23.58,23.58,0,0,0,5.27-3.36,15.26,15.26,0,0,0-9-13.85,9.91,9.91,0,0,1-3.57,1.82Z"/><path class="cls-1" d="M83.88,161.09A23.57,23.57,0,1,0,60.3,137.52,23.6,23.6,0,0,0,83.88,161.09Z"/><path class="cls-10" d="M83.88,113.94a23.58,23.58,0,1,1-7.51,45.93,23.58,23.58,0,0,0-.26-44.61A23.47,23.47,0,0,1,83.88,113.94Z"/><path class="cls-11" d="M77.63,141.68a15.25,15.25,0,0,0-9,13.85,23.56,23.56,0,0,0,30.4,0,15.23,15.23,0,0,0-9-13.85Z"/><path class="cls-4" d="M73.93,133.93a9.95,9.95,0,1,0,9.95-10,9.93,9.93,0,0,0-9.95,10Z"/><path class="cls-6" d="M81.38,124.29a10,10,0,0,1,0,19.27,10.33,10.33,0,0,0,2.51.31,9.95,9.95,0,1,0,0-19.89A10.25,10.25,0,0,0,81.38,124.29Z"/><path class="cls-12" d="M86.55,143.51c4.26,3.12,7.14,10,7.27,15.38a23,23,0,0,0,5.25-3.36,15.23,15.23,0,0,0-9-13.85A9.88,9.88,0,0,1,86.55,143.51Z"/><path class="cls-1" d="M140.11,161.07a23.57,23.57,0,1,0-23.57-23.56A23.61,23.61,0,0,0,140.11,161.07Z"/><path class="cls-10" d="M140.11,113.94a23.57,23.57,0,1,1,0,47.13,23.3,23.3,0,0,1-7.5-1.22,23.58,23.58,0,0,0-.26-44.61,23.75,23.75,0,0,1,7.76-1.3Z"/><path class="cls-13" d="M133.88,141.67a15.24,15.24,0,0,0-9,13.85,23.6,23.6,0,0,0,30.41,0,15.25,15.25,0,0,0-9-13.85Z"/><path class="cls-4" d="M130.16,133.92a10,10,0,1,0,10-9.95A9.93,9.93,0,0,0,130.16,133.92Z"/><path class="cls-6" d="M137.63,124.28a10,10,0,0,1,3.73,17.38h0a10,10,0,0,1-3.74,1.87,9.71,9.71,0,0,0,2.49.32,9.95,9.95,0,1,0,0-19.89,9.63,9.63,0,0,0-2.48.31Z"/><path class="cls-14" d="M142.79,143.49c4.26,3.13,7.14,10,7.27,15.39a23.3,23.3,0,0,0,5.26-3.36,15.25,15.25,0,0,0-9-13.85,10.07,10.07,0,0,1-3.57,1.82Z"/><path class="cls-15" d="M142.54,111.62h0V100.77a3.92,3.92,0,0,0-3.92-3.92H86.31V87A43.53,43.53,0,0,0,83.88,0q-1.32,0-2.61.09l-.71.05c-.66,0-1.31.11-2,.19l-.7.09c-.75.1-1.48.22-2.21.36l-.35.07c-.86.17-1.71.36-2.55.59-.19,0-.37.1-.56.15-.61.18-1.23.36-1.83.56l-.94.31L68.08,3,67,3.41l-.93.41c-.86.39-1.7.8-2.54,1.24L63,5.35c-.26.14-.52.26-.77.41l-.81.5-.24.15a43.4,43.4,0,0,0-6.54,4.9l0,0a43.29,43.29,0,0,0-7.94,9.58,1.13,1.13,0,0,0-.11.22A43.3,43.3,0,0,0,41.92,32c0,.07-.06.13-.08.2l-.09.4c-.19.71-.36,1.43-.51,2.15-.06.32-.11.64-.17.95-.1.57-.2,1.14-.28,1.72,0,.31-.08.62-.12.93-.07.61-.13,1.21-.18,1.82l-.06.78c0,.87-.09,1.75-.09,2.63h0A43.59,43.59,0,0,0,81.45,87v9.86H27.5a3.93,3.93,0,0,0-3.92,3.92v10.85a26,26,0,1,0,4.86,0v-9.9h53v9.91c-.5,0-1,.11-1.5.19l-.58.09-.9.18c-.4.08-.81.18-1.2.29l-.65.17c-.32.09-.64.19-1,.3l-.34.11a25.67,25.67,0,0,0-3.11,1.32l0,0a24.66,24.66,0,0,0-3.73,2.28c-.06,0-.1.09-.15.13a26.26,26.26,0,0,0-7.67,9.16l-.09.14c-.3.62-.57,1.25-.83,1.88a.78.78,0,0,1-.05.14c-.13.33-.25.66-.37,1l-.12.4c-.11.31-.21.63-.3,1s-.21.75-.3,1.14c0,.11,0,.22-.07.34-.08.35-.15.7-.22,1.05l-.06.37c0,.34-.11.7-.15,1,0,.12,0,.24,0,.37,0,.36-.07.72-.1,1.09,0,.11,0,.22,0,.32,0,.47,0,.94,0,1.42h0a26,26,0,1,0,28.44-25.89v-9.91h51.37v9.9a26,26,0,1,0,4.86,0ZM26,158.64a21.09,21.09,0,0,1-12.72-4.26,12.85,12.85,0,0,1,6.3-9.88,12.33,12.33,0,0,0,12.83,0,12.82,12.82,0,0,1,6.3,9.88A21,21,0,0,1,26,158.64Zm-7.52-24.72A7.52,7.52,0,1,1,26,141.43,7.53,7.53,0,0,1,18.49,133.92Zm28.66,3.59a21,21,0,0,1-4.31,12.77,17.74,17.74,0,0,0-6.74-9.2,12.38,12.38,0,1,0-20.19,0,17.75,17.75,0,0,0-6.73,9.21,21.13,21.13,0,1,1,38-12.77Zm10-66a38.56,38.56,0,0,1-12-27.93c0-.78,0-1.55.08-2.33,0-.24,0-.48.05-.72,0-.53.09-1,.16-1.57,0-.3.07-.59.11-.88.07-.47.15-1,.23-1.42s.19-1,.3-1.49.2-.87.31-1.31A38.79,38.79,0,0,1,77.38,5.42l.94-.15,1.08-.14L80.76,5l.84-.06c.76,0,1.51-.07,2.28-.07a38.64,38.64,0,0,1,26.7,66.6c-1-8-7.29-10.55-12.76-12.1l-3.09-.84c-.39-.11-.73-.65-1-1.22,5.76-4,10-10.74,10-16.64V35.32c0-6.67-2.13-12.34-6.17-16.38a19.61,19.61,0,0,0-13.69-5.75h-.08a19.61,19.61,0,0,0-13.7,5.75C66.1,23,64,28.65,64,35.32v5.35c0,5.9,4.27,12.65,10,16.64-.27.57-.61,1.11-1,1.22l-3.07.84C64.46,60.92,58.15,63.45,57.17,71.46ZM87.4,55.2a9,9,0,0,1-7.06,0C74.32,53,68.83,46,68.83,40.67V37.41A11,11,0,0,0,74.47,34c1.1-1.12,1.19-1.21,2.22-.94.88.22,1.62.42,2.27.6a18.87,18.87,0,0,0,4.92.94,19.31,19.31,0,0,0,4.94-.95L91.05,33c1-.27,1.13-.18,2.22.94a11,11,0,0,0,5.64,3.43v3.26C98.91,46,93.43,53,87.4,55.2Zm4,7L85,66l-.09,0c-1,.67-1.06.67-2.09,0l-.09,0-6.43-3.78a7.55,7.55,0,0,0,2-2.57l.35.14a13.74,13.74,0,0,0,10.44,0l.36-.14A7.77,7.77,0,0,0,91.43,62.2ZM69,32.18c1.27-9.52,8.28-14,14.85-14.12,6.56.12,13.57,4.6,14.83,14.12a7.67,7.67,0,0,1-2-1.61c-1.33-1.35-3.15-3.21-6.92-2.24l-2.27.6a17.26,17.26,0,0,1-3.68.79,16.58,16.58,0,0,1-3.66-.78l-2.31-.62c-3.76-1-5.58.9-6.91,2.25A7.72,7.72,0,0,1,69,32.18ZM83.88,158.66a21.07,21.07,0,0,1-12.72-4.26,12.82,12.82,0,0,1,6.3-9.89,12.33,12.33,0,0,0,12.83,0,12.82,12.82,0,0,1,6.3,9.89A21.06,21.06,0,0,1,83.88,158.66Zm-7.52-24.73a7.52,7.52,0,1,1,7.52,7.51A7.52,7.52,0,0,1,76.36,133.93ZM105,137.52a21,21,0,0,1-4.31,12.77,17.72,17.72,0,0,0-6.73-9.2,12.39,12.39,0,1,0-20.19,0A17.82,17.82,0,0,0,67,150.29a21,21,0,0,1-4.3-12.77h0c0-.62,0-1.24.08-1.85a2.11,2.11,0,0,0,0-.25A21.14,21.14,0,0,1,105,137.52ZM83.88,82.19a38.46,38.46,0,0,1-22-6.87V73.68h0c0-5.83,3.15-7.75,8.43-9.35l9.9,5.81a5.9,5.9,0,0,0,7.29,0l9.89-5.81c5.29,1.6,8.43,3.52,8.43,9.35v1.65A38.46,38.46,0,0,1,83.88,82.19Zm56.23,76.45a21,21,0,0,1-12.7-4.26,12.81,12.81,0,0,1,6.29-9.88,12.33,12.33,0,0,0,12.83,0,12.85,12.85,0,0,1,6.3,9.88A21.07,21.07,0,0,1,140.11,158.64Zm-7.51-24.72a7.52,7.52,0,1,1,7.51,7.51A7.52,7.52,0,0,1,132.6,133.92Zm24.34,16.36a17.75,17.75,0,0,0-6.73-9.21,12.38,12.38,0,1,0-20.19,0,17.72,17.72,0,0,0-6.73,9.2,21.14,21.14,0,1,1,33.65,0Z"/></g></g></svg>