<svg xmlns="http://www.w3.org/2000/svg" viewBox="0 0 166.02 163.51"><defs><style>.cls-1{fill:#acacac;}.cls-1,.cls-2,.cls-3,.cls-4,.cls-5,.cls-6,.cls-7,.cls-8{fill-rule:evenodd;}.cls-2{fill:#ebebeb;}.cls-3{fill:#e1e1e1;}.cls-4{fill:#b7b7b7;}.cls-5{fill:#d0d0d0;}.cls-6{fill:#b4b4b4;}.cls-7{fill:#dbdbdb;}.cls-8{fill:#9c9c9c;}.cls-9{fill:#000000;}</style></defs><g id="Layer_2" data-name="Layer 2"><g id="Layer_1-2" data-name="Layer 1"><g id="Layer_2-2" data-name="Layer 2"><g id="Layer_1-2-2" data-name="Layer 1-2"><g id="Layer_2-2-2" data-name="Layer 2-2"><g id="Layer_1-2-2-2" data-name="Layer 1-2-2"><path class="cls-1" d="M84,84.6a41.1,41.1,0,1,0-41.1-41.1A41.1,41.1,0,0,0,84,84.6Z"/><path class="cls-2" d="M59.61,73.7v2.9a41.11,41.11,0,0,0,48.8,0V73.7c0-8.1-5.5-10.4-11.2-12l-10.9,6.4c-1.8,1.2-2.9,1.2-4.7,0l-10.9-6.4c-5.6,1.6-11.1,3.9-11.1,12Z"/><path class="cls-3" d="M70.71,61.7l10.8,6.4c1.8,1.2,2.9,1.2,4.7,0l10.9-6.4-3-.8c-2.3-.6-2.9-3.6-3.4-4.5-.8.4-1.6.8-2.5,1.2a11.21,11.21,0,0,1-8.8,0,18.89,18.89,0,0,1-2.5-1.1c-.5,1-1.1,3.9-3.4,4.5l-2.8.7Z"/><path class="cls-3" d="M66.51,40.7c0,5.5,4.6,12.3,10.6,15.6.8.4,1.6.8,2.5,1.2a11.21,11.21,0,0,0,8.8,0,11.51,11.51,0,0,0,2.5-1.2c6-3.3,10.6-10.1,10.6-15.7V35.2c-7.1-.5-6-5.9-10.9-4.6-3.8,1-5.2,1.5-6.6,1.5s-2.8-.5-6.6-1.5c-4.9-1.3-3.8,4.1-10.9,4.6v5.5Z"/><path class="cls-4" d="M84,15.6c-8.7.1-17.5,6.7-17.5,19.7,7.1-.5,6-5.9,10.9-4.6,3.8,1,5.2,1.5,6.6,1.5s2.8-.5,6.6-1.5c4.9-1.3,3.8,4.1,10.9,4.6C101.41,22.3,92.71,15.8,84,15.6Z"/><path class="cls-5" d="M92.11,40.1c0,6.3-5.9,14.1-13.1,16.8-.1.1-.3.1-.4.2.3.1.7.3,1,.4a11.21,11.21,0,0,0,8.8,0,11.51,11.51,0,0,0,2.5-1.2c6-3.3,10.6-10.1,10.6-15.7V35.3c-6.4-.5-6.2-4.9-9.6-4.8a30,30,0,0,1,.3,4.3l-.1,5.3Z"/><path class="cls-6" d="M80.31,16.1c5.6,2,10.3,6.8,11.5,14.4,3.5-.1,3.2,4.4,9.6,4.8,0-13-8.7-19.6-17.5-19.7A14.87,14.87,0,0,0,80.31,16.1Z"/><path class="cls-7" d="M101.31,78.1v2.7a45.73,45.73,0,0,0,7.1-4.2V73.7c0-8.1-5.5-10.4-11.2-12l-5.4,3.2c4.1,1,9.5,2.1,9.5,13.2Z"/><path class="cls-5" d="M77.11,56.3a10.82,10.82,0,0,1-1.9,3.7,12.2,12.2,0,0,0,1.7.7c3.2,1.2,7,2.2,10.1,1.1.7-.1.9-.5,1.3.3a5,5,0,0,0,3.5,2.7l5.4-3.2-3-.8c-2.3-.6-2.9-3.6-3.4-4.5-.8.4-1.6.8-2.5,1.2a11.21,11.21,0,0,1-8.8,0c-.3-.1-.7-.3-1-.4S77.61,56.6,77.11,56.3Z"/><path class="cls-8" d="M76.21,3.2a41.14,41.14,0,0,1,34.1,47.1,40.09,40.09,0,0,1-5.5,14.9c2.2,1.8,3.6,4.4,3.6,8.6v2.9A41.16,41.16,0,0,0,76.21,3.2Z"/><path class="cls-1" d="M26.11,161.1a23.6,23.6,0,1,0-23.6-23.6h0A23.71,23.71,0,0,0,26.11,161.1Z"/><path class="cls-8" d="M26.11,113.9a23.61,23.61,0,0,1,1,47.2h-1a23.56,23.56,0,0,1-7.5-1.2,23.59,23.59,0,0,0-.2-44.6A22.33,22.33,0,0,1,26.11,113.9Z"/><path class="cls-2" d="M19.91,141.7a15.24,15.24,0,0,0-9,13.9,23.59,23.59,0,0,0,30.4,0,15.24,15.24,0,0,0-9-13.9Z"/><path class="cls-3" d="M16.11,133.9a10,10,0,1,0,10.1-9.9h-.1A10,10,0,0,0,16.11,133.9Z"/><path class="cls-5" d="M23.61,124.3a9.94,9.94,0,0,1,7,12.3,9.68,9.68,0,0,1-3.3,5.1h0a10.86,10.86,0,0,1-3.7,1.9,10.68,10.68,0,0,0,2.5.3,9.93,9.93,0,0,0,1.6-19.8h-1.6a7.07,7.07,0,0,0-2.5.2Z"/><path class="cls-7" d="M28.81,143.5c4.3,3.1,7.1,10,7.3,15.4a22.79,22.79,0,0,0,5.3-3.4,15.24,15.24,0,0,0-9-13.9,11.38,11.38,0,0,1-3.6,1.9Z"/><path class="cls-1" d="M84,161.1a23.55,23.55,0,1,0-23.7-23.5A23.64,23.64,0,0,0,84,161.1Z"/><path class="cls-8" d="M84,113.9a23.6,23.6,0,1,1-7.5,46,23.59,23.59,0,0,0-.2-44.6A21.91,21.91,0,0,1,84,113.9Z"/><path class="cls-2" d="M77.71,141.7a15.24,15.24,0,0,0-9,13.9,23.59,23.59,0,0,0,30.4,0,15.24,15.24,0,0,0-9-13.9Z"/><path class="cls-3" d="M74,133.9a10,10,0,1,0,10-10,10,10,0,0,0-10,10Z"/><path class="cls-5" d="M81.51,124.3a10,10,0,0,1,0,19.3,10.68,10.68,0,0,0,2.5.3,9.94,9.94,0,0,0,9.8-10.1,10.06,10.06,0,0,0-9.2-9.8H84A10.07,10.07,0,0,0,81.51,124.3Z"/><path class="cls-7" d="M86.61,143.5c4.3,3.1,7.1,10,7.3,15.4a20.31,20.31,0,0,0,5.2-3.4,15.24,15.24,0,0,0-9-13.9A9.18,9.18,0,0,1,86.61,143.5Z"/><path class="cls-1" d="M140.21,161.1a23.6,23.6,0,1,0-23.6-23.6h0A23.77,23.77,0,0,0,140.21,161.1Z"/><path class="cls-8" d="M140.21,113.9a23.61,23.61,0,1,1,1,47.2h-1a24,24,0,0,1-7.5-1.2,23.59,23.59,0,0,0-.2-44.6A22.33,22.33,0,0,1,140.21,113.9Z"/><path class="cls-2" d="M134,141.7a15.14,15.14,0,0,0-9,13.9,23.59,23.59,0,0,0,30.4,0,15.24,15.24,0,0,0-9-13.9Z"/><path class="cls-3" d="M130.21,133.9a10,10,0,1,0,10-9.9h0a9.94,9.94,0,0,0-10,9.9Z"/><path class="cls-5" d="M137.71,124.3a9.94,9.94,0,0,1,7,12.3,9.68,9.68,0,0,1-3.3,5.1h0a10.86,10.86,0,0,1-3.7,1.9,10,10,0,1,0,6.1-19.1,9.82,9.82,0,0,0-2.9-.5h-.6a10.9,10.9,0,0,0-2.6.3Z"/><path class="cls-7" d="M142.91,143.5c4.3,3.1,7.1,10,7.3,15.4a22.79,22.79,0,0,0,5.3-3.4,15.24,15.24,0,0,0-9-13.9,11.38,11.38,0,0,1-3.6,1.9Z"/><path class="cls-9" d="M142.61,111.6h0V100.7a3.9,3.9,0,0,0-3.9-3.9H86.41V87A43.53,43.53,0,0,0,84,0a21.75,21.75,0,0,0-2.6.1h-.7a13.55,13.55,0,0,0-2,.2L78,.4a14.35,14.35,0,0,0-2.2.4l-.3.1-2.6.6c-.2,0-.4.1-.6.1l-1.8.6-.9.3-1.4.5-1.1.4-.9.4c-.9.4-1.7.8-2.5,1.2l-.6.3c-.3.1-.5.3-.8.4l-.8.5-.2.2a44.27,44.27,0,0,0-6.5,4.9h0a40.48,40.48,0,0,0-7.9,9.6c0,.1-.1.1-.1.2A43.82,43.82,0,0,0,42.11,32c0,.1-.1.1-.1.2l-.1.4a14.19,14.19,0,0,0-.5,2.2c-.1.3-.1.6-.2,1-.1.6-.2,1.1-.3,1.7,0,.3-.1.6-.1.9-.1.6-.1,1.2-.2,1.8l-.1.8c0,.9-.1,1.8-.1,2.6h0A43.6,43.6,0,0,0,81.51,87v9.9h-54a3.9,3.9,0,0,0-3.9,3.9v10.8a26,26,0,1,0,4.8,0v-9.9h53v9.9a7.72,7.72,0,0,0-1.5.2l-.6.1-.9.2-1.2.3-.7.2-1,.3-.3.1a28.8,28.8,0,0,0-3.1,1.3h0a17.62,17.62,0,0,0-3.7,2.3c-.1,0-.1.1-.2.1a27.48,27.48,0,0,0-7.7,9.2l-.1.1a10.84,10.84,0,0,0-.8,1.9v.1a4.18,4.18,0,0,1-.4,1l-.1.4c-.1.3-.2.7-.3,1s-.2.8-.3,1.1a.37.37,0,0,1-.1.3,4.4,4.4,0,0,0-.2,1l-.1.4a3.55,3.55,0,0,1-.2,1v.4c0,.4-.1.7-.1,1.1v1.7h0a26,26,0,1,0,28.4-25.9v-9.9h51.4v9.9a26,26,0,1,0,4.8,0Zm-116.5,47a20.72,20.72,0,0,1-12.7-4.3,12.87,12.87,0,0,1,6.3-9.9,12.28,12.28,0,0,0,12.8,0,12.87,12.87,0,0,1,6.3,9.9A20.11,20.11,0,0,1,26.11,158.6Zm-7.5-24.7a7.5,7.5,0,1,1,7.5,7.5h0a7.49,7.49,0,0,1-7.5-7.5Zm28.6,3.6a21.22,21.22,0,0,1-4.3,12.8,17.74,17.74,0,0,0-6.7-9.2A12.4,12.4,0,1,0,16,141a17.22,17.22,0,0,0-6.7,9.2A21.13,21.13,0,0,1,43,124.7a20.69,20.69,0,0,1,4.2,12.8Zm10-66a38.44,38.44,0,0,1-12-27.9,17,17,0,0,1,.1-2.3v-.7a7.72,7.72,0,0,1,.2-1.5c0-.3.1-.6.1-.9a7.84,7.84,0,0,0,.2-1.4,9.92,9.92,0,0,1,.3-1.5c.1-.5.2-.9.3-1.3a38.81,38.81,0,0,1,31-28.4l.9-.2,1.1-.1,1.5-.3.8-.1c.8,0,1.5-.1,2.3-.1a38.62,38.62,0,0,1,26.7,66.6c-1-8-7.3-10.5-12.8-12.1l-3.1-.8c-.4-.1-.7-.7-1-1.2,5.8-4,10-10.7,10-16.6V35.3c0-6.7-2.1-12.3-6.2-16.4a19.9,19.9,0,0,0-13.7-5.8h-.1a19.23,19.23,0,0,0-13.7,5.8c-4,4.1-6.1,9.7-6.1,16.4v5.3c0,5.9,4.3,12.7,10,16.6-.3.6-.6,1.1-1,1.2l-3.1.8c-5.3,1.7-11.6,4.2-12.7,12.3Zm30.3-16.3a8.78,8.78,0,0,1-7.1,0c-6-2.2-11.5-9.2-11.5-14.5V37.4a10.2,10.2,0,0,0,5.6-3.4c1.1-1.1,1.2-1.2,2.2-.9s1.6.4,2.3.6a20.18,20.18,0,0,0,4.9.9,20.32,20.32,0,0,0,4.9-1l2.3-.6c1-.3,1.1-.2,2.2.9a11,11,0,0,0,5.6,3.4v3.3C99,46,93.51,53,87.51,55.2Zm4,7L85.11,66H85c-1,.7-1.1.7-2.1,0h-.1l-6.4-3.8a8.6,8.6,0,0,0,2-2.6l.3.1a13.4,13.4,0,0,0,10.4,0l.4-.1a8.6,8.6,0,0,0,2,2.6Zm-22.4-30c1.3-9.5,8.3-14,14.8-14.1,6.6.1,13.6,4.6,14.8,14.1a7.83,7.83,0,0,1-2-1.6c-1.3-1.4-3.2-3.2-6.9-2.2l-2.3.6a15.25,15.25,0,0,1-3.7.8,16.34,16.34,0,0,1-3.7-.8l-2.3-.6c-3.8-1-5.6.9-6.9,2.2A5.6,5.6,0,0,1,69.11,32.2ZM84,158.7a20.72,20.72,0,0,1-12.7-4.3,12.87,12.87,0,0,1,6.3-9.9,12.28,12.28,0,0,0,12.8,0,12.87,12.87,0,0,1,6.3,9.9A20.93,20.93,0,0,1,84,158.7Zm-7.5-24.8a7.5,7.5,0,1,1,7.5,7.5h0a7.43,7.43,0,0,1-7.5-7.5Zm28.6,3.6a21.22,21.22,0,0,1-4.3,12.8,17.74,17.74,0,0,0-6.7-9.2,12.4,12.4,0,1,0-20.2,0,17.92,17.92,0,0,0-6.8,9.2,21.22,21.22,0,0,1-4.3-12.8h0a12.75,12.75,0,0,1,.1-1.9v-.2a21.13,21.13,0,0,1,42.2,2.1ZM84,82.2a38.48,38.48,0,0,1-22-6.9V73.7h0c0-5.8,3.2-7.8,8.4-9.3l9.9,5.8a5.86,5.86,0,0,0,7.3,0l9.9-5.8c5.3,1.6,8.4,3.5,8.4,9.3v1.7A38.83,38.83,0,0,1,84,82.2Zm56.2,76.4a20.93,20.93,0,0,1-12.7-4.3,12.87,12.87,0,0,1,6.3-9.9,12.28,12.28,0,0,0,12.8,0,12.87,12.87,0,0,1,6.3,9.9A20.72,20.72,0,0,1,140.21,158.6Zm-7.5-24.7a7.5,7.5,0,1,1,7.5,7.5h0a7.49,7.49,0,0,1-7.5-7.5ZM157,150.3a17.74,17.74,0,0,0-6.7-9.2,12.4,12.4,0,1,0-20.2-.1,17.22,17.22,0,0,0-6.7,9.2,21.12,21.12,0,1,1,33.6.1Z"/></g></g></g></g></g></g></svg>