<svg xmlns="http://www.w3.org/2000/svg" viewBox="0 0 168.8 164.06"><defs><style>.cls-1{fill:#ebebeb;}.cls-2{fill:#94a6aa;}.cls-3{fill:#85c10d;}.cls-4{fill:#d2d4d8;}.cls-5{fill:#3cacde;}.cls-6{fill:#b57447;}.cls-7{fill:#a0d9f2;}.cls-8{fill:#ffcb66;}.cls-9{fill:#000000;}</style></defs><g id="Layer_2" data-name="Layer 2"><g id="Layer_1-2" data-name="Layer 1"><polygon class="cls-1" points="147.22 65.76 147.22 161.52 21.59 161.52 21.59 65.76 84.75 4.48 147.22 65.76"/><polyline class="cls-2" points="116.48 31.95 116.48 14.26 147.88 14.26 147.88 61.86"/><path class="cls-3" d="M90.41,141.45H151a15.24,15.24,0,0,1,15.24,15.24v4.83H90.41Z"/><path class="cls-3" d="M17.92,141.45H29.13v20.07H2.54v-4.69A15.39,15.39,0,0,1,17.92,141.45Z"/><polygon class="cls-4" points="147.22 69.52 147.22 87.42 84.4 27.44 21.59 87.42 21.59 69.52 79.41 14.45 84.4 9.81 89.39 14.45 147.22 69.52"/><path class="cls-5" d="M79.92,21.76l-62.84,60A6.49,6.49,0,0,1,8.43,82h0a6.48,6.48,0,0,1-.3-9.66L79.41,4.48,80,4a6.48,6.48,0,0,1,8.82,0l.58.53,71.28,67.89a6.48,6.48,0,0,1-.31,9.66h0a6.47,6.47,0,0,1-8.64-.28l-62.84-60A6.48,6.48,0,0,0,79.92,21.76Z"/><rect class="cls-6" x="36.95" y="89.77" width="41.43" height="71.75"/><rect class="cls-7" x="90.41" y="89.77" width="47.18" height="41.43"/><rect class="cls-6" x="90.41" y="89.77" width="47.18" height="12.59"/><circle class="cls-8" cx="84.4" cy="57.76" r="11.53"/><path class="cls-9" d="M87.91,89.77V131.2a2.5,2.5,0,0,0,2.5,2.51h47.18a2.51,2.51,0,0,0,2.51-2.51V89.77a2.5,2.5,0,0,0-2.51-2.5H90.41A2.5,2.5,0,0,0,87.91,89.77Zm5,38.93V104.87h42.17V128.7Zm42.17-36.42v7.58H92.92V92.28Z"/><path class="cls-9" d="M70.22,122.91h-6a2.51,2.51,0,1,0,0,5h6a2.51,2.51,0,1,0,0-5Z"/><path class="cls-9" d="M84.4,43.73a14,14,0,1,0,14,14A14,14,0,0,0,84.4,43.73Zm0,23.05a9,9,0,1,1,9-9A9,9,0,0,1,84.4,66.78Z"/><path class="cls-9" d="M151,138.91h-1.3V83.36l.24.23a9,9,0,1,0,12.46-13.06l-12-11.46V14.26a2.5,2.5,0,0,0-2.51-2.5h-31.4a2.5,2.5,0,0,0-2.51,2.5V24.39L91.11,2.62a9.91,9.91,0,0,0-13.45,0L6.38,70.53A9,9,0,1,0,18.83,83.59l.25-.23v55.55H17.92A17.94,17.94,0,0,0,0,156.83v3.67a3.57,3.57,0,0,0,3.56,3.56H31.67v0h56.2v0h77.37a3.57,3.57,0,0,0,3.56-3.56v-3.81A17.81,17.81,0,0,0,151,138.91ZM119,16.77h26.4V54.3L119,29.16ZM15.33,79.92a4,4,0,0,1-6.67-2.73,3.88,3.88,0,0,1,1.22-3L81.14,6.34a4.8,4.8,0,0,1,6.49,0l71.29,67.89a3.95,3.95,0,0,1-5.45,5.71L87.7,17.12a4.8,4.8,0,0,0-6.61,0ZM26.59,159H5.08v-2.15A12.85,12.85,0,0,1,17.92,144h8.67Zm49.29,0H39.46V92.28H75.88Zm5,0V89.77a2.5,2.5,0,0,0-2.5-2.5H37a2.5,2.5,0,0,0-2.51,2.5V159H31.67V142.47a2.2,2.2,0,0,0,0-.36v-.66a2.5,2.5,0,0,0-2.5-2.5h-.65a2.21,2.21,0,0,0-.37,0h-4V78.57L84.4,21l60.31,57.58v60.34H91.43a2.2,2.2,0,0,0-.36,0h-.66a2.5,2.5,0,0,0-2.5,2.5v.67c0,.12,0,.23,0,.35V159Zm82.83,0H93V144H151a12.72,12.72,0,0,1,12.7,12.7Z"/></g></g></svg>