<svg xmlns="http://www.w3.org/2000/svg" viewBox="0 0 137.81 162.06"><defs><style>.cls-1{fill:#acacac;}.cls-2{fill:#ebebeb;}.cls-3{fill:#f1f1f4;}.cls-4{fill:#9c9c9c;}.cls-5{fill:#b7b7b7;}.cls-6{fill:#b4b4b4;}.cls-7{fill:#a7a7a7;}.cls-8{fill:#e1e1e1;}.cls-9{fill:#dbdbdb;}.cls-10{fill:#d0d0d0;}.cls-11{fill:#000000;}</style></defs><g id="Layer_2" data-name="Layer 2"><g id="Layer_1-2" data-name="Layer 1"><g id="Layer_2-2" data-name="Layer 2"><g id="Layer_1-2-2" data-name="Layer 1-2"><g id="Layer_2-2-2" data-name="Layer 2-2"><g id="Layer_1-2-2-2" data-name="Layer 1-2-2"><path class="cls-1" d="M13.32,104.83A17.33,17.33,0,0,0,2.43,120.9l-.06,38.78H37.11V95.39Z"/><path class="cls-2" d="M68.9,115.78l-17-15.33v59.23h34V100.45Z"/><path class="cls-3" d="M51.92,153.35h34v6.33h-34Z"/><path class="cls-1" d="M135.38,120.9a17.33,17.33,0,0,0-10.89-16.07L100.7,95.39v64.29h34.74Z"/><path class="cls-4" d="M135.38,120.9a17.33,17.33,0,0,0-10.89-16.07L117.26,102a17.34,17.34,0,0,1,5.46,12.61v25.2a13.58,13.58,0,0,1-13.56,13.58H100.7v6.33h34.74Z"/><path class="cls-5" d="M41.65,91.19l-2.44.89a3.22,3.22,0,0,0-2.1,3v64.59H51.92V100.45Z"/><path class="cls-5" d="M98.6,92.08l-2.44-.89-10.27,9.26v59.23H100.7V95.09A3.22,3.22,0,0,0,98.6,92.08Z"/><path class="cls-1" d="M68.9,115.78l-4.71-4.26v48.16h9.43V111.52Z"/><path class="cls-4" d="M2.37,159.68H37.11v-6.33H2.38Z"/><path class="cls-6" d="M37.11,153.35H51.92v6.33H37.11Z"/><path class="cls-6" d="M85.89,153.35H100.7v6.33H85.89Z"/><path class="cls-7" d="M64.19,153.35h9.43v6.33H64.19Z"/><path class="cls-1" d="M100.35,40.19H37.46a3.6,3.6,0,0,1-3.6-3.6V35.07a3.61,3.61,0,0,1,3.6-3.59h62.89a3.61,3.61,0,0,1,3.6,3.59v1.52A3.6,3.6,0,0,1,100.35,40.19Z"/><path class="cls-1" d="M88.55,13.37a5,5,0,1,1-7.45.05l-12.2-11-12.19,11a5.06,5.06,0,1,1-7.45-.05l-11.8-11v29.1h62.89V2.38Z"/><path class="cls-4" d="M88.55,13.37a5,5,0,0,1-.14,7.07h0a5,5,0,0,1-.72.57v.18a4,4,0,0,1-4,4H37.46v6.33h62.89V2.38Z"/><path class="cls-8" d="M97.16,67.45h-.91l1.37-18.53h4.9a6.24,6.24,0,0,1,6.24,6.24v.69A11.6,11.6,0,0,1,97.16,67.45Z"/><path class="cls-8" d="M40.65,67.45h.91L40.19,48.92h-4.9a6.24,6.24,0,0,0-6.24,6.24h0v.69a11.6,11.6,0,0,0,11.6,11.6Z"/><path class="cls-2" d="M96.25,67.45,98,43.8a31.06,31.06,0,0,0,0-3.61H89.58a21.45,21.45,0,0,1,0,3L88,64.18a5.07,5.07,0,0,1-5.43,4.68h-.32A97.91,97.91,0,0,0,69,67.93h-.2a97.92,97.92,0,0,0-13.26.9,5.09,5.09,0,0,1-5.72-4.33v-.32l-1.55-21a21.45,21.45,0,0,1,0-3h-8.5a31.06,31.06,0,0,0,0,3.61l1.75,23.65L36.49,82A5.48,5.48,0,0,0,38,87.89l30.9,27.89L99.82,87.89a5.47,5.47,0,0,0,1.5-5.85Z"/><path class="cls-9" d="M101.32,82,96.25,67.45,98,43.8a31.06,31.06,0,0,0,0-3.61H89.58a21.45,21.45,0,0,1,0,3L88,64.18a5,5,0,0,1-2,3.73l1.69,4.87a10.13,10.13,0,0,1-2.78,10.85L59.07,106.9l9.83,8.88L99.82,87.89a5.47,5.47,0,0,0,1.5-5.85Z"/><path class="cls-8" d="M48.24,43.18l1.55,21a5.07,5.07,0,0,0,5.43,4.68h.32A98.17,98.17,0,0,1,68.81,68H69a98.17,98.17,0,0,1,13.27.9A5.07,5.07,0,0,0,88,64.54v-.36l1.54-21a21.45,21.45,0,0,0,0-3H48.23a21.45,21.45,0,0,0,0,3Z"/><path class="cls-10" d="M89.58,40.19H83L81.7,57.85a5.07,5.07,0,0,1-5.43,4.68H76a98.17,98.17,0,0,0-13.27-.9h-.2a98.07,98.07,0,0,0-12.81.84l.13,1.74a5.07,5.07,0,0,0,5.43,4.68h.32A98.17,98.17,0,0,1,68.82,68H69a98.17,98.17,0,0,1,13.27.9A5.08,5.08,0,0,0,88,64.56s0,0,0-.08v-.3l1.54-21a21.45,21.45,0,0,0,0-3Z"/><path class="cls-11" d="M78.64,79.41A2.37,2.37,0,0,0,79,74.69a73.61,73.61,0,0,0-20.11,0,2.37,2.37,0,0,0,.65,4.7,70.51,70.51,0,0,1,19.14,0Z"/><path class="cls-11" d="M66.41,82a2.38,2.38,0,0,0-.31,4.75h5.31A2.38,2.38,0,1,0,71.72,82a1.61,1.61,0,0,0-.31,0Z"/><path class="cls-11" d="M137.75,120.89a19.58,19.58,0,0,0-12.38-18.26s.08,0-.76-.3l-21.72-8.62a5.55,5.55,0,0,0-2.34-3.28l.86-.78a7.82,7.82,0,0,0,2.15-8.39l-.14-.41L99.79,70.4l-.27-.77a14,14,0,0,0,11.61-13.78v-.69a8.63,8.63,0,0,0-8.61-8.61h-2.35c.16-2.13.24-3,.27-4a6,6,0,0,0,5.88-6V35.07a6,6,0,0,0-3.6-5.48V2.38a2.37,2.37,0,0,0-4-1.73l-11.8,11A2.37,2.37,0,0,0,86.81,15h0a2.57,2.57,0,0,1,.72,1.82,2.68,2.68,0,0,1-5.36,0,2.73,2.73,0,0,1,.69-1.8,2.37,2.37,0,0,0-.16-3.35h0L70.5.62a2.4,2.4,0,0,0-3.19,0l-12.2,11A2.37,2.37,0,0,0,55,15l0,0h0a2.73,2.73,0,0,1,.69,1.8,2.68,2.68,0,1,1-5.36,0A2.65,2.65,0,0,1,51,15a2.38,2.38,0,0,0-.12-3.36L39.08.65a2.37,2.37,0,0,0-4,1.73V29.59a6,6,0,0,0-3.6,5.48v1.52a6,6,0,0,0,5.89,6c0,1,.08,1.61.26,4H35.29a8.63,8.63,0,0,0-8.61,8.61v.69A14,14,0,0,0,38.29,69.63l-4,11.63a7.82,7.82,0,0,0,2.15,8.39l.86.78A5.54,5.54,0,0,0,35,93.71l-21.8,8.62c-.84.33-.74.34-.76.3A19.58,19.58,0,0,0,.06,120.89L0,159.68a2.38,2.38,0,0,0,2.37,2.38H135.44a2.38,2.38,0,0,0,2.37-2.38h0Zm-103,36.42H26.83V135.37a2.38,2.38,0,0,0-4.75-.31h0a1.61,1.61,0,0,0,0,.31v21.94H4.75V120.9A14.88,14.88,0,0,1,14.21,107l20.53-8.15Zm67.78-106a3.88,3.88,0,0,1,3.87,3.86v.69a9.26,9.26,0,0,1-7.57,9.08l1-13.63ZM39.84,7.84l6.35,5.91a7.43,7.43,0,1,0,13.58.1L68.9,5.58,78,13.85a7.43,7.43,0,1,0,13.58-.1L98,7.84V29.1H39.84Zm-2.38,30a1.23,1.23,0,0,1-1.22-1.23V35.07a1.22,1.22,0,0,1,1.22-1.22h62.89a1.22,1.22,0,0,1,1.22,1.22h0v1.52a1.23,1.23,0,0,1-1.22,1.23ZM85.89,48.66H77.41a6.63,6.63,0,0,0-6.62,6.63v8.38a1.88,1.88,0,0,1-1.88,1.88,101.13,101.13,0,0,0-13.69.93,2.7,2.7,0,0,1-3-2.29V64l-.79-10.67c.38.09-.65.07,13.28.07a2.38,2.38,0,0,0,0-4.75H51.92a2.42,2.42,0,0,0-.88.17c-.42-5.71-.44-5.92-.45-6.27H87.23c0,.33,0-.28-.46,6.27A2.42,2.42,0,0,0,85.89,48.66Zm.55,4.68L85.65,64a2.69,2.69,0,0,1-2.88,2.49h-.18c-2.44-.33-4.92-.58-7.39-.73a6.66,6.66,0,0,0,.33-2.08V55.29a1.88,1.88,0,0,1,1.88-1.88C86.62,53.41,86.05,53.43,86.44,53.34Zm-55,2.51v-.69a3.88,3.88,0,0,1,3.87-3.86H38l1,13.63a9.26,9.26,0,0,1-7.58-9.08Zm18.1,101.46h-10V95.09a.85.85,0,0,1,.46-.78l1.09-.4,8.42,7.6v55.8Zm12.27,0H54.29V105.79l7.52,6.79Zm9.44,0H66.56V116.86l.75.68a2.38,2.38,0,0,0,3.1.08l.84-.76Zm12.27,0H76V112.58l7.52-6.79Zm14.8,0h-10v-55.8h0l8.42-7.6,1.09.4a.84.84,0,0,1,.54.78Zm-.09-71.19-23.39,21.1,6-15.16a2.37,2.37,0,1,0-4.41-1.75h0l-7.53,19-7.52-19A2.37,2.37,0,0,0,57,92.06l6,15.16L39.58,86.12a3.1,3.1,0,0,1-.85-3.3l5.05-14.54a2.24,2.24,0,0,0,.15-.81c0-.66-1.75-23.41-1.8-24.91h3.7c0,.56-.1-1.27,1.6,21.8a7.46,7.46,0,0,0,8,6.88h.46a95.63,95.63,0,0,1,26.07,0,7.46,7.46,0,0,0,8.4-6.39h0v-.43C92.08,41.29,92,43.12,92,42.56h3.71c0,1.17-1.82,24.63-1.81,25a2.44,2.44,0,0,0,.15.76L95.31,72l3.62,10.4.15.41A3.09,3.09,0,0,1,98.23,86.12Zm17.5,71.19V135.37a2.38,2.38,0,0,0-4.75-.31h0a1.61,1.61,0,0,0,0,.31v21.94h-7.91V98.89L123.6,107a14.9,14.9,0,0,1,9.4,13.9l.05,36.41Z"/></g></g></g></g></g></g></svg>