<svg xmlns="http://www.w3.org/2000/svg" viewBox="0 0 137.81 162.05"><defs><style>.cls-1{fill:#dd636e;}.cls-2{fill:#ebebeb;}.cls-3{fill:#f1f1f4;}.cls-4{fill:#da4a54;}.cls-5{fill:#ffcb66;}.cls-6{fill:#fed843;}.cls-7{fill:#f5ad76;}.cls-8{fill:#f6e738;}.cls-9{fill:#f9f48e;}.cls-10{fill:#fabe2c;}.cls-11{fill:#ffdac6;}.cls-12{fill:#dbdbdb;}.cls-13{fill:#f5c4b0;}.cls-14{fill:#000000;}</style></defs><g id="Layer_2" data-name="Layer 2"><g id="Layer_1-2" data-name="Layer 1"><path class="cls-1" d="M13.32,104.82A17.35,17.35,0,0,0,2.43,120.89l-.06,38.78H37.11V95.38l-23.79,9.44Z"/><path class="cls-2" d="M68.9,115.77l-17-15.33v59.23h34V100.44Z"/><path class="cls-3" d="M51.92,153.34h34v6.33h-34Z"/><path class="cls-1" d="M135.38,120.89a17.35,17.35,0,0,0-10.89-16.07L100.7,95.38v64.29h34.74Z"/><path class="cls-4" d="M135.38,120.89a17.35,17.35,0,0,0-10.89-16.07L117.26,102a17.36,17.36,0,0,1,5.46,12.61l0,25.2a13.57,13.57,0,0,1-13.57,13.58H100.7v6.33h34.74Z"/><path class="cls-5" d="M41.65,91.18l-2.44.89a3.22,3.22,0,0,0-2.1,3v64.59H51.92V100.44Z"/><path class="cls-5" d="M98.6,92.07l-2.44-.89-10.27,9.26v59.23H100.7V95.08A3.22,3.22,0,0,0,98.6,92.07Z"/><path class="cls-6" d="M68.9,115.77l-4.71-4.26v48.16h9.43V111.51Z"/><path class="cls-4" d="M2.37,159.67H37.11v-6.33H2.38Z"/><path class="cls-7" d="M37.11,153.34H51.92v6.33H37.11Z"/><path class="cls-7" d="M85.89,153.34H100.7v6.33H85.89Z"/><path class="cls-8" d="M64.19,153.34h9.43v6.33H64.19Z"/><path class="cls-9" d="M100.35,40.18H37.46a3.6,3.6,0,0,1-3.6-3.6V35.06a3.6,3.6,0,0,1,3.6-3.59h62.89a3.6,3.6,0,0,1,3.6,3.59v1.52A3.6,3.6,0,0,1,100.35,40.18Z"/><path class="cls-6" d="M88.55,13.36a5,5,0,1,1-7.45.05l-12.2-11-12.19,11a5.06,5.06,0,1,1-7.45-.05l-11.8-11v29.1h62.89V2.37Z"/><path class="cls-10" d="M88.55,13.36A5,5,0,0,1,87.69,21v.18a4,4,0,0,1-4,4H37.46v6.33h62.89V2.37Z"/><path class="cls-11" d="M97.16,67.44h-.91l1.37-18.53h4.9a6.24,6.24,0,0,1,6.24,6.24v.69a11.6,11.6,0,0,1-11.6,11.6Z"/><path class="cls-11" d="M40.65,67.44h.91L40.19,48.91h-4.9a6.24,6.24,0,0,0-6.24,6.24v.69a11.6,11.6,0,0,0,11.6,11.6Z"/><path class="cls-2" d="M96.25,67.44,98,43.79A29.08,29.08,0,0,0,98,40.18H89.58a21.34,21.34,0,0,1,0,3L88,64.17a5.07,5.07,0,0,1-5.75,4.65A98.17,98.17,0,0,0,69,67.92h-.2a98.14,98.14,0,0,0-13.26.9,5.07,5.07,0,0,1-5.75-4.65l-1.55-21a23,23,0,0,1,0-3H39.77a31.13,31.13,0,0,0,0,3.61l1.75,23.65L36.49,82A5.47,5.47,0,0,0,38,87.88L68.9,115.77,99.82,87.88a5.47,5.47,0,0,0,1.5-5.85Z"/><path class="cls-12" d="M101.32,82,96.25,67.44,98,43.79A29.08,29.08,0,0,0,98,40.18H89.58a21.34,21.34,0,0,1,0,3L88,64.17A5.09,5.09,0,0,1,86,67.9l1.69,4.87a10.13,10.13,0,0,1-2.78,10.85L59.07,106.89l9.83,8.88L99.82,87.88a5.47,5.47,0,0,0,1.5-5.85Z"/><path class="cls-11" d="M48.24,43.17l1.55,21a5.07,5.07,0,0,0,5.75,4.65,98.17,98.17,0,0,1,13.27-.9H69a98.17,98.17,0,0,1,13.27.9A5.07,5.07,0,0,0,88,64.17l1.54-21a21.34,21.34,0,0,0,0-3H48.23a23,23,0,0,0,0,3Z"/><path class="cls-13" d="M89.58,40.18H83l-1.3,17.66a5.07,5.07,0,0,1-5.75,4.65,98.17,98.17,0,0,0-13.27-.9h-.2a98.07,98.07,0,0,0-12.81.84l.13,1.74a5.07,5.07,0,0,0,5.75,4.65,98.17,98.17,0,0,1,13.27-.9H69a98.17,98.17,0,0,1,13.27.9A5.07,5.07,0,0,0,88,64.17l1.54-21a21.34,21.34,0,0,0,0-3Z"/><path class="cls-14" d="M78.64,79.4A2.37,2.37,0,0,0,79,74.68a74,74,0,0,0-20.11,0,2.37,2.37,0,1,0,.65,4.7,70.71,70.71,0,0,1,19.14,0Z"/><path class="cls-14" d="M66.41,82a2.38,2.38,0,1,0,0,4.75h5a2.38,2.38,0,1,0,0-4.75Z"/><path class="cls-14" d="M137.75,120.88a19.6,19.6,0,0,0-12.38-18.26s.08,0-.76-.3L102.89,93.7a5.58,5.58,0,0,0-2.34-3.28l.86-.78a7.82,7.82,0,0,0,2.15-8.39l-.14-.41L99.79,70.39l-.27-.77a14,14,0,0,0,11.61-13.78v-.69a8.62,8.62,0,0,0-8.61-8.61h-2.35c.16-2.13.24-3,.27-4a6,6,0,0,0,5.88-6V35.06a6,6,0,0,0-3.6-5.48V2.37a2.37,2.37,0,0,0-4-1.73l-11.8,11A2.38,2.38,0,0,0,86.81,15a2.61,2.61,0,0,1,.72,1.82,2.68,2.68,0,0,1-5.36,0,2.73,2.73,0,0,1,.69-1.8,2.37,2.37,0,0,0-.16-3.35L70.5.61a2.4,2.4,0,0,0-3.19,0l-12.2,11A2.37,2.37,0,0,0,55,15a2.73,2.73,0,0,1,.69,1.8,2.68,2.68,0,1,1-5.36,0A2.61,2.61,0,0,1,51,15a2.38,2.38,0,0,0-.12-3.36L39.08.64a2.37,2.37,0,0,0-4,1.73V29.58a6,6,0,0,0-3.6,5.48v1.52a6,6,0,0,0,5.89,6c0,1,.08,1.61.26,4H35.29a8.62,8.62,0,0,0-8.61,8.61v.69A14,14,0,0,0,38.29,69.62l-4,11.63a7.82,7.82,0,0,0,2.15,8.39l.86.78a5.58,5.58,0,0,0-2.34,3.28L13.2,102.32c-.84.33-.74.34-.76.3A19.6,19.6,0,0,0,.06,120.88L0,159.67a2.38,2.38,0,0,0,2.37,2.38H135.44a2.38,2.38,0,0,0,2.37-2.38h0Zm-103,36.42H26.83V135.36a2.38,2.38,0,1,0-4.75,0V157.3H4.75l0-36.41A14.88,14.88,0,0,1,14.21,107l20.53-8.15Zm67.78-106a3.87,3.87,0,0,1,3.87,3.86v.69a9.25,9.25,0,0,1-7.57,9.08l1-13.63ZM39.84,7.83l6.35,5.91a7.43,7.43,0,1,0,13.58.1L68.9,5.57,78,13.84a7.43,7.43,0,1,0,13.58-.1L98,7.83V29.09H39.84Zm-2.38,30a1.23,1.23,0,0,1-1.22-1.23V35.06a1.22,1.22,0,0,1,1.22-1.22h62.89a1.22,1.22,0,0,1,1.22,1.22v1.52a1.23,1.23,0,0,1-1.22,1.23ZM85.89,48.65H77.41a6.63,6.63,0,0,0-6.62,6.63v8.38a1.88,1.88,0,0,1-1.88,1.88,100.15,100.15,0,0,0-13.69.93A2.69,2.69,0,0,1,52.16,64l-.79-10.67c.38.09-.65.07,13.28.07a2.38,2.38,0,0,0,0-4.75H51.92a2.34,2.34,0,0,0-.88.17c-.42-5.71-.44-5.92-.45-6.27H87.23c0,.33,0-.28-.46,6.27A2.34,2.34,0,0,0,85.89,48.65Zm.55,4.68L85.65,64a2.69,2.69,0,0,1-3.06,2.47c-2.44-.33-4.92-.58-7.39-.73a6.56,6.56,0,0,0,.33-2.08V55.28a1.88,1.88,0,0,1,1.88-1.88C86.62,53.4,86.05,53.42,86.44,53.33Zm-55,2.51v-.69a3.87,3.87,0,0,1,3.87-3.86H38l1,13.63A9.25,9.25,0,0,1,31.42,55.84ZM49.54,157.3h-10V95.08A.84.84,0,0,1,40,94.3l1.09-.4,8.42,7.6v55.8Zm12.27,0H54.29V105.78l7.52,6.79Zm9.44,0H66.56V116.85l.75.68a2.38,2.38,0,0,0,3.1.08l.84-.76Zm12.27,0H76V112.57l7.52-6.79Zm14.8,0h-10V101.5h0l8.42-7.6,1.09.4a.84.84,0,0,1,.54.78Zm-.09-71.19-23.39,21.1,6-15.16a2.37,2.37,0,1,0-4.41-1.75l-7.53,19-7.52-19A2.37,2.37,0,0,0,57,92.05l6,15.16L39.58,86.11a3.1,3.1,0,0,1-.85-3.3l5.05-14.54a2.24,2.24,0,0,0,.15-.81c0-.66-1.75-23.41-1.8-24.91h3.7c0,.56-.1-1.27,1.6,21.8a7.45,7.45,0,0,0,8.44,6.83,95.61,95.61,0,0,1,26.07,0,7.47,7.47,0,0,0,8.45-6.83C92.08,41.28,92,43.11,92,42.55h3.71c0,1.17-1.82,24.63-1.81,25a2.44,2.44,0,0,0,.15.76L95.31,72,98.93,82.4l.15.41A3.1,3.1,0,0,1,98.23,86.11Zm17.5,71.19V135.36a2.38,2.38,0,1,0-4.75,0V157.3h-7.91V98.88L123.6,107A14.88,14.88,0,0,1,133,120.89l.05,36.41Z"/></g></g></svg>