<svg xmlns="http://www.w3.org/2000/svg" viewBox="0 0 123.5 168.99"><defs><style>.cls-1{fill:#ffcb66;}.cls-2{fill:#ffdac6;}.cls-3{fill:#f6ad76;}.cls-4{fill:#f5c4b0;}.cls-5{fill:#dbdbdb;}.cls-6{fill:#ffd9c5;}.cls-7{fill:#eaeaea;}.cls-8{fill:#2e6aa3;}.cls-9{fill:#bfbfbf;}.cls-10{fill:#000000;}</style></defs><g id="Layer_2" data-name="Layer 2"><g id="Layer_1-2" data-name="Layer 1"><g id="Layer_1-2-2" data-name="Layer 1-2"><g id="Layer_2-2" data-name="Layer 2-2"><g id="Layer_1-2-2-2" data-name="Layer 1-2-2"><path class="cls-1" d="M34.1,4.09s-9.4,9.2-7.6,14.3,17.2,13.7,17.2,13.7l38,2,11.3,13s3.7-12.9,2.9-17.8-8.6-9.4-11-9.8c0,0-3.9-9.2-11.7-8.6s-34.4-.2-34.4-.2Z"/><path class="cls-2" d="M35.6,35.19l32.9-.9,12.9.9,11,16.6v23.9c0,6.7-11.2,27.6-30.7,27.6s-22.9-20.4-22.9-20.4Z"/><path class="cls-3" d="M25.3,17.19s1,18.2,9,17.6,18-.8,18-.8-27.2-14.7-26-20.7Z"/><path class="cls-4" d="M31.4,35.79V73c0,8.6,9.6,24.1,17.8,26.2,0,0-6.8-23.7-6.8-39.9v-25Z"/><path class="cls-2" d="M29.4,50.59s-6.1,2.3-6.1,8,6.1,8.1,6.1,8.1Z"/><path class="cls-5" d="M10.8,119.69V167H120.4s7.4-49.2-14.7-52-24.8-2.7-24.8-2.7l-18.8,10.3-24.3-10.3S17.9,112.69,10.8,119.69Z"/><path class="cls-2" d="M94.3,50.59s6.1,2.3,6.1,8-6.1,8.1-6.1,8.1Z"/><polygon class="cls-6" points="46.6 105.68 46.6 113.58 61.7 121.29 77.5 111.79 76.6 103.29 46.6 105.68"/><path class="cls-4" d="M44.9,100.09v7.8s15.9,8.6,33.5,0v-8.3C78.3,99.59,61.5,109.09,44.9,100.09Z"/><polygon class="cls-7" points="40.3 114.58 46.6 132.78 61.7 123.68 78.3 132.78 83.6 112.29 62.1 122.49 41.9 112.29 40.3 114.58"/><polygon class="cls-8" points="61.7 123.68 53.9 131.58 53.9 166.99 70.3 166.99 69.3 131.18 61.7 123.68"/><polygon class="cls-9" points="14.5 116.99 14.5 166.99 4.2 166.99 4.2 130.28 14.5 116.99"/><path class="cls-10" d="M61.2,75.89H58.1a5,5,0,0,1-4.8-6.6l5.3-14.4a2.94,2.94,0,0,1,3.72-1.83l.08,0h0a2.94,2.94,0,0,1,1.83,3.72l0,.08-4.7,13h1.7a3,3,0,0,1,3,3h0A3,3,0,0,1,61.2,75.89Z"/><path class="cls-10" d="M60.9,86.49H59.1a3,3,0,0,1-3-3h0a3,3,0,0,1,3-3h1.8c2,0,5.2-1.3,7.7-3.2a3,3,0,0,1,3.8.3h0a2.9,2.9,0,0,1,.1,4.1.94.94,0,0,1-.1.1l-.3.3C68.9,84.59,64.6,86.49,60.9,86.49Z"/><circle class="cls-10" cx="45.1" cy="55.69" r="5.4"/><circle class="cls-10" cx="78.5" cy="55.69" r="5.4"/></g></g><path class="cls-10" d="M99,110.89c-6.7-1.1-13.7-2.1-17.3-2.6v-9.5c8.7-7.1,13.6-17.9,13.6-24.9v-4.1c3.8-1.4,9-4.8,9-11.3s-5.1-9.9-8.9-11.3a34.11,34.11,0,0,1,1.9-8.4c1-3.3,2-6.3,2-9.2,0-5.8-5-12.2-12.4-13.1-2-2.8-6.7-8.5-13.3-8.5h-32l-5.2-6.8a2.9,2.9,0,0,0-4-.63l-.05,0c-.4.3-9.5,6.9-9.5,18.3,0,8.3,3.5,12.9,5.5,14.9v13.7c-3.8,1.5-8.5,4.9-8.5,11.1s4.7,9.7,8.5,11.1v3.4c0,6.3,4.9,17.5,13.6,25.2v10.2c-3.7.5-10.6,1.4-17.3,2.6-9.9,1.6-24.6,11.6-24.6,23V167a2,2,0,0,0,2,2H121.5a2,2,0,0,0,2-2v-33.1C123.4,122.49,108.7,112.49,99,110.89Zm-3.8-57a5.22,5.22,0,0,1,2.42,7l0,0a5.08,5.08,0,0,1-2.4,2.4ZM28.2,63a5.16,5.16,0,0,1-1.7-7.1,4.7,4.7,0,0,1,1.7-1.7Zm.6-44a17.46,17.46,0,0,1,4.7-11.5l5,6.6h35c4.2,0,7.8,5,8.9,6.9l.9,1.6H85c4.5,0,8.2,3.9,8.2,7.2,0,1.9-.9,4.7-1.7,7.4-.4,1.3-.8,2.7-1.2,4l-7.9-10.1H34.2v-.2L32.8,30C32.7,29.79,28.7,27,28.8,19Zm5.4,54.1V37H79.4l9.8,12.5v24.4c0,8-10.4,26.3-27.5,26.3C45.1,100.29,34.2,81,34.2,73.09Zm41.5,29.8v7.7l-14.1,8.9-13.8-8.7v-8.2a28,28,0,0,0,13.9,3.7A30.71,30.71,0,0,0,75.7,102.89ZM51.2,164H28.7V147.09a2,2,0,0,0-2-2h-2a2,2,0,0,0-2,2V164H6V134.09c0-7.6,11.7-15.8,19.4-17.1,4.3-.7,8.8-1.4,12.3-1.9a7.52,7.52,0,0,0,.1,1.5l2.7,16.2a4.78,4.78,0,0,0,2.1,3.3,4.25,4.25,0,0,0,2.5.7,4.66,4.66,0,0,0,2.5-.8l4-2.6,2,3.5a1.84,1.84,0,0,1,.2,1Zm-5.1-34.26-2.4-14.2c0-.1,0-.1.1-.1H44l12.2,7.7ZM57.2,164l2.3-23.66H64L66.3,164Zm7.5-30.26c-.1.2-.2.3-.2.5H58.9c-.1-.1-.1-.2-.2-.3l-2.2-3.8,5.3-3.5,5,3.3Zm14.7-18.4h.2c.1,0,.1,0,.1.1l-2.4,14.2L67.2,123ZM117.5,164H100.7V146.89a2,2,0,0,0-2-2h-2a2,2,0,0,0-2,2V164H72.31L69.8,137.69a1.84,1.84,0,0,1,.2-1l2-3.5,4,2.6a4.25,4.25,0,0,0,2.5.7,4.36,4.36,0,0,0,2.9-1.1,5,5,0,0,0,1.6-2.8l2.7-16.3a7.27,7.27,0,0,0,.1-1.4c3.6.5,8,1.2,12.3,1.9,7.7,1.3,19.4,9.4,19.4,17.1Z"/></g></g></g></svg>