<svg xmlns="http://www.w3.org/2000/svg" viewBox="0 0 41.39 56.93"><defs><style>.cls-1{fill:rgba(0,0,0,0.05);}</style></defs><g id="Layer_2" data-name="Layer 2"><g id="Layer_1-2" data-name="Layer 1"><path d="M36.86,2.81,24.07,15.6a4.76,4.76,0,0,1-6.75,0L4.52,2.81A6.39,6.39,0,0,0,0,.93v56H41.39V.93A6.41,6.41,0,0,0,36.86,2.81Z"/><path class="cls-1" d="M40.39,0a7.3,7.3,0,0,0-4.23,2.1L23.36,14.89a3.77,3.77,0,0,1-5.34,0L5.23,2.1A7.3,7.3,0,0,0,1,0H0V.93A6.39,6.39,0,0,1,4.52,2.81L17.32,15.6a4.77,4.77,0,0,0,6.75,0L36.86,2.81A6.41,6.41,0,0,1,41.39.93V0Z"/></g></g></svg>