<svg xmlns="http://www.w3.org/2000/svg" viewBox="0 0 170.06 170.06"><defs><style>.cls-1{fill:#c6c6c6;}.cls-2{fill:#b2b2b2;}.cls-3{fill:#fed843;}.cls-4{fill:#fabe2c;}.cls-5{fill:#000000;}</style></defs><g id="Layer_2" data-name="Layer 2"><g id="Layer_1-2" data-name="Layer 1"><path class="cls-1" d="M92,78.09l-6.84-6.84L3.91,152.46a4.83,4.83,0,0,0,0,6.84l3.42,3.42,3.42,3.42a4.83,4.83,0,0,0,6.84,0L98.8,84.93Z"/><path class="cls-2" d="M17.59,166.14,98.8,84.93,92,78.09,7.33,162.72l3.42,3.42a4.83,4.83,0,0,0,6.84,0Z"/><path class="cls-3" d="M89.48,17.93,87,8.59a4.84,4.84,0,1,1,9.35-2.51l2.5,9.35a4.83,4.83,0,1,1-9.34,2.5Z"/><path class="cls-4" d="M117,120.69l-2.5-9.34a4.83,4.83,0,0,1,9.34-2.5l2.51,9.34a4.84,4.84,0,0,1-9.35,2.5Z"/><path class="cls-3" d="M45.94,47.12a4.83,4.83,0,0,1,5.92-3.42l9.35,2.5a4.84,4.84,0,1,1-2.51,9.35L49.36,53A4.84,4.84,0,0,1,45.94,47.12Z"/><path class="cls-4" d="M148.7,74.65a4.84,4.84,0,0,1,5.93-3.42L164,73.74a4.83,4.83,0,0,1-2.5,9.34l-9.35-2.5A4.85,4.85,0,0,1,148.7,74.65Z"/><path class="cls-3" d="M151.12,18.94a4.83,4.83,0,0,0-6.84,0l-6.84,6.84a4.83,4.83,0,0,0,6.84,6.83l6.84-6.83A4.83,4.83,0,0,0,151.12,18.94Z"/><path class="cls-4" d="M144.28,32.61l6.84-6.83a4.83,4.83,0,0,0,0-6.84L137.44,32.61a4.83,4.83,0,0,0,6.84,0Z"/><path class="cls-3" d="M158.05,49.62a4.83,4.83,0,0,0-4.1-3.55l-26.77-3.19h0L124,16.11a4.84,4.84,0,0,0-8.67-2.33L99.16,35.37,74.38,24.75A4.84,4.84,0,0,0,68,31.1L78.65,55.88,57.06,72a4.84,4.84,0,0,0,2.32,8.68L86.16,83.9l3.19,26.77A4.84,4.84,0,0,0,98,113l16.15-21.59L139,102a4.84,4.84,0,0,0,6.35-6.35L134.68,70.9l21.59-16.15a4.86,4.86,0,0,0,1.78-5.13Z"/><path class="cls-4" d="M92.9,114.77A4.83,4.83,0,0,0,98,113l16.15-21.59L139,102a4.84,4.84,0,0,0,6.35-6.35L134.68,70.9l21.59-16.15A4.84,4.84,0,0,0,154,46.07l-26.77-3.19h0l-41,41,3.19,26.77a4.83,4.83,0,0,0,3.55,4.1Z"/><path class="cls-5" d="M87.06,18.58A7.35,7.35,0,0,0,94.16,24a7.71,7.71,0,0,0,1.89-.24,7.35,7.35,0,0,0,5.19-9L98.73,5.43A7.34,7.34,0,0,0,84.56,9.24Zm4-13.5a2.47,2.47,0,0,1,.6-.08A2.35,2.35,0,0,1,93.9,6.73l2.51,9.34a2.34,2.34,0,0,1-4.52,1.22l-2.5-9.35A2.34,2.34,0,0,1,91,5.08Z"/><path class="cls-5" d="M126.27,108.2a7.34,7.34,0,0,0-14.18,3.8l2.51,9.34a7.35,7.35,0,0,0,7.09,5.44,7.22,7.22,0,0,0,1.89-.25,7.35,7.35,0,0,0,5.19-9Zm-4,13.5a2.34,2.34,0,0,1-2.86-1.65l-2.51-9.35a2.34,2.34,0,0,1,1.66-2.86,2.47,2.47,0,0,1,.6-.08,2.41,2.41,0,0,1,1.17.31,2.35,2.35,0,0,1,1.09,1.42l2.5,9.35A2.33,2.33,0,0,1,122.29,121.7Z"/><path class="cls-5" d="M48.71,55.46,58.06,58a7.34,7.34,0,0,0,3.8-14.17l-9.35-2.51a7.37,7.37,0,0,0-5.57.73,7.29,7.29,0,0,0-3.41,4.46h0A7.35,7.35,0,0,0,48.71,55.46Zm-.35-7.7a2.32,2.32,0,0,1,2.86-1.65l9.34,2.51a2.34,2.34,0,0,1,1.65,2.86,2.29,2.29,0,0,1-1.09,1.42,2.32,2.32,0,0,1-1.77.23L50,50.63A2.34,2.34,0,0,1,48.36,47.76Z"/><path class="cls-5" d="M169.07,74.74a7.34,7.34,0,0,0-4.45-3.42l-9.35-2.5a7.34,7.34,0,0,0-9,5.19h0a7.34,7.34,0,0,0,5.19,9l9.34,2.51a7.31,7.31,0,0,0,1.91.25,7.34,7.34,0,0,0,6.34-11ZM165,79a2.29,2.29,0,0,1-1.08,1.41,2.31,2.31,0,0,1-1.78.24l-9.34-2.51A2.33,2.33,0,0,1,154,73.65l9.35,2.5a2.36,2.36,0,0,1,1.41,1.09A2.3,2.3,0,0,1,165,79Z"/><path class="cls-5" d="M140.86,36.53a7.28,7.28,0,0,0,5.19-2.15l6.83-6.84a7.33,7.33,0,1,0-10.37-10.37L135.67,24a7.34,7.34,0,0,0,5.19,12.52Zm-1.65-9,6.84-6.83A2.29,2.29,0,0,1,147.7,20a2.32,2.32,0,0,1,1.65.68h0a2.32,2.32,0,0,1,0,3.3l-6.84,6.84a2.39,2.39,0,0,1-3.3,0A2.35,2.35,0,0,1,139.21,27.54Z"/><path class="cls-5" d="M137.75,71.72l20-15a7.34,7.34,0,0,0-3.52-13.16l-24.83-3-2.95-24.82a7.34,7.34,0,0,0-13.16-3.53l-15,20-23-9.85a7.34,7.34,0,0,0-9.63,9.64l9.85,23-20,15a7.34,7.34,0,0,0,3.53,13.16l9.44,1.12L2.14,150.7a7.36,7.36,0,0,0,0,10.37L9,167.91a7.34,7.34,0,0,0,10.38,0l66.38-66.38L86.87,111a7.38,7.38,0,0,0,5.38,6.22,7.89,7.89,0,0,0,1.91.25,7.32,7.32,0,0,0,5.87-3l15-20,23,9.85a7.34,7.34,0,0,0,9.63-9.64ZM15.82,164.37a2.37,2.37,0,0,1-3.3,0l-6.84-6.84a2.34,2.34,0,0,1,0-3.3L74.84,85.07l9.07,1.08L85,95.21ZM142.51,99.23a2.32,2.32,0,0,1-2.57.5l-26.59-11.4L96,111.5a2.34,2.34,0,0,1-4.19-1.12L90.24,97,88.41,81.65,73,79.82l-13.35-1.6a2.31,2.31,0,0,1-2-1.71A2.34,2.34,0,0,1,58.55,74L81.72,56.71,70.33,30.12a2.33,2.33,0,0,1,.49-2.58,2.36,2.36,0,0,1,1.65-.68,2.3,2.3,0,0,1,.92.19L100,38.45l17.33-23.17a2.35,2.35,0,0,1,2.48-.86,2.32,2.32,0,0,1,1.71,2l3.43,28.73,28.73,3.43a2.32,2.32,0,0,1,2,1.71h0a2.34,2.34,0,0,1-.85,2.48L131.61,70.07,143,96.66A2.33,2.33,0,0,1,142.51,99.23Z"/></g></g></svg>