<svg xmlns="http://www.w3.org/2000/svg" viewBox="0 0 170 169.77"><defs><style>.cls-1{fill:#ebebeb;}.cls-2{fill:#dbdbdb;}.cls-3{fill:#acacac;}.cls-4{fill:#9c9c9c;}.cls-5{fill:#000000;}</style></defs><g id="Layer_2" data-name="Layer 2"><g id="Layer_1-2" data-name="Layer 1"><g id="Layer_2-2" data-name="Layer 2"><g id="Layer_1-2-2" data-name="Layer 1-2"><g id="Layer_2-2-2" data-name="Layer 2-2"><g id="Layer_1-2-2-2" data-name="Layer 1-2-2"><path class="cls-1" d="M92,77.8l-6.84-6.88L3.91,152.17a4.81,4.81,0,0,0,0,6.81l0,0h0l3.42,3.42,3.42,3.42a4.82,4.82,0,0,0,6.81,0h0L98.8,84.64Z"/><path class="cls-2" d="M17.59,165.85,98.8,84.64,92,77.8,7.33,162.43l3.42,3.42a4.82,4.82,0,0,0,6.81,0h0Z"/><path class="cls-1" d="M89.48,17.64,87,8.3a4.84,4.84,0,1,1,9.35-2.51h0l2.5,9.35a4.83,4.83,0,1,1-9.34,2.5Z"/><path class="cls-2" d="M117,120.4l-2.5-9.34a4.83,4.83,0,0,1,9.34-2.5h0l2.51,9.34a4.84,4.84,0,0,1-9.35,2.5Z"/><path class="cls-1" d="M45.94,46.83a4.82,4.82,0,0,1,5.91-3.42h0l9.36,2.51a4.84,4.84,0,0,1-2.51,9.35l-9.34-2.55A4.82,4.82,0,0,1,45.94,46.83Z"/><path class="cls-2" d="M148.7,74.36a4.84,4.84,0,0,1,5.91-3.45h0L164,73.45a4.83,4.83,0,0,1-2.5,9.34l-9.35-2.5a4.85,4.85,0,0,1-3.45-5.93Z"/><path class="cls-1" d="M151.12,18.65a4.82,4.82,0,0,0-6.83,0h0l-6.84,6.84a4.83,4.83,0,0,0,6.84,6.83h0l6.84-6.83a4.84,4.84,0,0,0,0-6.83Z"/><path class="cls-2" d="M144.28,32.32l6.84-6.83a4.84,4.84,0,0,0,0-6.83h0L137.44,32.32a4.82,4.82,0,0,0,6.81,0h0Z"/><path class="cls-3" d="M158.05,49.33a4.83,4.83,0,0,0-4.1-3.55l-26.77-3.19h0L124,15.82a4.84,4.84,0,0,0-8.67-2.33L99.16,35.08,74.38,24.46A4.84,4.84,0,0,0,68,30.81L78.65,55.59,57.06,71.71a4.84,4.84,0,0,0,2.32,8.68l26.78,3.22,3.19,26.77A4.85,4.85,0,0,0,98,112.71l16.15-21.59L139,101.71a4.85,4.85,0,0,0,6.35-2.55,4.91,4.91,0,0,0,0-3.8L134.68,70.61l21.59-16.15a4.88,4.88,0,0,0,1.78-5.13Z"/><path class="cls-4" d="M92.9,114.48a4.81,4.81,0,0,0,5.1-1.77l16.15-21.59L139,101.71a4.85,4.85,0,0,0,6.35-2.55,4.91,4.91,0,0,0,0-3.8L134.68,70.61l21.59-16.15A4.85,4.85,0,0,0,154,45.78l-26.77-3.19h0l-41,41,3.19,26.77a4.82,4.82,0,0,0,3.55,4.1Z"/><path class="cls-5" d="M87.06,18.29a7.35,7.35,0,0,0,7.1,5.42,7.59,7.59,0,0,0,1.89-.24,7.36,7.36,0,0,0,5.19-9L98.73,5.14A7.34,7.34,0,0,0,84.56,8.92Zm4-13.5a2.3,2.3,0,0,1,2.83,1.62v0l2.51,9.34A2.34,2.34,0,0,1,91.89,17l-2.5-9.35A2.33,2.33,0,0,1,91,4.79Z"/><path class="cls-5" d="M126.27,107.92a7.34,7.34,0,0,0-14.18,3.8h0l2.51,9.34a7.33,7.33,0,0,0,7.09,5.44,7.61,7.61,0,0,0,1.89-.25,7.36,7.36,0,0,0,5.19-9Zm-4,13.5a2.33,2.33,0,0,1-2.86-1.64h0l-2.51-9.35a2.34,2.34,0,0,1,1.66-2.86,2,2,0,0,1,.6-.08,2.32,2.32,0,0,1,2.26,1.73l2.5,9.35a2.35,2.35,0,0,1-1.63,2.86Z"/><path class="cls-5" d="M48.71,55.17l9.35,2.54a7.34,7.34,0,0,0,3.8-14.17L52.51,41a7.37,7.37,0,0,0-5.57.73,7.23,7.23,0,0,0-3.41,4.46h0A7.35,7.35,0,0,0,48.71,55.17Zm-.35-7.7a2.31,2.31,0,0,1,2.83-1.66h0l9.34,2.51a2.35,2.35,0,0,1,1.65,2.86,2.32,2.32,0,0,1-1.09,1.42,2.38,2.38,0,0,1-1.77.23L50,50.34a2.34,2.34,0,0,1-1.65-2.86Z"/><path class="cls-5" d="M169.07,74.45A7.42,7.42,0,0,0,164.62,71l-9.35-2.5a7.34,7.34,0,0,0-9,5.18h0a7.33,7.33,0,0,0,5.17,9h0l9.34,2.51a7.2,7.2,0,0,0,1.91.25,7.35,7.35,0,0,0,6.34-11ZM165,78.71a2.35,2.35,0,0,1-1.08,1.41,2.27,2.27,0,0,1-1.78.24l-9.34-2.51a2.33,2.33,0,0,1,1.2-4.49l9.35,2.5a2.42,2.42,0,0,1,1.41,1.06A2.33,2.33,0,0,1,165,78.71Z"/><path class="cls-5" d="M140.86,36.24a7.34,7.34,0,0,0,5.19-2.15l6.83-6.84a7.33,7.33,0,0,0-10.37-10.33l-6.84,6.83a7.34,7.34,0,0,0,5.19,12.52Zm-1.65-9,6.84-6.83a2.23,2.23,0,0,1,1.65-.7,2.28,2.28,0,0,1,1.65.68h0a2.33,2.33,0,0,1,0,3.28h0l-6.84,6.84a2.39,2.39,0,0,1-3.3,0,2.35,2.35,0,0,1,0-3.28Z"/><path class="cls-5" d="M137.75,71.43l20-15a7.34,7.34,0,0,0-3.52-13.16l-24.83-3-3-24.82a7.34,7.34,0,0,0-13.11-3.53l-15,20-23-9.85a7.33,7.33,0,0,0-9.63,9.64l9.85,23-20,15A7.34,7.34,0,0,0,59,82.92L68.44,84,2.14,150.41a7.36,7.36,0,0,0,0,10.37L9,167.62a7.33,7.33,0,0,0,10.36,0h0l66.38-66.38,1.11,9.47a7.36,7.36,0,0,0,5.38,6.21,8.13,8.13,0,0,0,1.91.25,7.33,7.33,0,0,0,5.87-3l15-20L138,104a7.34,7.34,0,0,0,9.63-9.64ZM15.82,164.08a2.37,2.37,0,0,1-3.3,0l-6.84-6.84a2.34,2.34,0,0,1,0-3.3L74.84,84.78l9.07,1.08L85,94.92ZM142.51,98.92a2.32,2.32,0,0,1-2.57.5L113.35,88,96,111.21a2.34,2.34,0,0,1-3.28.46h0a2.28,2.28,0,0,1-.91-1.58L90.24,96.71,88.41,81.36,73,79.53,59.65,77.92a2.33,2.33,0,0,1-1.1-4.22L81.72,56.42,70.33,29.83a2.33,2.33,0,0,1,3.06-3.07L100,38.16,117.33,15a2.33,2.33,0,0,1,4.19,1.14L125,44.86l28.73,3.43a2.33,2.33,0,0,1,2,1.71h0a2.35,2.35,0,0,1-.85,2.48l-23.22,17.3L143,96.37A2.36,2.36,0,0,1,142.51,98.92Z"/></g></g></g></g></g></g></svg>